<svg width="58" height="40" viewBox="0 0 58 40" fill="none" xmlns="http://www.w3.org/2000/svg">
<g clip-path="url(#clip0_338_1533)">
<path fill-rule="evenodd" clip-rule="evenodd" d="M5.83969 0.430054H52.0197C54.9997 0.430054 57.4297 2.87005 57.4297 5.84005V33.4201C57.4297 36.4001 54.9897 38.8301 52.0197 38.8301H5.83969C2.85969 38.8301 0.429688 36.3901 0.429688 33.4201V5.84005C0.429688 2.86005 2.85969 0.430054 5.83969 0.430054Z" fill="#F5C0C0" stroke="white" stroke-width="0.8504" stroke-miterlimit="10"/>
<path d="M6.0398 18.4801H12.4698L11.7898 20.8001H5.2998L6.0398 18.4801ZM16.2398 20.4401C16.1798 20.9201 16.1498 21.3201 16.1498 21.6301C16.1498 22.2001 16.3198 22.6201 16.6298 22.9601C16.9398 23.3001 17.3998 23.4701 17.9298 23.4701C18.4398 23.4701 18.9498 23.3601 19.4898 23.1301C19.9998 22.9001 20.5998 22.5301 21.2998 21.9701L21.6398 22.2501C20.7898 23.2101 19.9698 23.8901 19.1498 24.2901C18.3598 24.7201 17.4498 24.9101 16.4898 24.9101C15.2398 24.9101 14.3898 24.6301 13.9398 24.0301C13.4598 23.4301 13.2298 22.7501 13.2298 21.9601C13.2298 20.7701 13.5698 19.5501 14.2798 18.3301C14.9898 17.1401 15.9498 16.1501 17.1698 15.4401C18.3898 14.7001 19.6098 14.3301 20.8298 14.3301C21.4498 14.3301 21.9098 14.4701 22.2498 14.7601C22.5598 15.0701 22.6998 15.4401 22.6998 15.8901C22.6998 16.4301 22.5598 16.9401 22.2498 17.4501C21.8198 18.1601 21.2898 18.7001 20.6298 19.1201C19.9798 19.5501 19.2398 19.8901 18.4198 20.1101C17.8898 20.2701 17.1798 20.3801 16.2398 20.4401ZM16.3598 19.8701C17.0098 19.7801 17.5198 19.6401 17.8898 19.4701C18.2298 19.3301 18.5998 19.0401 18.9398 18.6801C19.2798 18.3401 19.5898 17.8601 19.8498 17.3201C20.1098 16.7501 20.2198 16.2401 20.2198 15.7601C20.2198 15.5301 20.1598 15.3901 20.0498 15.2501C19.9398 15.1401 19.7898 15.0801 19.6198 15.0801C19.2498 15.0801 18.8498 15.3401 18.3998 15.8201C17.5698 16.7201 16.8898 18.0901 16.3598 19.8701ZM28.9398 14.3401L27.4898 19.1001C28.4498 17.6301 29.1298 16.6601 29.5898 16.1501C30.2098 15.3801 30.7498 14.9001 31.1798 14.6801C31.6098 14.4501 32.0298 14.3401 32.4598 14.3401C32.9398 14.3401 33.2798 14.4801 33.4798 14.7701C33.7098 15.0801 33.8198 15.3901 33.8198 15.7601C33.8198 16.1301 33.7098 16.6401 33.5098 17.3501L32.9998 19.1101C34.0198 17.6401 34.7598 16.6401 35.2098 16.1601C35.9198 15.3901 36.5098 14.8801 37.0198 14.6301C37.3898 14.4301 37.7598 14.3501 38.1798 14.3501C38.5798 14.3501 38.9498 14.4901 39.2298 14.7801C39.5098 15.0601 39.6598 15.4601 39.6598 15.9101C39.6598 16.3901 39.5198 16.9901 39.2898 17.7201L37.9298 21.8001C37.7298 22.4001 37.6198 22.7901 37.6198 22.9601C37.6198 23.0201 37.6498 23.0701 37.7098 23.1001C37.7698 23.1601 37.8198 23.1901 37.8798 23.1901C37.9698 23.1901 38.0198 23.1601 38.0798 23.1001C38.3598 22.9001 38.6498 22.5901 38.9298 22.1901C39.0198 22.1001 39.0998 21.9601 39.2398 21.7901L39.6098 22.0201C39.0998 22.9601 38.5298 23.6401 37.9398 24.0901C37.3198 24.5201 36.7498 24.7401 36.2398 24.7401C35.7898 24.7401 35.4198 24.6001 35.1298 24.3701C34.8498 24.1101 34.6998 23.8301 34.6998 23.4901C34.6998 23.1801 34.8098 22.7001 35.0098 22.0401L36.3998 17.7001C36.5998 17.0801 36.6798 16.7101 36.6798 16.5701C36.6798 16.5101 36.6498 16.4601 36.5898 16.4301C36.5298 16.3701 36.4798 16.3401 36.4198 16.3401C36.3098 16.3401 36.1898 16.3701 36.0798 16.4001C35.9098 16.4901 35.6798 16.6801 35.3398 17.0001C34.9998 17.3101 34.5498 17.8801 33.9198 18.6701C33.2998 19.4901 32.8698 20.1201 32.6398 20.5701C32.4398 21.0201 32.2098 21.5901 31.9898 22.3301L31.3098 24.6301H28.4998L30.6298 17.3701C30.7398 16.9701 30.7998 16.7201 30.7998 16.5801C30.7998 16.5201 30.7698 16.4701 30.7098 16.4101C30.6798 16.3801 30.6198 16.3501 30.5698 16.3501C30.3098 16.3501 29.8598 16.7201 29.2698 17.4301C28.3898 18.5601 27.5698 19.9001 26.8298 21.4601L25.8698 24.6301H23.0098L25.1598 17.4901C25.3898 16.8101 25.4998 16.3001 25.4998 16.0201C25.4998 15.8801 25.4698 15.7901 25.3898 15.7101C25.3298 15.6201 25.2198 15.5701 25.1098 15.5101C24.9398 15.4501 24.6798 15.4201 24.2898 15.4201L24.3798 15.0001L28.2598 14.3501H28.9398V14.3401ZM47.1398 14.3401L44.7898 21.8501C44.6798 22.2201 44.6198 22.4501 44.6198 22.5901C44.6198 22.6501 44.6498 22.7001 44.6798 22.7301C44.7398 22.7901 44.8198 22.8201 44.9098 22.8201C45.2198 22.8201 45.6798 22.5401 46.2398 21.9101C47.0298 21.0301 47.8598 19.7801 48.7298 18.1401L49.7798 14.7401L52.5598 14.6501L50.3798 22.0201C50.1798 22.6401 50.0998 22.9801 50.0998 23.0701C50.0998 23.1301 50.1298 23.1801 50.1898 23.2701C50.2498 23.3301 50.2998 23.3601 50.3598 23.3601C50.4698 23.3601 50.5898 23.3001 50.6698 23.2201C50.9498 23.0201 51.2898 22.6001 51.7498 21.9701L52.1198 22.2301C51.0998 24.0201 49.9698 24.9201 48.7198 24.9201C48.2698 24.9201 47.8998 24.8101 47.6398 24.5801C47.3598 24.3501 47.2398 24.0401 47.2398 23.6701C47.2398 23.2701 47.3298 22.7601 47.5198 22.1401L48.0898 20.2701C47.1298 21.6601 46.4498 22.5901 45.9898 23.1001C45.3398 23.8101 44.7698 24.3201 44.3198 24.5501C43.8698 24.8101 43.4398 24.9201 43.0398 24.9201C42.6398 24.9201 42.2998 24.7801 42.0198 24.4901C41.7398 24.2101 41.5898 23.8401 41.5898 23.4101C41.5898 23.0101 41.6998 22.5001 41.8998 21.8801L43.2898 17.4601C43.5198 16.7201 43.5998 16.2401 43.5998 15.9901C43.5998 15.8801 43.5698 15.7901 43.5098 15.7101C43.4498 15.6201 43.3698 15.5701 43.2498 15.5101C43.1398 15.4501 42.9098 15.4201 42.6298 15.4201L42.7198 15.0001L46.4898 14.3501H47.1398V14.3401Z" fill="#221F20"/>
</g>
<defs>
<clipPath id="clip0_338_1533">
<rect width="57.86" height="39.26" fill="white"/>
</clipPath>
</defs>
</svg>
