<svg width="58" height="40" viewBox="0 0 58 40" fill="none" xmlns="http://www.w3.org/2000/svg">
<g clip-path="url(#clip0_338_1521)">
<path fill-rule="evenodd" clip-rule="evenodd" d="M5.83969 0.430054H52.0197C54.9997 0.430054 57.4297 2.87005 57.4297 5.84005V33.4201C57.4297 36.4001 54.9897 38.8301 52.0197 38.8301H5.83969C2.85969 38.8301 0.429688 36.3901 0.429688 33.4201V5.84005C0.429688 2.86005 2.85969 0.430054 5.83969 0.430054Z" fill="#FAB31E" stroke="white" stroke-width="0.8504" stroke-miterlimit="10"/>
<path d="M19.9002 18.4801H26.3302L25.6502 20.8001H19.1602L19.9002 18.4801ZM33.2802 14.3401L30.9002 21.8501C30.7902 22.2201 30.7302 22.4501 30.7302 22.5901C30.7302 22.6501 30.7602 22.7001 30.8202 22.7301C30.8802 22.7901 30.9302 22.8201 31.0202 22.8201C31.3602 22.8201 31.8102 22.5401 32.3502 21.9101C33.1402 21.0301 33.9902 19.7801 34.8702 18.1401L35.8902 14.7401L38.7002 14.6501L36.5202 22.0201C36.3202 22.6401 36.2402 22.9801 36.2402 23.0701C36.2402 23.1301 36.2702 23.1801 36.3302 23.2701C36.3902 23.3301 36.4402 23.3601 36.5002 23.3601C36.6102 23.3601 36.7002 23.3001 36.8102 23.2201C37.0702 23.0201 37.4302 22.6001 37.8602 21.9701L38.2602 22.2301C37.2102 24.0201 36.0802 24.9201 34.8602 24.9201C34.3802 24.9201 34.0102 24.8101 33.7502 24.5801C33.4902 24.3501 33.3502 24.0401 33.3502 23.6701C33.3502 23.2701 33.4602 22.7601 33.6302 22.1401L34.2002 20.2701C33.2602 21.6601 32.5602 22.5901 32.1302 23.1001C31.4802 23.8101 30.9102 24.3201 30.4602 24.5501C30.0102 24.8101 29.5802 24.9201 29.1602 24.9201C28.7902 24.9201 28.4502 24.7801 28.1702 24.4901C27.8902 24.2001 27.7402 23.8401 27.7402 23.4101C27.7402 23.0101 27.8502 22.5001 28.0502 21.8801L29.4402 17.4601C29.6402 16.7201 29.7502 16.2401 29.7502 15.9901C29.7502 15.8801 29.7202 15.7901 29.6602 15.7101C29.6002 15.6201 29.5202 15.5701 29.3802 15.5101C29.2702 15.4501 29.0702 15.4201 28.7602 15.4201L28.8602 15.0001L32.6002 14.3501H33.2802V14.3401Z" fill="#221F20"/>
</g>
<defs>
<clipPath id="clip0_338_1521">
<rect width="57.86" height="39.26" fill="white"/>
</clipPath>
</defs>
</svg>
