<svg width="87" height="45" viewBox="0 0 87 45" fill="none" xmlns="http://www.w3.org/2000/svg">
<g clip-path="url(#clip0_338_1497)">
<path fill-rule="evenodd" clip-rule="evenodd" d="M5.83969 0.430054H52.0197C54.9997 0.430054 57.4297 2.87005 57.4297 5.84005V33.4201C57.4297 36.4001 54.9897 38.8301 52.0197 38.8301H5.83969C2.85969 38.8301 0.429688 36.3901 0.429688 33.4201V5.84005C0.429688 2.86005 2.85969 0.430054 5.83969 0.430054Z" fill="#F5C0C0" stroke="white" stroke-width="0.8504" stroke-miterlimit="10"/>
<path fill-rule="evenodd" clip-rule="evenodd" d="M44.6993 22.88H82.8493C84.4893 22.88 85.8493 24.24 85.8493 25.88V41.36C85.8493 43.03 84.4893 44.39 82.8493 44.39H44.6993C43.0293 44.39 41.6693 43.03 41.6693 41.36V35.72L38.7793 33.62L41.6693 31.55V25.88C41.6693 24.24 43.0293 22.88 44.6993 22.88Z" fill="#F5C0C0" stroke="white" stroke-width="0.8504" stroke-miterlimit="10"/>
<path d="M51.7595 34.21H56.7795L56.2395 36.02H51.1895L51.7595 34.21ZM60.9695 27.01C61.3095 27.01 61.6195 27.15 61.8795 27.41C62.1095 27.64 62.2495 27.95 62.2495 28.29C62.2495 28.66 62.1095 28.94 61.8495 29.2C61.6195 29.46 61.3095 29.57 60.9695 29.57C60.5995 29.57 60.3195 29.46 60.0595 29.2C59.7995 28.94 59.6895 28.66 59.6895 28.29C59.6895 27.95 59.7995 27.64 60.0595 27.41C60.3195 27.16 60.5995 27.01 60.9695 27.01ZM61.6495 31.01L59.7495 37.08C59.6395 37.42 59.6095 37.65 59.6095 37.76C59.6095 37.82 59.6395 37.87 59.6695 37.93C59.7295 37.99 59.7795 38.02 59.8395 38.02C59.9295 38.02 60.0395 37.99 60.1195 37.88C60.3795 37.68 60.6895 37.26 61.0295 36.69L61.3395 36.86C60.4595 38.45 59.5295 39.24 58.5595 39.24C58.1595 39.24 57.8795 39.13 57.6495 38.93C57.4195 38.7 57.3095 38.45 57.3095 38.14C57.3095 37.91 57.3695 37.66 57.4795 37.32L58.7795 33.21C58.9195 32.81 58.9795 32.53 58.9795 32.3C58.9795 32.19 58.9195 32.07 58.8095 31.99C58.6995 31.88 58.5295 31.82 58.3295 31.82C58.2395 31.82 58.1295 31.85 57.9895 31.85L58.0995 31.48L61.1295 31.03H61.6495V31.01ZM66.6395 31.01L65.5095 34.7C66.2495 33.57 66.7895 32.8 67.1295 32.4C67.6395 31.83 68.0695 31.44 68.3795 31.27C68.6895 31.1 69.0295 31.01 69.3695 31.01C69.7395 31.01 69.9895 31.12 70.1595 31.35C70.3295 31.58 70.4195 31.83 70.4195 32.09C70.4195 32.37 70.3295 32.8 70.1895 33.34L69.7595 34.7C70.5795 33.57 71.1495 32.8 71.4895 32.4C72.0595 31.83 72.5095 31.44 72.9095 31.21C73.1895 31.07 73.4795 31.01 73.8195 31.01C74.1295 31.01 74.4195 31.1 74.6095 31.32C74.8395 31.55 74.9495 31.86 74.9495 32.23C74.9495 32.57 74.8595 33.05 74.6695 33.62L73.6195 36.79C73.4495 37.24 73.3895 37.56 73.3895 37.7C73.3895 37.73 73.3895 37.79 73.4495 37.81C73.4795 37.87 73.5395 37.87 73.5595 37.87C73.6195 37.87 73.6695 37.87 73.7295 37.81C73.9295 37.64 74.1595 37.41 74.3795 37.1C74.4395 37.01 74.5195 36.93 74.6095 36.79L74.9195 36.96C74.5195 37.7 74.0995 38.24 73.6195 38.58C73.1395 38.92 72.6795 39.09 72.2895 39.09C71.9195 39.09 71.6695 38.98 71.4395 38.81C71.2095 38.61 71.1295 38.38 71.1295 38.13C71.1295 37.87 71.1895 37.51 71.3595 37L72.4395 33.63C72.5795 33.15 72.6695 32.86 72.6695 32.75C72.6695 32.72 72.6395 32.66 72.5795 32.64C72.5495 32.61 72.4895 32.58 72.4395 32.58C72.3495 32.58 72.2995 32.61 72.2095 32.64C72.0695 32.7 71.8695 32.84 71.6095 33.09C71.3495 33.32 70.9895 33.77 70.4995 34.39C70.0195 35.01 69.6795 35.5 69.5395 35.84C69.3695 36.21 69.1995 36.66 69.0295 37.23L68.4895 38.99H66.2995L67.9395 33.38C68.0295 33.07 68.0795 32.87 68.0795 32.76C68.0795 32.7 68.0495 32.67 68.0195 32.65C67.9895 32.62 67.9295 32.59 67.9095 32.59C67.6795 32.59 67.3395 32.87 66.8895 33.44C66.2095 34.29 65.5595 35.34 64.9895 36.56L64.2495 39H62.0395L63.7095 33.47C63.8495 32.93 63.9395 32.53 63.9395 32.31C63.9395 32.22 63.9395 32.14 63.8795 32.08C63.8195 31.99 63.7395 31.97 63.6195 31.91C63.5095 31.88 63.3095 31.85 62.9995 31.85L63.0595 31.54L66.0895 31.03H66.6395V31.01Z" fill="#221F20"/>
<path d="M14.8495 11.4501H22.6495L21.8295 14.2601H13.9795L14.8495 11.4501ZM23.4695 10.9701L26.3595 10.0901C26.5895 10.4001 26.7595 10.6601 26.8395 10.9101C27.0095 11.3601 27.1195 11.9901 27.2095 12.7801C27.3195 14.3401 27.4095 15.9801 27.4695 17.7401C28.1495 16.8601 28.9195 15.6701 29.7895 14.2001C30.0495 13.7701 30.1895 13.3501 30.1895 12.9501C30.1895 12.7201 30.0195 12.5001 29.7395 12.2701C29.4295 12.0401 29.2295 11.8701 29.1395 11.7601C29.0795 11.6201 29.0295 11.4801 29.0295 11.2801C29.0295 10.9701 29.1695 10.6801 29.3995 10.4601C29.6295 10.2301 29.9095 10.0901 30.2195 10.0901C30.5595 10.0901 30.8695 10.2301 31.1295 10.4901C31.3895 10.7701 31.4995 11.0901 31.4995 11.4301C31.4995 11.8601 31.3895 12.3701 31.1595 12.9001C30.8995 13.4701 30.3695 14.4301 29.4895 15.7901C28.3795 17.5201 27.3095 19.0201 26.2295 20.2701C25.5495 21.0901 24.9795 21.6601 24.5595 22.0301C24.1295 22.3701 23.7095 22.6501 23.2595 22.8801C22.9795 22.9901 22.7195 23.0501 22.4395 23.0501C22.0995 23.0501 21.7895 22.9401 21.5295 22.6801C21.2695 22.4201 21.1295 22.1101 21.1295 21.7701C21.1295 21.4301 21.2395 21.1201 21.4695 20.8901C21.7295 20.6601 21.9795 20.5201 22.2895 20.5201C22.6895 20.5201 23.0295 20.7201 23.3395 21.1401C23.5695 21.4001 23.7395 21.5401 23.8795 21.5401C24.0195 21.5401 24.1595 21.4801 24.3095 21.4301C24.5095 21.3201 24.7595 21.0901 25.0995 20.7201C25.1595 19.9301 25.1595 19.3301 25.1595 18.9301C25.1595 18.3901 25.1295 17.6301 25.0995 16.6301L24.9295 13.0601C24.8695 12.3801 24.7295 11.9301 24.4995 11.6101C24.3295 11.4101 24.0995 11.3001 23.8195 11.3001C23.7295 11.3001 23.5895 11.3001 23.4795 11.3301V10.9701H23.4695ZM36.7695 10.0901L35.5195 14.1701C36.3395 12.9201 36.9395 12.0701 37.3095 11.6501C37.8795 11.0001 38.3295 10.6001 38.6695 10.4001C39.0395 10.2001 39.3795 10.0901 39.7495 10.0901C40.1795 10.0901 40.4595 10.2301 40.6595 10.4901C40.8295 10.7501 40.9195 11.0001 40.9195 11.3101C40.9195 11.6201 40.8295 12.0801 40.6595 12.6701L40.2095 14.1701C41.0895 12.8901 41.7395 12.0701 42.1095 11.6501C42.7095 11.0001 43.2195 10.5701 43.6695 10.3501C43.9795 10.1801 44.2895 10.0901 44.6295 10.0901C44.9995 10.0901 45.2795 10.2301 45.5395 10.4901C45.7695 10.7201 45.9095 11.0601 45.9095 11.4501C45.9095 11.8401 45.7995 12.3601 45.5995 12.9801L44.4395 16.4401C44.2695 16.9501 44.1795 17.2901 44.1795 17.4301C44.1795 17.4901 44.2095 17.5401 44.2395 17.5701C44.2995 17.6301 44.3295 17.6601 44.3795 17.6601C44.4295 17.6601 44.5195 17.6301 44.5495 17.5701C44.7795 17.4001 45.0295 17.1401 45.2895 16.7801C45.3495 16.7201 45.4295 16.6101 45.5495 16.4401L45.8595 16.6401C45.4295 17.4601 44.9495 18.0301 44.4395 18.4001C43.8995 18.7701 43.4195 18.9701 42.9695 18.9701C42.5995 18.9701 42.2895 18.8601 42.0595 18.6601C41.7995 18.4601 41.6895 18.2101 41.6895 17.9201C41.6895 17.6301 41.7795 17.2401 41.9495 16.6701L43.1395 12.9801C43.3095 12.4701 43.3695 12.1301 43.3695 12.0201C43.3695 11.9601 43.3695 11.9301 43.3095 11.8801C43.2495 11.8501 43.1995 11.8201 43.1395 11.8201C43.0495 11.8201 42.9695 11.8501 42.8795 11.8801C42.7395 11.9401 42.5095 12.1101 42.2595 12.3901C41.9795 12.6501 41.5495 13.1301 41.0395 13.8101C40.4995 14.4901 40.1295 15.0301 39.9595 15.4301C39.7595 15.8001 39.5895 16.3101 39.3895 16.9301L38.7895 18.8901H36.3995L38.2095 12.7101C38.2995 12.3701 38.3495 12.1401 38.3495 12.0301C38.3495 11.9701 38.3195 11.9201 38.2895 11.8901C38.2295 11.8601 38.1995 11.8301 38.1495 11.8301C37.9195 11.8301 37.5495 12.1401 37.0395 12.7701C36.2695 13.7101 35.5895 14.8701 34.9395 16.2001L34.1495 18.8901H31.7095L33.5495 12.8001C33.7195 12.2001 33.8295 11.7801 33.8295 11.5201C33.8295 11.4301 33.7995 11.3501 33.7395 11.2601C33.6795 11.2001 33.5995 11.1501 33.4595 11.0901C33.3495 11.0601 33.1195 11.0301 32.7795 11.0301L32.8695 10.6601L36.1895 10.0901H36.7695Z" fill="#221F20"/>
<path d="M20.6599 27.89V32.03L21.6799 31.04C21.8799 30.84 21.9899 30.7 22.0499 30.61C22.1099 30.5 22.1399 30.41 22.1399 30.33C22.1399 30.24 22.1099 30.19 22.0299 30.13C21.9699 30.07 21.8299 30.02 21.6299 29.99V29.85H23.5899V29.99C23.3899 30.02 23.2499 30.05 23.1099 30.13C22.9699 30.22 22.6799 30.44 22.2899 30.87L21.8099 31.32L22.8299 32.82C23.2599 33.42 23.4799 33.76 23.5699 33.84C23.6799 33.93 23.7999 33.98 23.9699 34.01V34.15H21.7299V34.01C21.8399 34.01 21.8999 33.98 21.9599 33.95C21.9699 33.9 21.9999 33.87 21.9999 33.85C21.9999 33.76 21.9399 33.62 21.7999 33.45L20.9499 32.17L20.6699 32.45V33.22C20.6699 33.56 20.6999 33.76 20.7599 33.84C20.8499 33.93 20.9599 33.98 21.1599 34.01V34.15H18.9199V34.01C19.0899 33.98 19.2299 33.92 19.3199 33.84C19.3499 33.75 19.3799 33.56 19.3799 33.22V28.83C19.3799 28.49 19.3499 28.29 19.2899 28.21C19.2299 28.12 19.1199 28.1 18.9199 28.07V27.9H20.6599V27.89ZM26.6999 35.83V35.63C27.0399 35.46 27.3199 35.26 27.4699 35.03C27.6399 34.77 27.7299 34.52 27.7299 34.26C27.7299 34.2 27.6999 34.17 27.6999 34.15C27.6699 34.12 27.6399 34.12 27.6099 34.12C27.6099 34.12 27.5799 34.12 27.5199 34.15C27.4299 34.21 27.3199 34.21 27.2099 34.21C27.0099 34.21 26.8699 34.15 26.7299 34.01C26.5899 33.87 26.5299 33.7 26.5299 33.5C26.5299 33.3 26.6199 33.13 26.7599 32.96C26.9299 32.82 27.0999 32.73 27.3299 32.73C27.5899 32.73 27.8099 32.84 28.0099 33.04C28.1799 33.24 28.2899 33.52 28.2899 33.89C28.2899 34.32 28.1499 34.71 27.8899 35.05C27.6099 35.4 27.2099 35.66 26.6999 35.83ZM34.0399 29.91H35.5099V30.42H34.6999C34.8399 30.56 34.9599 30.7 35.0099 30.82C35.0699 30.99 35.1199 31.16 35.1199 31.36C35.1199 31.67 35.0299 31.93 34.8599 32.15C34.6899 32.37 34.4299 32.55 34.1499 32.69C33.8699 32.8 33.5799 32.86 33.3599 32.86C33.3599 32.86 33.1599 32.86 32.8199 32.86C32.6799 32.86 32.5599 32.89 32.4499 32.97C32.3599 33.08 32.3099 33.17 32.3099 33.31C32.3099 33.42 32.3699 33.51 32.4499 33.59C32.5399 33.65 32.6799 33.68 32.8799 33.68H33.6699C34.3199 33.68 34.7799 33.77 34.9999 33.91C35.3399 34.11 35.5399 34.39 35.5399 34.82C35.5399 35.08 35.4499 35.3 35.2799 35.53C35.1399 35.73 34.9099 35.9 34.6599 36.01C34.2599 36.15 33.8099 36.24 33.2699 36.24C32.8999 36.24 32.5299 36.18 32.2199 36.13C31.8799 36.04 31.6499 35.93 31.5099 35.82C31.3699 35.68 31.3099 35.54 31.3099 35.39C31.3099 35.25 31.3699 35.11 31.4799 34.99C31.5699 34.88 31.7599 34.79 32.0799 34.71C31.6499 34.51 31.4599 34.26 31.4599 33.89C31.4599 33.69 31.5499 33.46 31.7199 33.27C31.8899 33.07 32.1499 32.9 32.4899 32.76C32.0899 32.59 31.7799 32.39 31.6099 32.16C31.4099 31.9 31.3299 31.62 31.3299 31.28C31.3299 30.88 31.4999 30.51 31.8399 30.2C32.1799 29.89 32.6299 29.72 33.1699 29.72C33.4499 29.71 33.7599 29.79 34.0399 29.91ZM33.2499 30.02C33.0799 30.02 32.9399 30.11 32.7999 30.28C32.6899 30.48 32.6299 30.85 32.6299 31.41C32.6299 31.86 32.6899 32.18 32.7999 32.35C32.9099 32.52 33.0799 32.61 33.2299 32.61C33.4299 32.61 33.5699 32.52 33.7099 32.35C33.8199 32.18 33.8799 31.84 33.8799 31.36C33.8799 30.82 33.8199 30.45 33.6799 30.25C33.5599 30.08 33.4199 30.02 33.2499 30.02ZM32.9999 34.81C32.6899 34.81 32.4599 34.84 32.3799 34.9C32.2099 34.99 32.0999 35.13 32.0999 35.3C32.0999 35.44 32.2099 35.58 32.3799 35.73C32.5499 35.84 32.9199 35.9 33.3999 35.9C33.8299 35.9 34.1699 35.84 34.4199 35.73C34.6799 35.62 34.7899 35.47 34.7899 35.25C34.7899 35.19 34.7599 35.11 34.6999 35.08C34.6399 34.97 34.4999 34.91 34.3299 34.88C34.1599 34.85 33.6999 34.81 32.9999 34.81Z" fill="#221F20"/>
</g>
<defs>
<clipPath id="clip0_338_1497">
<rect width="86.29" height="44.82" fill="white"/>
</clipPath>
</defs>
</svg>
