<svg width="58" height="60" viewBox="0 0 58 60" fill="none" xmlns="http://www.w3.org/2000/svg">
<g clip-path="url(#clip0_338_1516)">
<path fill-rule="evenodd" clip-rule="evenodd" d="M5.83969 0.429993H52.0197C54.9997 0.429993 57.4297 2.86999 57.4297 5.83999V53.69C57.4297 56.64 54.9897 59.08 52.0197 59.08H5.83969C2.85969 59.08 0.429688 56.64 0.429688 53.69V5.83999C0.429688 2.85999 2.85969 0.429993 5.83969 0.429993Z" fill="#FAB31E" stroke="white" stroke-width="0.8504" stroke-miterlimit="10"/>
<path d="M9.29957 22.39H15.7296L15.0496 24.71H8.55957L9.29957 22.39ZM23.4696 18.23C24.0396 18.23 24.5996 18.37 25.1096 18.66C25.6196 18.92 26.0196 19.28 26.2696 19.77C26.5296 20.25 26.6696 20.79 26.6696 21.39C26.6696 22.58 26.3296 23.77 25.6496 24.96C24.9996 26.15 24.1196 27.11 23.0096 27.79C21.8996 28.47 20.7996 28.84 19.6896 28.84C18.6996 28.84 17.8996 28.53 17.3696 27.93C16.7996 27.33 16.5496 26.6 16.5496 25.75C16.5496 24.7 16.7496 23.74 17.1496 22.86C17.5796 21.95 18.0896 21.16 18.7396 20.51C19.3596 19.83 20.0696 19.29 20.8896 18.87C21.7096 18.45 22.5596 18.23 23.4696 18.23ZM22.9896 18.82C22.6196 18.82 22.2796 18.93 22.0296 19.16C21.5196 19.64 20.9196 20.72 20.2696 22.42C19.6196 24.15 19.2796 25.68 19.2796 27.04C19.2796 27.38 19.3896 27.66 19.5896 27.89C19.8196 28.12 20.0396 28.23 20.3296 28.23C20.6196 28.23 20.8996 28.14 21.0996 27.95C21.4396 27.69 21.8396 27.1 22.3196 26.16C22.7696 25.25 23.1696 24.23 23.4796 23.1C23.7896 21.99 23.9296 20.97 23.9296 20.04C23.9296 19.64 23.8396 19.36 23.6496 19.13C23.4696 18.94 23.2396 18.82 22.9896 18.82ZM37.1096 18.23L37.9296 26.03C39.1796 24.92 39.9696 24.05 40.3396 23.42C40.7096 22.77 40.9096 22.23 40.9096 21.8C40.9096 21.63 40.8796 21.49 40.7996 21.32C40.7096 21.15 40.5696 20.92 40.3496 20.64C40.1296 20.36 39.9996 20.18 39.9696 20.1C39.9096 19.96 39.8796 19.79 39.8796 19.59C39.8796 19.22 40.0196 18.88 40.2796 18.63C40.5396 18.37 40.8796 18.23 41.2396 18.23C41.6396 18.23 41.9496 18.37 42.1796 18.63C42.5196 19.03 42.6896 19.48 42.6896 19.96C42.6896 20.78 42.2596 21.86 41.4396 23.19C40.6496 24.52 38.7796 26.39 35.8796 28.83H35.3996L34.6896 22.06L29.9296 28.83H29.4496C29.5896 26.76 29.6496 24.86 29.6496 23.08C29.6496 21.92 29.5596 21.07 29.4496 20.56C29.3596 20.25 29.2496 20.02 29.0496 19.85C28.8796 19.71 28.6496 19.62 28.4296 19.62C28.3196 19.62 28.1696 19.65 27.9796 19.68V19.25L31.8096 18.23C32.0096 18.83 32.1496 19.36 32.2396 19.87C32.3496 20.66 32.4096 21.57 32.4096 22.62C32.4096 22.99 32.4096 23.56 32.3796 24.32L36.6896 18.23H37.1096ZM47.6496 13.12C48.0996 13.12 48.4996 13.29 48.8096 13.6C49.1196 13.91 49.2896 14.31 49.2896 14.76C49.2896 15.21 49.1196 15.58 48.8096 15.92C48.4996 16.23 48.0996 16.37 47.6496 16.37C47.1996 16.37 46.8296 16.23 46.4896 15.92C46.1796 15.58 46.0096 15.21 46.0096 14.76C46.0096 14.31 46.1796 13.91 46.4896 13.6C46.7996 13.29 47.1996 13.12 47.6496 13.12ZM48.5596 18.23L46.0896 26.05C45.9496 26.5 45.8896 26.79 45.8896 26.93C45.8896 27.02 45.9196 27.1 45.9996 27.16C46.0596 27.25 46.1096 27.27 46.1996 27.27C46.3096 27.27 46.4596 27.21 46.5696 27.1C46.8796 26.82 47.2796 26.31 47.7596 25.54L48.1296 25.77C46.9996 27.81 45.8096 28.83 44.5296 28.83C44.0496 28.83 43.6796 28.69 43.3996 28.4C43.0896 28.14 42.9496 27.8 42.9496 27.41C42.9496 27.13 43.0396 26.79 43.1796 26.36L44.8796 21.06C45.0196 20.55 45.1096 20.18 45.1096 19.9C45.1096 19.76 45.0496 19.62 44.8796 19.47C44.7396 19.36 44.5396 19.3 44.2796 19.3C44.1396 19.3 43.9996 19.3 43.8296 19.3L43.9696 18.85L47.8796 18.23H48.5596ZM19.3896 39.94H25.8196L25.1396 42.26H18.6496L19.3896 39.94ZM32.7696 35.8L30.3896 43.31C30.2796 43.68 30.2196 43.91 30.2196 44.05C30.2196 44.11 30.2496 44.16 30.3096 44.19C30.3696 44.25 30.4196 44.3 30.5096 44.3C30.8496 44.3 31.2996 43.99 31.8396 43.36C32.6296 42.48 33.4796 41.23 34.3596 39.59L35.3796 36.19L38.1896 36.1L35.9996 43.48C35.7996 44.1 35.7196 44.44 35.7196 44.53C35.7196 44.59 35.7496 44.67 35.8096 44.73C35.8696 44.79 35.9196 44.82 35.9796 44.82C36.0896 44.82 36.1796 44.76 36.2896 44.68C36.5496 44.48 36.9096 44.06 37.3396 43.43L37.7396 43.69C36.6896 45.5 35.5596 46.38 34.3396 46.38C33.8596 46.38 33.4896 46.27 33.2296 46.04C32.9696 45.81 32.8296 45.5 32.8296 45.13C32.8296 44.73 32.9396 44.22 33.1096 43.6L33.6796 41.73C32.7396 43.12 32.0396 44.05 31.6096 44.56C30.9596 45.27 30.3896 45.78 29.9396 46.01C29.4896 46.27 29.0596 46.38 28.6396 46.38C28.2696 46.38 27.9296 46.24 27.6496 45.95C27.3696 45.66 27.2196 45.3 27.2196 44.87C27.2196 44.47 27.3296 43.99 27.5296 43.34L28.9196 38.92C29.1196 38.18 29.2296 37.7 29.2296 37.45C29.2296 37.34 29.1996 37.25 29.1396 37.17C29.0796 37.08 28.9996 37.03 28.8596 36.97C28.7496 36.91 28.5496 36.88 28.2396 36.88L28.3496 36.45L32.0896 35.8H32.7696Z" fill="#221F20"/>
</g>
<defs>
<clipPath id="clip0_338_1516">
<rect width="57.86" height="59.5" fill="white"/>
</clipPath>
</defs>
</svg>
