<svg width="58" height="40" viewBox="0 0 58 40" fill="none" xmlns="http://www.w3.org/2000/svg">
<g clip-path="url(#clip0_338_1529)">
<path fill-rule="evenodd" clip-rule="evenodd" d="M5.83969 0.430054H52.0197C54.9997 0.430054 57.4297 2.87005 57.4297 5.84005V33.4201C57.4297 36.4001 54.9897 38.8301 52.0197 38.8301H5.83969C2.85969 38.8301 0.429688 36.3901 0.429688 33.4201V5.84005C0.429688 2.86005 2.85969 0.430054 5.83969 0.430054Z" fill="#F5C0C0" stroke="white" stroke-width="0.8504" stroke-miterlimit="10"/>
<path d="M17.5694 18.7401H24.0294L23.3494 21.0601H16.8594L17.5694 18.7401ZM27.8094 20.6901C27.7494 21.1701 27.7194 21.5701 27.7194 21.8801C27.7194 22.4501 27.8594 22.8701 28.1994 23.2101C28.5094 23.5501 28.9394 23.7201 29.4794 23.7201C30.0194 23.7201 30.5294 23.6101 31.0394 23.3801C31.5794 23.1501 32.1694 22.7601 32.8794 22.2201L33.2194 22.5001C32.3694 23.4601 31.5194 24.1401 30.7294 24.5401C29.9394 24.9701 29.0294 25.1601 28.0694 25.1601C26.8194 25.1601 25.9694 24.8501 25.4894 24.2801C25.0394 23.6801 24.7794 23.0001 24.7794 22.2101C24.7794 21.0201 25.1494 19.8001 25.8594 18.5801C26.5694 17.3601 27.5294 16.4001 28.7494 15.6601C29.9394 14.9501 31.1594 14.5801 32.4094 14.5801C33.0294 14.5801 33.4894 14.7201 33.7994 15.0101C34.1394 15.3201 34.2794 15.6901 34.2794 16.1401C34.2794 16.6801 34.1394 17.1901 33.8294 17.7001C33.3994 18.4101 32.8694 18.9501 32.1894 19.3701C31.5394 19.8001 30.8294 20.1401 30.0094 20.3301C29.4494 20.5201 28.7094 20.6101 27.8094 20.6901ZM27.9194 20.1301C28.5694 20.0401 29.0794 19.9001 29.4494 19.7301C29.7894 19.5601 30.1594 19.3001 30.4994 18.9401C30.8394 18.5701 31.1494 18.1201 31.4094 17.5801C31.6694 17.0101 31.7794 16.4701 31.7794 15.9901C31.7794 15.7901 31.7194 15.6201 31.6094 15.5101C31.4994 15.4001 31.3494 15.3401 31.1594 15.3401C30.8194 15.3401 30.4194 15.6001 29.9694 16.0801C29.1394 16.9801 28.4594 18.3401 27.9194 20.1301ZM39.3694 9.47009C39.8194 9.47009 40.1894 9.64009 40.5294 9.95009C40.8394 10.2901 40.9794 10.6601 40.9794 11.1101C40.9794 11.5601 40.8394 11.9601 40.4994 12.2701C40.1894 12.5801 39.8194 12.7501 39.3694 12.7501C38.9194 12.7501 38.5194 12.5801 38.2094 12.2701C37.8694 11.9601 37.7294 11.5601 37.7294 11.1101C37.7294 10.6601 37.8694 10.2901 38.2094 9.95009C38.5194 9.64009 38.9194 9.47009 39.3694 9.47009ZM40.4494 14.6001L37.8394 23.2701C37.3294 25.0301 36.7594 26.4401 36.1394 27.4901C35.7394 28.2301 35.1994 28.7901 34.5194 29.1901C33.8694 29.5901 33.1594 29.7901 32.4494 29.7901C31.8494 29.7901 31.4294 29.6501 31.1494 29.4201C30.8694 29.1601 30.7194 28.8801 30.7194 28.5701C30.7194 28.2601 30.8294 28.0001 31.0894 27.7501C31.3494 27.5201 31.6594 27.3801 32.0294 27.3801C32.3394 27.3801 32.5694 27.4701 32.7394 27.6401C32.9094 27.8101 32.9994 28.0101 32.9994 28.2301C32.9994 28.4301 32.8894 28.6601 32.6894 28.8801C32.5994 28.9701 32.5794 29.0201 32.5794 29.0801C32.5794 29.1401 32.6094 29.1701 32.6394 29.2201C32.6994 29.2501 32.7494 29.2801 32.8394 29.2801C33.1194 29.2801 33.3794 29.0801 33.5794 28.7101C33.7194 28.4501 33.9494 27.5501 34.2594 25.9301L36.7794 17.4001C36.9494 16.7801 37.0394 16.4101 37.0394 16.2401C37.0394 16.1001 36.9494 15.9601 36.7794 15.8101C36.6094 15.6701 36.3794 15.6101 36.0994 15.6101C36.0094 15.6101 35.8994 15.6101 35.7894 15.6101L35.8794 15.1801L39.7894 14.5801H40.4494V14.6001Z" fill="#221F20"/>
</g>
<defs>
<clipPath id="clip0_338_1529">
<rect width="57.86" height="39.26" fill="white"/>
</clipPath>
</defs>
</svg>
