<svg width="58" height="60" viewBox="0 0 58 60" fill="none" xmlns="http://www.w3.org/2000/svg">
<g clip-path="url(#clip0_338_1517)">
<path fill-rule="evenodd" clip-rule="evenodd" d="M5.83969 0.429993H52.0197C54.9997 0.429993 57.4297 2.86999 57.4297 5.83999V53.69C57.4297 56.64 54.9897 59.08 52.0197 59.08H5.83969C2.85969 59.08 0.429688 56.64 0.429688 53.69V5.83999C0.429688 2.85999 2.85969 0.429993 5.83969 0.429993Z" fill="#FAB31E" stroke="white" stroke-width="0.8504" stroke-miterlimit="10"/>
<path d="M20.9197 9.66999H27.3797L26.6997 11.99H20.1797L20.9197 9.66999ZM31.1497 11.62C31.0897 12.1 31.0397 12.5 31.0397 12.81C31.0397 13.35 31.2097 13.8 31.5497 14.14C31.8597 14.48 32.2897 14.62 32.8297 14.62C33.3397 14.62 33.8797 14.53 34.3897 14.31C34.9297 14.08 35.5197 13.69 36.1997 13.15L36.5397 13.41C35.6897 14.37 34.8697 15.08 34.0697 15.48C33.2497 15.88 32.3697 16.1 31.3797 16.1C30.1597 16.1 29.3097 15.79 28.8297 15.19C28.3497 14.62 28.1197 13.91 28.1197 13.15C28.1197 11.93 28.4597 10.74 29.1697 9.51999C29.8797 8.29999 30.8397 7.33999 32.0597 6.59999C33.2797 5.85999 34.4997 5.48999 35.7197 5.48999C36.3397 5.48999 36.8297 5.65999 37.1397 5.93999C37.4497 6.21999 37.6197 6.58999 37.6197 7.04999C37.6197 7.58999 37.4497 8.12999 37.1697 8.63999C36.7197 9.31999 36.1797 9.88999 35.5297 10.31C34.8797 10.74 34.1397 11.05 33.3497 11.27C32.7997 11.42 32.0597 11.54 31.1497 11.62ZM31.2397 11.06C31.9197 10.97 32.3997 10.83 32.7697 10.66C33.1397 10.49 33.5097 10.23 33.8497 9.86999C34.1897 9.49999 34.4997 9.04999 34.7297 8.47999C34.9897 7.93999 35.1297 7.39999 35.1297 6.91999C35.1297 6.71999 35.0697 6.54999 34.9597 6.43999C34.8497 6.32999 34.6797 6.26999 34.5097 6.26999C34.1397 6.26999 33.7397 6.49999 33.3197 7.00999C32.4897 7.90999 31.7997 9.23999 31.2397 11.06ZM21.1497 25.2H27.6097L26.9297 27.52H20.4097L21.1497 25.2ZM28.4597 22.08L31.8297 21.06C32.1097 21.4 32.3097 21.71 32.4297 22.02C32.6297 22.53 32.7697 23.27 32.8597 24.2C32.9997 26.01 33.1197 27.94 33.1697 30.01C33.9597 28.96 34.8697 27.6 35.8897 25.87C36.1697 25.36 36.3397 24.88 36.3397 24.4C36.3397 24.12 36.1697 23.86 35.7997 23.58C35.4297 23.32 35.2297 23.13 35.1197 22.98C35.0297 22.84 35.0097 22.64 35.0097 22.41C35.0097 22.04 35.1497 21.73 35.4097 21.45C35.6897 21.19 36.0097 21.05 36.3997 21.05C36.7897 21.05 37.1397 21.19 37.4497 21.5C37.7297 21.81 37.8997 22.18 37.8997 22.61C37.8997 23.09 37.7597 23.69 37.4697 24.34C37.1897 24.99 36.5297 26.13 35.5097 27.71C34.2097 29.72 32.9297 31.51 31.6797 32.98C30.8597 33.92 30.2097 34.6 29.7197 35.02C29.2097 35.45 28.6997 35.79 28.1597 36.01C27.8497 36.15 27.5397 36.24 27.2197 36.24C26.7897 36.24 26.4497 36.1 26.1397 35.79C25.8297 35.51 25.6897 35.14 25.6897 34.74C25.6897 34.34 25.8297 33.97 26.0897 33.69C26.3697 33.43 26.6897 33.29 27.0497 33.29C27.4997 33.29 27.9297 33.52 28.2997 34C28.5597 34.31 28.7497 34.45 28.9197 34.45C29.0897 34.45 29.2597 34.42 29.3997 34.31C29.6297 34.2 29.9397 33.91 30.3397 33.49C30.3997 32.58 30.4297 31.87 30.4297 31.42C30.4297 30.77 30.3997 29.89 30.3397 28.73L30.1397 24.51C30.0797 23.74 29.9097 23.18 29.6597 22.84C29.4597 22.58 29.1797 22.47 28.8697 22.47C28.7297 22.47 28.5897 22.47 28.4397 22.5V22.08H28.4597ZM20.9197 47.57H27.3797L26.6997 49.89H20.1797L20.9197 47.57ZM32.7697 38.3C33.2197 38.3 33.6197 38.47 33.9297 38.78C34.2397 39.09 34.4097 39.49 34.4097 39.94C34.4097 40.39 34.2397 40.79 33.9297 41.1C33.6197 41.41 33.2197 41.58 32.7697 41.58C32.3197 41.58 31.9497 41.41 31.6397 41.1C31.2997 40.79 31.1597 40.39 31.1597 39.94C31.1597 39.49 31.2997 39.09 31.6097 38.78C31.9497 38.47 32.3097 38.3 32.7697 38.3ZM33.6797 43.43L31.2397 51.23C31.0997 51.68 31.0097 51.97 31.0097 52.11C31.0097 52.2 31.0697 52.28 31.1197 52.34C31.1797 52.43 31.2297 52.45 31.3197 52.45C31.4297 52.45 31.5797 52.39 31.6897 52.28C32.0297 52 32.4297 51.49 32.8797 50.75L33.2497 50.98C32.1397 52.98 30.9297 54 29.6797 54C29.1997 54 28.7997 53.86 28.5197 53.6C28.2397 53.32 28.0897 52.98 28.0897 52.58C28.0897 52.3 28.1497 51.96 28.2897 51.53L29.9897 46.23C30.1597 45.72 30.2197 45.35 30.2197 45.1C30.2197 44.93 30.1597 44.79 29.9897 44.65C29.8497 44.54 29.6497 44.48 29.3897 44.48C29.2797 44.48 29.1297 44.48 28.9597 44.48L29.0997 44.03L32.9797 43.43H33.6797Z" fill="#221F20"/>
</g>
<defs>
<clipPath id="clip0_338_1517">
<rect width="57.86" height="59.5" fill="white"/>
</clipPath>
</defs>
</svg>
