<svg width="58" height="40" viewBox="0 0 58 40" fill="none" xmlns="http://www.w3.org/2000/svg">
<g clip-path="url(#clip0_338_1508)">
<path fill-rule="evenodd" clip-rule="evenodd" d="M5.83969 0.430054H52.0197C54.9997 0.430054 57.4297 2.87005 57.4297 5.84005V33.4201C57.4297 36.4001 54.9897 38.8301 52.0197 38.8301H5.83969C2.85969 38.8301 0.429688 36.3901 0.429688 33.4201V5.84005C0.429688 2.86005 2.85969 0.430054 5.83969 0.430054Z" fill="#FAB31E" stroke="white" stroke-width="0.8504" stroke-miterlimit="10"/>
<path d="M11.8494 18.4801H18.2794L17.5994 20.8001H11.1094L11.8494 18.4801ZM25.9894 14.3401C26.5894 14.3401 27.1194 14.4801 27.6594 14.7401C28.1694 15.0201 28.5394 15.3901 28.8194 15.8701C29.0794 16.3501 29.2194 16.8601 29.2194 17.4601C29.2194 18.6501 28.8794 19.8401 28.1994 21.0601C27.5494 22.2501 26.6394 23.1901 25.5594 23.8901C24.4494 24.5701 23.3494 24.9101 22.2394 24.9101C21.2194 24.9101 20.4494 24.6301 19.9194 24.0001C19.3494 23.4001 19.0694 22.7001 19.0694 21.8201C19.0694 20.8001 19.2994 19.8401 19.6894 18.9301C20.1194 18.0201 20.6294 17.2601 21.2494 16.5801C21.8994 15.9301 22.6094 15.3901 23.4294 14.9601C24.2594 14.5401 25.1094 14.3401 25.9894 14.3401ZM25.5394 14.9401C25.1394 14.9401 24.8294 15.0501 24.5794 15.2801C24.0394 15.7301 23.4694 16.8401 22.8194 18.5401C22.1694 20.2401 21.8294 21.7701 21.8294 23.1601C21.8294 23.5001 21.9394 23.7801 22.1394 24.0101C22.3694 24.2101 22.5894 24.3201 22.8794 24.3201C23.1594 24.3201 23.4194 24.2301 23.6494 24.0601C23.9894 23.8001 24.3894 23.1801 24.8394 22.2701C25.3194 21.3301 25.7194 20.3101 26.0294 19.2101C26.3094 18.0801 26.4794 17.0601 26.4794 16.1201C26.4794 15.7501 26.3894 15.4401 26.1994 15.2401C25.9894 15.0201 25.7994 14.9401 25.5394 14.9401ZM36.0594 14.3401L34.5894 19.1001C35.5494 17.6301 36.2294 16.6601 36.6894 16.1501C37.3394 15.3801 37.8494 14.9001 38.2794 14.6801C38.7094 14.4501 39.1294 14.3401 39.5594 14.3401C40.0394 14.3401 40.3794 14.4801 40.6094 14.7701C40.8094 15.0801 40.9194 15.3901 40.9194 15.7601C40.9194 16.1301 40.8094 16.6401 40.6094 17.3501L40.0994 19.1101C41.1194 17.6401 41.8594 16.6401 42.3094 16.1601C43.0194 15.3901 43.6094 14.8801 44.1194 14.6301C44.4894 14.4301 44.8594 14.3501 45.2794 14.3501C45.7094 14.3501 46.0494 14.4901 46.3294 14.7801C46.6094 15.0601 46.7594 15.4601 46.7594 15.9101C46.7594 16.3901 46.6194 16.9901 46.3894 17.7201L45.0294 21.8001C44.8294 22.4001 44.7494 22.7901 44.7494 22.9601C44.7494 23.0201 44.7494 23.0701 44.8094 23.1001C44.8694 23.1601 44.9194 23.1901 44.9794 23.1901C45.0694 23.1901 45.1194 23.1601 45.1794 23.1001C45.4594 22.9001 45.7494 22.5901 46.0294 22.1901C46.1194 22.1001 46.1994 21.9601 46.3394 21.7901L46.7394 22.0201C46.1994 22.9601 45.6594 23.6401 45.0394 24.0901C44.4194 24.5201 43.8494 24.7401 43.3394 24.7401C42.8894 24.7401 42.5194 24.6001 42.2294 24.3701C41.9494 24.1101 41.8294 23.8301 41.8294 23.4901C41.8294 23.1801 41.9194 22.7001 42.1094 22.0401L43.4994 17.7001C43.6994 17.0801 43.7794 16.7101 43.7794 16.5701C43.7794 16.5101 43.7494 16.4601 43.6894 16.4301C43.6294 16.3701 43.5794 16.3401 43.5194 16.3401C43.4094 16.3401 43.2894 16.3701 43.1794 16.4001C43.0394 16.4901 42.7794 16.6801 42.4394 17.0001C42.1294 17.3101 41.6494 17.8801 41.0194 18.6701C40.3994 19.4901 39.9694 20.1201 39.7394 20.5701C39.5394 21.0201 39.3094 21.5901 39.1194 22.3301L38.4094 24.6301H35.5994L37.7294 17.3701C37.8394 16.9701 37.8994 16.7201 37.8994 16.5801C37.8994 16.5201 37.8694 16.4701 37.8394 16.4101C37.7794 16.3801 37.7294 16.3501 37.6694 16.3501C37.4094 16.3501 36.9594 16.7201 36.3894 17.4301C35.4794 18.5601 34.6594 19.9001 33.9194 21.4601L32.9994 24.6301H30.1394L32.2894 17.4901C32.4894 16.8101 32.5994 16.3001 32.5994 16.0201C32.5994 15.8801 32.5694 15.7901 32.5094 15.7101C32.4194 15.6201 32.3394 15.5701 32.1994 15.5101C32.0594 15.4501 31.7694 15.4201 31.3794 15.4201L31.4594 15.0001L35.3394 14.3501H36.0594V14.3401Z" fill="black"/>
</g>
<defs>
<clipPath id="clip0_338_1508">
<rect width="57.86" height="39.26" fill="white"/>
</clipPath>
</defs>
</svg>
