<svg width="58" height="41" viewBox="0 0 58 41" fill="none" xmlns="http://www.w3.org/2000/svg">
<g clip-path="url(#clip0_338_415)">
<path fill-rule="evenodd" clip-rule="evenodd" d="M5.84018 0.430054H52.0202C55.0002 0.430054 57.4302 2.87005 57.4302 5.84005V34.9201C57.4302 37.9001 54.9902 40.3301 52.0202 40.3301H5.84018C2.86018 40.3301 0.430176 37.8901 0.430176 34.9201V5.84005C0.430176 2.86005 2.86018 0.430054 5.84018 0.430054Z" fill="#FAB31E" stroke="white" stroke-width="0.8504" stroke-miterlimit="10"/>
<path d="M19.9002 10.57H26.3302L25.6502 12.89H19.1602L19.9002 10.57ZM37.5302 6.58004L35.3502 13.95L35.1202 14.86C35.0902 14.95 35.0902 15.03 35.0902 15.09C35.0902 15.18 35.1202 15.26 35.1802 15.32C35.2402 15.41 35.3202 15.43 35.3802 15.43C35.5202 15.43 35.7502 15.32 36.0002 15.09C36.1102 14.98 36.3702 14.64 36.7902 14.07L37.1602 14.27C36.6502 15.21 36.0802 15.91 35.4902 16.34C34.8902 16.79 34.2702 17.02 33.5902 17.02C33.1602 17.02 32.8502 16.91 32.6302 16.68C32.4002 16.48 32.2902 16.2 32.2902 15.89C32.2902 15.58 32.4002 15.07 32.6602 14.27L32.9402 13.36C32.0602 14.83 31.2402 15.88 30.4502 16.48C30.0002 16.85 29.5102 17.02 29.0002 17.02C28.2902 17.02 27.8102 16.74 27.5002 16.17C27.2202 15.63 27.0502 14.98 27.0502 14.3C27.0502 13.25 27.3902 12.06 28.0102 10.7C28.6602 9.34004 29.4802 8.26004 30.5302 7.44004C31.3802 6.76004 32.1702 6.42004 32.9402 6.42004C33.3702 6.42004 33.6802 6.56004 33.9302 6.79004C34.1902 7.05004 34.3802 7.47004 34.5002 8.09004L34.9002 6.76004L37.5302 6.58004ZM33.9602 8.70004C33.9602 8.10004 33.8702 7.65004 33.6802 7.40004C33.5702 7.20004 33.3702 7.12004 33.1402 7.12004C32.9102 7.12004 32.6602 7.23004 32.4302 7.46004C31.9202 7.91004 31.3802 8.85004 30.8102 10.24C30.2102 11.63 29.9302 12.85 29.9302 13.87C29.9302 14.24 29.9902 14.52 30.1302 14.69C30.2702 14.89 30.4102 14.97 30.5602 14.97C30.9002 14.97 31.2402 14.77 31.5802 14.37C32.0602 13.83 32.5202 13.18 32.9102 12.39C33.6202 11 33.9602 9.78004 33.9602 8.70004ZM19.9002 27.92H26.3302L25.6502 30.22H19.1602L19.9002 27.92ZM33.2802 23.75L30.9002 31.29C30.7902 31.63 30.7302 31.86 30.7302 32C30.7302 32.06 30.7602 32.11 30.8202 32.17C30.8802 32.23 30.9302 32.26 31.0202 32.26C31.3602 32.26 31.8102 31.95 32.3502 31.35C33.1402 30.47 33.9902 29.2 34.8702 27.55L35.8902 24.15L38.7002 24.06L36.5202 31.43C36.3202 32.05 36.2402 32.39 36.2402 32.51C36.2402 32.57 36.2702 32.62 36.3302 32.68C36.3902 32.74 36.4402 32.77 36.5002 32.77C36.6102 32.77 36.7002 32.74 36.8102 32.66C37.0702 32.43 37.4302 32.01 37.8602 31.38L38.2602 31.64C37.2102 33.45 36.0802 34.33 34.8602 34.33C34.3802 34.33 34.0102 34.22 33.7502 33.99C33.4902 33.76 33.3502 33.45 33.3502 33.08C33.3502 32.68 33.4602 32.17 33.6302 31.58L34.2002 29.68C33.2602 31.07 32.5602 32.03 32.1302 32.51C31.4802 33.25 30.9102 33.73 30.4602 33.96C30.0102 34.22 29.5802 34.33 29.1602 34.33C28.7902 34.33 28.4502 34.19 28.1702 33.9C27.8902 33.62 27.7402 33.25 27.7402 32.82C27.7402 32.45 27.8502 31.94 28.0502 31.29L29.4402 26.87C29.6402 26.13 29.7502 25.65 29.7502 25.4C29.7502 25.31 29.7202 25.2 29.6602 25.12C29.6002 25.03 29.5202 24.98 29.3802 24.92C29.2702 24.86 29.0702 24.86 28.7602 24.86L28.8702 24.41L32.6102 23.76H33.2802V23.75Z" fill="#221F20"/>
</g>
<defs>
<clipPath id="clip0_338_415">
<rect width="57.86" height="40.76" fill="white"/>
</clipPath>
</defs>
</svg>
