<svg width="57" height="39" viewBox="0 0 57 39" fill="none" xmlns="http://www.w3.org/2000/svg">
<path fill-rule="evenodd" clip-rule="evenodd" d="M6.25107 1H51.1386C52.53 0.999999 53.8645 1.55223 54.8491 2.53541C55.8336 3.51859 56.3877 4.85233 56.3897 6.24373V33.0573C56.3877 34.4494 55.8339 35.7839 54.8495 36.7682C53.8652 37.7526 52.5307 38.3064 51.1386 38.3084H6.25107C4.859 38.3064 3.5245 37.7526 2.54015 36.7682C1.5558 35.7839 1.00194 34.4494 1 33.0573V6.24373C1.00195 4.85233 1.55604 3.51859 2.5406 2.53541C3.52516 1.55223 4.85967 0.999999 6.25107 1Z" fill="#F5C0C0" stroke="#F2F2F2" stroke-width="1.11" stroke-miterlimit="10"/>
<path d="M12.8965 18.1207H18.1208L17.5709 19.9807H12.3223L12.8965 18.1207ZM21.1697 19.6977C21.1293 20.0859 21.105 20.4094 21.105 20.6601C21.105 21.0968 21.2182 21.4607 21.4932 21.7357C21.7439 21.9864 22.0917 22.1239 22.5284 22.1239C22.9651 22.1239 23.3775 22.0349 23.79 21.8489C24.2267 21.6872 24.7039 21.3637 25.278 20.9108L25.553 21.1372C24.8656 21.9136 24.1782 22.4635 23.5393 22.8113C22.9004 23.1348 22.1645 23.2965 21.3881 23.2965C20.3772 23.2965 19.6898 23.0701 19.3016 22.5848C18.9215 22.1077 18.7193 21.5578 18.7193 20.935C18.7193 19.9484 19.0185 18.9618 19.5927 17.9994C20.1669 17.0127 20.919 16.2363 21.9057 15.6379C22.8923 15.0475 23.879 14.7483 24.8818 14.7483C25.3832 14.7483 25.7552 14.8615 26.0059 15.1122C26.2809 15.3387 26.3941 15.6379 26.3941 16.0099C26.3941 16.4466 26.2809 16.8833 26.0302 17.2958C25.6824 17.8457 25.2295 18.3067 24.7038 18.6463C24.1782 18.9941 23.604 19.2448 22.9408 19.4227C22.5041 19.5359 21.9057 19.633 21.1697 19.6977ZM21.2668 19.2448C21.7924 19.1558 22.2049 19.0588 22.5041 18.9213C22.7791 18.7838 23.0783 18.5736 23.3533 18.2824C23.6282 17.9832 23.879 17.6193 24.0892 17.1583C24.2995 16.6973 24.3884 16.2849 24.3884 15.8967C24.3884 15.7349 24.3399 15.5975 24.251 15.5085C24.162 15.4195 24.0407 15.371 23.887 15.371C23.6121 15.371 23.2886 15.557 22.9247 15.9695C22.2453 16.6731 21.6954 17.7729 21.2668 19.2448ZM33.5756 15.274H35.9613L35.6863 16.2849H34.4247C34.635 16.6326 34.724 16.9723 34.724 17.2958C34.724 17.8457 34.5865 18.3471 34.2872 18.8081C33.988 19.2691 33.5513 19.633 32.9771 19.908C32.4029 20.2072 31.764 20.3447 31.0523 20.3447C30.8663 20.3447 30.6642 20.3204 30.4296 20.2961C30.2194 20.2719 29.9687 20.2234 29.7179 20.1829C29.3055 20.3689 29.0791 20.5307 28.9577 20.6682C28.885 20.7409 28.8445 20.8299 28.8445 20.9189C28.8445 21.0321 28.893 21.1291 28.982 21.1938C29.1438 21.3313 29.3702 21.4203 29.6694 21.4931C30.8825 21.768 31.6831 21.9783 32.0794 22.132C32.6051 22.3584 33.0175 22.6334 33.2683 22.9811C33.5432 23.3289 33.6807 23.7575 33.6807 24.2427C33.6807 25.0029 33.3329 25.6418 32.6455 26.1918C31.9581 26.7659 30.9068 27.0409 29.4592 27.0409C28.0115 27.0409 26.9359 26.8145 26.2485 26.3292C25.7471 25.9815 25.5126 25.5529 25.5126 25.0919C25.5126 24.728 25.6743 24.3802 25.9978 24.0567C26.3213 23.7575 27.033 23.4825 28.1086 23.2318C27.7447 23.0216 27.4859 22.8436 27.3726 22.6819C27.1866 22.4554 27.0977 22.2209 27.0977 21.9702C27.0977 21.582 27.2594 21.21 27.5829 20.9189C27.9064 20.6196 28.4321 20.3204 29.1842 20.0212C28.61 19.7947 28.1733 19.4712 27.9226 19.1073C27.6476 18.7434 27.5344 18.3309 27.5344 17.8214C27.5344 17.2958 27.6961 16.8105 27.9954 16.3334C28.3189 15.8724 28.7717 15.4842 29.3945 15.185C30.0172 14.91 30.7046 14.7483 31.5133 14.7483C32.0147 14.7483 32.4757 14.7968 32.8639 14.91C33.0661 14.9747 33.3006 15.096 33.5756 15.274ZM31.6912 15.185C31.4163 15.185 31.1656 15.274 30.9553 15.4842C30.6318 15.7835 30.3568 16.2606 30.1061 16.948C29.8797 17.6354 29.7584 18.2743 29.7584 18.8971C29.7584 19.1963 29.8312 19.4227 30.0091 19.6087C30.1708 19.7705 30.373 19.8594 30.6318 19.8594C30.8825 19.8594 31.0928 19.7705 31.2707 19.6087C31.6185 19.261 31.8934 18.7596 32.1441 18.0236C32.4029 17.312 32.5404 16.6488 32.5404 16.0746C32.5404 15.7996 32.4514 15.5894 32.2897 15.4357C32.1279 15.282 31.9419 15.185 31.6912 15.185ZM28.6181 23.434C28.0439 23.6604 27.6557 23.895 27.4454 24.1699C27.2352 24.4206 27.1219 24.6956 27.1219 24.9948C27.1219 25.383 27.3322 25.7308 27.7447 26.0462C28.1571 26.3616 28.796 26.5314 29.6937 26.5314C30.4296 26.5314 30.9796 26.3939 31.3192 26.119C31.6427 25.844 31.8045 25.5205 31.8045 25.1566C31.8045 24.8331 31.667 24.5824 31.3677 24.3802C31.0685 24.1699 30.4701 23.9678 29.6047 23.7413C29.1923 23.62 28.8769 23.531 28.6181 23.434ZM41.6871 14.7483C42.1723 14.7483 42.6009 14.8615 43.0134 15.0718C43.4501 15.2982 43.7493 15.5975 43.9515 15.9856C44.178 16.3738 44.275 16.8105 44.275 17.2715C44.275 18.2582 44 19.2205 43.4744 20.1829C42.9244 21.1453 42.2128 21.9217 41.3393 22.4716C40.4416 23.0216 39.552 23.2965 38.6544 23.2965C37.8295 23.2965 37.2067 23.0701 36.7539 22.5848C36.3171 22.0996 36.0907 21.5092 36.0907 20.7976C36.0907 19.9727 36.2524 19.1963 36.5921 18.4603C36.9156 17.7487 37.3523 17.1098 37.8537 16.5841C38.3551 16.0342 38.9536 15.5975 39.6167 15.2578C40.2799 14.9181 40.9754 14.7483 41.6871 14.7483ZM41.3232 15.2335C40.9997 15.2335 40.749 15.3225 40.5225 15.5085C40.1101 15.8724 39.6248 16.7701 39.0992 18.1449C38.5735 19.5198 38.3228 20.7814 38.3228 21.8812C38.3228 22.1562 38.4117 22.3827 38.5735 22.5687C38.7352 22.7547 38.9374 22.8436 39.1719 22.8436C39.3984 22.8436 39.6087 22.7708 39.7947 22.6172C40.0454 22.4069 40.3689 21.9298 40.757 21.1696C41.1452 20.4094 41.4687 19.5845 41.6952 18.6949C41.9459 17.781 42.0591 16.9561 42.0591 16.2202C42.0591 15.8967 41.9863 15.646 41.8488 15.4842C41.6871 15.3225 41.5253 15.2335 41.3232 15.2335Z" fill="#221F20"/>
</svg>
