<svg width="85" height="45" viewBox="0 0 85 45" fill="none" xmlns="http://www.w3.org/2000/svg">
<g clip-path="url(#clip0_338_321)">
<path fill-rule="evenodd" clip-rule="evenodd" d="M5.84018 0.430054H52.0202C55.0002 0.430054 57.4302 2.87005 57.4302 5.84005V33.4201C57.4302 36.4001 54.9902 38.8301 52.0202 38.8301H5.84018C2.86018 38.8301 0.430176 36.3901 0.430176 33.4201V5.84005C0.430176 2.86005 2.86018 0.430054 5.84018 0.430054Z" fill="#FAB31E" stroke="white" stroke-width="0.8504" stroke-miterlimit="10"/>
<path d="M12.4703 15.51H18.9303L18.2503 17.81H11.7603L12.4703 15.51ZM26.6503 11.34C27.2503 11.34 27.7803 11.48 28.2903 11.74C28.8003 12.02 29.2003 12.39 29.4503 12.87C29.7103 13.35 29.8503 13.89 29.8503 14.46C29.8503 15.65 29.5103 16.87 28.8603 18.06C28.1803 19.25 27.3003 20.19 26.2003 20.89C25.1203 21.57 24.0203 21.91 22.8803 21.91C21.8903 21.91 21.0903 21.63 20.5603 21.03C20.0203 20.43 19.7403 19.7 19.7403 18.82C19.7403 17.8 19.9403 16.84 20.3603 15.93C20.7603 15.05 21.2703 14.26 21.9203 13.61C22.5403 12.93 23.2803 12.39 24.1003 11.97C24.9203 11.54 25.7703 11.34 26.6503 11.34ZM26.1903 11.93C25.7903 11.93 25.4503 12.04 25.2003 12.27C24.6903 12.72 24.0903 13.83 23.4403 15.53C22.7903 17.23 22.4803 18.79 22.4803 20.15C22.4803 20.49 22.5703 20.77 22.7903 21C22.9903 21.23 23.2403 21.31 23.5303 21.31C23.8203 21.31 24.0703 21.22 24.3003 21.05C24.6103 20.79 25.0103 20.2 25.4903 19.26C25.9703 18.32 26.3403 17.3 26.6503 16.2C26.9603 15.07 27.1003 14.05 27.1003 13.11C27.1003 12.74 27.0103 12.43 26.8203 12.23C26.6503 12.05 26.4203 11.93 26.1903 11.93ZM27.1803 6.15002H30.5803L26.8403 10.03H25.8503L27.1803 6.15002ZM40.3103 11.34L41.1303 19.14C42.3503 18.03 43.1403 17.16 43.5103 16.5C43.9103 15.88 44.0803 15.34 44.0803 14.91C44.0803 14.74 44.0503 14.57 43.9703 14.43C43.9103 14.26 43.7403 14.03 43.5403 13.75C43.3103 13.47 43.1703 13.27 43.1403 13.21C43.0803 13.07 43.0503 12.9 43.0503 12.7C43.0503 12.3 43.1903 11.99 43.4503 11.74C43.7103 11.49 44.0503 11.34 44.4403 11.34C44.8303 11.34 45.1503 11.48 45.3803 11.74C45.6903 12.14 45.8603 12.56 45.8603 13.07C45.8603 13.89 45.4603 14.97 44.6403 16.3C43.8203 17.63 41.9503 19.5 39.0603 21.91H38.6103L37.9003 15.16L33.1403 21.91H32.6603C32.7703 19.87 32.8303 17.94 32.8303 16.16C32.8303 15 32.7703 14.15 32.6303 13.64C32.5703 13.36 32.4303 13.13 32.2603 12.96C32.0603 12.82 31.8603 12.73 31.6403 12.73C31.5003 12.73 31.3603 12.73 31.1903 12.76V12.36L34.9903 11.34C35.2203 11.91 35.3603 12.47 35.4203 12.98C35.5603 13.77 35.6203 14.68 35.6203 15.73C35.6203 16.1 35.5903 16.67 35.5603 17.43L39.8703 11.34H40.3103Z" fill="black"/>
<path fill-rule="evenodd" clip-rule="evenodd" d="M43.3401 22.7101H81.0701C82.7401 22.7101 84.1001 24.0701 84.1001 25.7401V41.1901C84.1001 42.8601 82.7401 44.2201 81.0701 44.2201H43.3401C41.6701 44.2201 40.3101 42.8601 40.3101 41.1901C40.3101 33.2501 40.3101 33.6801 40.3101 25.7401C40.3101 24.0701 41.6701 22.7101 43.3401 22.7101Z" fill="#FAB31E" stroke="white" stroke-width="0.8504" stroke-miterlimit="10"/>
<path d="M46.5401 34.5501H50.7901L50.3401 36.0801H46.0601L46.5401 34.5501ZM51.3601 32.4901L53.6001 31.8401C53.7701 32.0401 53.9101 32.2701 53.9701 32.4601C54.1101 32.8001 54.2001 33.2801 54.2501 33.9101C54.3601 35.1001 54.4201 36.3801 54.4801 37.7401C54.9901 37.0601 55.5901 36.1501 56.2701 35.0201C56.4701 34.6801 56.5801 34.3701 56.5801 34.0601C56.5801 33.8601 56.4701 33.6901 56.2101 33.5201C55.9801 33.3501 55.8401 33.2101 55.7801 33.1201C55.7201 33.0101 55.6901 32.8901 55.6901 32.7501C55.6901 32.4901 55.7801 32.2701 55.9501 32.1001C56.1201 31.9301 56.3501 31.8401 56.6001 31.8401C56.8501 31.8401 57.0801 31.9301 57.2801 32.1201C57.4801 32.3501 57.5901 32.5701 57.5901 32.8601C57.5901 33.1701 57.5001 33.5701 57.3101 33.9901C57.1401 34.4201 56.7101 35.1801 56.0301 36.2301C55.1801 37.5601 54.3301 38.7201 53.4801 39.7201C52.9701 40.3401 52.5201 40.8001 52.2001 41.0501C51.8601 41.3301 51.5201 41.5601 51.1801 41.7301C50.9501 41.8201 50.7501 41.8701 50.5601 41.8701C50.2801 41.8701 50.0501 41.7601 49.8501 41.5601C49.6501 41.3601 49.5401 41.1301 49.5401 40.8801C49.5401 40.6001 49.6301 40.3701 49.8201 40.2001C49.9901 40.0001 50.1901 39.9201 50.4401 39.9201C50.7201 39.9201 51.0101 40.0601 51.2601 40.3701C51.4301 40.6001 51.5401 40.6801 51.6601 40.6801C51.7701 40.6801 51.8901 40.6501 52.0001 40.5901C52.1401 40.5001 52.3401 40.3301 52.6201 40.0501C52.6501 39.4301 52.6501 38.9701 52.6501 38.6601C52.6501 38.2301 52.6501 37.6701 52.5901 36.9001L52.5001 34.1001C52.4401 33.5901 52.3601 33.2201 52.1601 32.9901C52.0501 32.8201 51.8801 32.7601 51.6501 32.7601C51.5601 32.7601 51.4801 32.7601 51.3701 32.7601V32.4901H51.3601ZM61.1101 41.0201L60.9401 40.7101C61.7101 40.2801 62.1601 39.9701 62.3301 39.7501C62.4701 39.5801 62.5601 39.4101 62.5601 39.2401C62.5601 39.0401 62.4201 38.8401 62.1901 38.6201C61.9301 38.3901 61.7601 38.1901 61.6801 38.0201C61.6201 37.9101 61.5701 37.7401 61.5701 37.5401C61.5701 37.2301 61.7101 36.9701 61.9401 36.7501C62.1701 36.4901 62.4501 36.3801 62.7901 36.3801C63.1301 36.3801 63.4101 36.5201 63.6401 36.7801C63.9001 37.0401 64.0101 37.3801 64.0101 37.7401C64.0101 38.3601 63.7801 38.9601 63.3301 39.5501C62.8401 40.1401 62.1101 40.6201 61.1101 41.0201ZM69.4501 34.5501H73.7001L73.2501 36.0801H68.9701L69.4501 34.5501ZM77.2701 28.4301C77.5801 28.4301 77.8401 28.5401 78.0401 28.7701C78.2401 28.9701 78.3501 29.2201 78.3501 29.5401C78.3501 29.8201 78.2401 30.0801 78.0401 30.3101C77.8101 30.5101 77.5601 30.6201 77.2701 30.6201C76.9901 30.6201 76.7301 30.5101 76.5001 30.3101C76.3001 30.0801 76.1901 29.8301 76.1901 29.5401C76.1901 29.2301 76.3001 28.9701 76.5001 28.7701C76.7101 28.5401 76.9601 28.4301 77.2701 28.4301ZM77.8701 31.8301L76.2501 36.9601C76.1601 37.2701 76.1101 37.4701 76.1101 37.5601C76.1101 37.6201 76.1401 37.6701 76.1701 37.7001C76.2301 37.7601 76.2601 37.7901 76.3101 37.7901C76.4001 37.7901 76.4801 37.7601 76.5701 37.6801C76.7701 37.4801 77.0501 37.1401 77.3401 36.6601L77.6001 36.8001C76.8601 38.1301 76.0701 38.8101 75.2501 38.8101C74.9101 38.8101 74.6501 38.7201 74.4801 38.5501C74.2801 38.3801 74.2001 38.1501 74.2001 37.8701C74.2001 37.7001 74.2301 37.4701 74.3101 37.1901L75.4401 33.6801C75.5501 33.3701 75.6101 33.1101 75.6101 32.9401C75.6101 32.8301 75.5501 32.7101 75.4401 32.6601C75.3501 32.5701 75.2101 32.5201 75.0401 32.5201C74.9501 32.5201 74.8701 32.5201 74.7601 32.5201L74.8501 32.2401L77.4301 31.8401H77.8701V31.8301Z" fill="black"/>
</g>
<defs>
<clipPath id="clip0_338_321">
<rect width="84.53" height="44.65" fill="white"/>
</clipPath>
</defs>
</svg>
