<svg width="81" height="51" viewBox="0 0 81 51" fill="none" xmlns="http://www.w3.org/2000/svg">
<g clip-path="url(#clip0_338_331)">
<path fill-rule="evenodd" clip-rule="evenodd" d="M5.84018 0.430054H52.0202C55.0002 0.430054 57.4302 2.87005 57.4302 5.84005V43.0301C57.4302 46.0101 54.9902 48.4201 52.0202 48.4201H5.84018C2.86018 48.4201 0.430176 46.0101 0.430176 43.0301V5.84005C0.430176 2.86005 2.86018 0.430054 5.84018 0.430054Z" fill="#F5C0C0" stroke="white" stroke-width="0.8504" stroke-miterlimit="10"/>
<path d="M10.1204 18.43H16.5804L15.9004 20.73H9.38037L10.1204 18.43ZM17.4304 15.28L20.8004 14.26C21.0804 14.6 21.2804 14.91 21.4004 15.22C21.6004 15.76 21.7404 16.47 21.8304 17.4C21.9704 19.21 22.0904 21.14 22.1404 23.21C22.9304 22.16 23.8404 20.8 24.8604 19.07C25.1404 18.56 25.3104 18.08 25.3104 17.6C25.3104 17.32 25.1404 17.06 24.7704 16.78C24.4004 16.52 24.2004 16.33 24.0904 16.18C24.0004 16.04 23.9804 15.87 23.9804 15.64C23.9804 15.24 24.1204 14.93 24.3804 14.65C24.6604 14.39 24.9804 14.25 25.3704 14.25C25.7604 14.25 26.1104 14.39 26.4204 14.7C26.7004 15.01 26.8704 15.38 26.8704 15.81C26.8704 16.32 26.7304 16.89 26.4404 17.54C26.1604 18.19 25.5004 19.33 24.4804 20.91C23.1804 22.95 21.9004 24.71 20.6504 26.18C19.8304 27.14 19.1804 27.82 18.6904 28.22C18.1804 28.65 17.6704 28.99 17.1304 29.21C16.8204 29.35 16.5104 29.44 16.1904 29.44C15.7604 29.44 15.4204 29.3 15.1104 28.99C14.8004 28.71 14.6604 28.34 14.6604 27.94C14.6604 27.54 14.8004 27.2 15.0604 26.92C15.3404 26.64 15.6604 26.49 16.0204 26.49C16.4704 26.49 16.9004 26.72 17.2704 27.2C17.5304 27.51 17.7204 27.65 17.8904 27.65C18.0604 27.65 18.2304 27.62 18.3704 27.51C18.6004 27.4 18.9104 27.14 19.3104 26.69C19.3704 25.78 19.4004 25.07 19.4004 24.62C19.4004 23.97 19.3704 23.09 19.3104 21.93L19.1104 17.71C19.0504 16.94 18.8804 16.38 18.6304 16.04C18.4304 15.78 18.1504 15.67 17.8404 15.67C17.7004 15.67 17.5604 15.67 17.4104 15.7V15.28H17.4304ZM35.4304 21.88L35.7704 22.16C35.0604 23.04 34.3504 23.63 33.6404 24.03C32.7304 24.57 31.7704 24.82 30.7804 24.82C30.1004 24.82 29.5004 24.68 28.9904 24.39C28.4804 24.11 28.0804 23.71 27.8604 23.2C27.6004 22.69 27.4904 22.15 27.4904 21.61C27.4904 20.42 27.8004 19.2 28.4804 18.04C29.1304 16.88 30.0104 15.94 31.0904 15.26C32.1704 14.58 33.2404 14.24 34.2604 14.24C35.1104 14.24 35.7304 14.41 36.1604 14.78C36.5904 15.15 36.7804 15.63 36.7804 16.17C36.7804 16.65 36.6404 17.08 36.3004 17.42C35.9904 17.76 35.6204 17.93 35.2504 17.93C34.8804 17.93 34.6004 17.84 34.3704 17.62C34.1404 17.39 34.0304 17.14 34.0304 16.83C34.0304 16.43 34.2304 16.09 34.6504 15.78C34.9104 15.58 35.0504 15.41 35.0504 15.24C35.0504 15.1 34.9904 15.01 34.8804 14.93C34.7404 14.82 34.5404 14.76 34.3104 14.76C33.6904 14.76 33.0904 14.99 32.5504 15.5C31.8404 16.18 31.2704 17.03 30.8804 18.02C30.5104 19.04 30.3104 20.03 30.3104 20.94C30.3104 21.68 30.5104 22.24 30.9104 22.67C31.3104 23.12 31.7604 23.32 32.3004 23.32C32.7804 23.32 33.2904 23.21 33.8604 22.98C34.4104 22.73 34.9504 22.37 35.4304 21.88ZM44.5004 9.16003L41.5804 19.17C42.6304 17.7 43.3704 16.68 43.8204 16.17C44.5304 15.43 45.1204 14.92 45.6104 14.67C46.0904 14.41 46.5704 14.27 47.0304 14.27C47.4304 14.27 47.7704 14.41 48.0204 14.72C48.3004 15 48.4504 15.4 48.4504 15.88C48.4504 16.28 48.3604 16.79 48.1704 17.38L46.6404 22.09C46.5004 22.49 46.4104 22.77 46.4104 22.91C46.4104 22.97 46.4404 23.05 46.5004 23.11C46.5604 23.14 46.6104 23.17 46.6704 23.17C46.7604 23.17 46.8704 23.14 46.9504 23.06C47.1804 22.89 47.4304 22.61 47.6904 22.21C47.7804 22.1 47.8604 21.95 48.0304 21.73L48.4604 21.99C47.8104 23.01 47.2104 23.75 46.6204 24.12C46.0504 24.52 45.5104 24.72 45.0004 24.72C44.5204 24.72 44.1804 24.58 43.8904 24.35C43.6304 24.12 43.4904 23.81 43.4904 23.47C43.4904 23.13 43.6004 22.68 43.8004 22.08L45.3004 17.35C45.4104 17.04 45.4404 16.78 45.4404 16.64C45.4404 16.55 45.4104 16.5 45.3504 16.41C45.2904 16.35 45.2104 16.32 45.1204 16.32C44.8404 16.32 44.4704 16.55 43.9904 17C43.0004 17.91 42.0104 19.32 41.0104 21.28L40.0204 24.57H37.2404L40.9304 12.04C41.0704 11.5 41.1604 11.13 41.1604 10.91C41.1604 10.71 41.0704 10.57 40.9304 10.46C40.7004 10.32 40.3604 10.26 39.9104 10.29L40.0004 9.81003L43.8304 9.16003H44.5004Z" fill="#221F20"/>
<path d="M26.3103 37.25H27.7803V37.76H26.9603C27.1003 37.93 27.2203 38.07 27.2703 38.19C27.3303 38.36 27.3803 38.53 27.3803 38.7C27.3803 39.01 27.2903 39.3 27.1203 39.49C26.9503 39.72 26.6903 39.92 26.4103 40.03C26.1303 40.17 25.8403 40.23 25.6203 40.23C25.6203 40.23 25.4203 40.23 25.0803 40.2C24.9403 40.2 24.8203 40.26 24.7103 40.34C24.6203 40.43 24.5703 40.54 24.5703 40.68C24.5703 40.77 24.6303 40.88 24.7103 40.94C24.8003 41.03 24.9403 41.05 25.1403 41.05H25.9303C26.5803 41.05 27.0403 41.11 27.2603 41.25C27.6003 41.45 27.8003 41.76 27.8003 42.16C27.8003 42.44 27.7103 42.67 27.5403 42.87C27.4003 43.1 27.1703 43.27 26.9203 43.35C26.5203 43.52 26.0703 43.58 25.5303 43.58C25.1603 43.58 24.7903 43.55 24.4803 43.47C24.1403 43.41 23.9103 43.3 23.7703 43.16C23.6303 43.02 23.5703 42.88 23.5703 42.73C23.5703 42.59 23.6303 42.47 23.7403 42.36C23.8303 42.25 24.0203 42.16 24.3403 42.08C23.9103 41.88 23.7203 41.6 23.7203 41.26C23.7203 41.03 23.8103 40.83 23.9803 40.64C24.1503 40.44 24.4103 40.24 24.7503 40.1C24.3503 39.96 24.0403 39.76 23.8703 39.5C23.6703 39.27 23.5903 38.96 23.5903 38.65C23.5903 38.22 23.7603 37.86 24.1003 37.54C24.4403 37.23 24.8903 37.09 25.4303 37.09C25.7103 37.08 26.0203 37.13 26.3103 37.25ZM25.5103 37.36C25.3403 37.36 25.2003 37.47 25.0603 37.64C24.9503 37.81 24.8903 38.18 24.8903 38.75C24.8903 39.2 24.9503 39.54 25.0603 39.71C25.1703 39.88 25.3403 39.97 25.4903 39.97C25.6903 39.97 25.8303 39.88 25.9703 39.71C26.0803 39.54 26.1403 39.2 26.1403 38.72C26.1403 38.15 26.0803 37.78 25.9403 37.59C25.8203 37.45 25.6803 37.36 25.5103 37.36ZM25.2603 42.18C24.9503 42.18 24.7203 42.21 24.6403 42.27C24.4703 42.36 24.3603 42.47 24.3603 42.64C24.3603 42.81 24.4703 42.95 24.6403 43.07C24.8103 43.21 25.1803 43.27 25.6603 43.27C26.0903 43.27 26.4303 43.21 26.6803 43.1C26.9403 42.99 27.0503 42.82 27.0503 42.62C27.0503 42.53 27.0203 42.48 26.9603 42.42C26.9003 42.33 26.7603 42.28 26.5903 42.25C26.4203 42.18 25.9703 42.18 25.2603 42.18ZM30.8103 43.17V42.97C31.1503 42.83 31.4103 42.63 31.5803 42.37C31.7203 42.14 31.8103 41.89 31.8103 41.63C31.8103 41.57 31.8103 41.52 31.7803 41.49C31.7503 41.49 31.7503 41.46 31.7203 41.46C31.6903 41.46 31.6603 41.49 31.6303 41.49C31.5403 41.55 31.4303 41.58 31.2903 41.58C31.1203 41.58 30.9503 41.52 30.8403 41.38C30.7003 41.24 30.6403 41.07 30.6403 40.87C30.6403 40.67 30.7003 40.5 30.8703 40.33C31.0103 40.19 31.2103 40.1 31.4103 40.1C31.6903 40.1 31.9203 40.21 32.0903 40.41C32.2903 40.61 32.3703 40.89 32.3703 41.26C32.3703 41.69 32.2603 42.08 31.9703 42.42C31.7203 42.77 31.3203 43.03 30.8103 43.17ZM37.1303 35.26V39.37L38.1203 38.38C38.3503 38.18 38.4603 38.04 38.5203 37.95C38.5803 37.86 38.6103 37.78 38.6103 37.69C38.6103 37.6 38.5803 37.52 38.5003 37.46C38.4403 37.4 38.3003 37.37 38.1003 37.35V37.18H40.0603V37.35C39.8603 37.35 39.7203 37.41 39.5803 37.49C39.4403 37.58 39.1503 37.8 38.7603 38.2L38.2803 38.68L39.3003 40.15C39.7303 40.77 39.9503 41.09 40.0403 41.17C40.1503 41.28 40.2703 41.34 40.4403 41.34V41.51H38.2003V41.34C38.3103 41.34 38.3703 41.34 38.4303 41.28C38.4603 41.25 38.4903 41.22 38.4903 41.17C38.4903 41.11 38.4303 40.97 38.2903 40.77L37.4403 39.52L37.1603 39.78V40.57C37.1603 40.91 37.1903 41.11 37.2503 41.19C37.3403 41.28 37.4503 41.33 37.6503 41.33V41.5H35.4103V41.33C35.5803 41.33 35.7203 41.27 35.8103 41.16C35.8403 41.1 35.8703 40.9 35.8703 40.56V36.2C35.8703 35.86 35.8403 35.66 35.7803 35.58C35.7203 35.49 35.6103 35.44 35.4103 35.41V35.27H37.1303V35.26Z" fill="#221F20"/>
<path fill-rule="evenodd" clip-rule="evenodd" d="M49.2103 28.6901H77.1903C78.8603 28.6901 80.2203 30.0501 80.2203 31.6901V47.1701C80.2203 48.8401 78.8603 50.2001 77.1903 50.2001H49.2103C47.5403 50.2001 46.1803 48.8401 46.1803 47.1701V41.5301L43.2603 39.4301L46.1803 37.3601V31.6901C46.1803 30.0501 47.5403 28.6901 49.2103 28.6901Z" fill="#F5C0C0" stroke="white" stroke-width="0.8504" stroke-miterlimit="10"/>
<path d="M51.2803 40.3401H55.5303L55.0803 41.8701H50.8003L51.2803 40.3401ZM59.1003 34.2101C59.4103 34.2101 59.6703 34.3201 59.8703 34.5201C60.1003 34.7201 60.1803 34.9701 60.1803 35.2901C60.1803 35.5701 60.0903 35.8301 59.8703 36.0601C59.6703 36.2601 59.4203 36.3701 59.1003 36.3701C58.8203 36.3701 58.5603 36.2601 58.3303 36.0601C58.1303 35.8301 58.0203 35.5801 58.0203 35.2901C58.0203 34.9801 58.1303 34.7201 58.3303 34.5201C58.5603 34.3301 58.8203 34.2101 59.1003 34.2101ZM59.7003 37.5901L58.0803 42.7501C57.9903 43.0301 57.9403 43.2301 57.9403 43.3201C57.9403 43.3801 57.9703 43.4301 58.0303 43.4901C58.0603 43.5501 58.1203 43.5501 58.1403 43.5501C58.2303 43.5501 58.3103 43.5201 58.4003 43.4401C58.6303 43.2701 58.8803 42.9301 59.1903 42.4201L59.4503 42.5901C58.6803 43.9201 57.8903 44.6001 57.0703 44.6001C56.7603 44.6001 56.5003 44.4901 56.3003 44.3201C56.1003 44.1501 56.0203 43.9201 56.0203 43.6701C56.0203 43.4701 56.0503 43.2401 56.1603 42.9601L57.2703 39.4701C57.3803 39.1301 57.4403 38.8701 57.4403 38.7001C57.4403 38.5901 57.3803 38.5001 57.3003 38.4201C57.1903 38.3301 57.0403 38.3101 56.8703 38.3101C56.7803 38.3101 56.7003 38.3101 56.5903 38.3101L56.6803 38.0001L59.2603 37.6001H59.7003V37.5901ZM65.5103 42.6301L65.7403 42.8301C65.2603 43.3701 64.8003 43.7901 64.3503 44.0501C63.7303 44.3901 63.1003 44.5901 62.4203 44.5901C61.9903 44.5901 61.6003 44.4801 61.2603 44.3101C60.9203 44.1101 60.6603 43.8601 60.4903 43.5201C60.3503 43.1801 60.2603 42.8101 60.2603 42.4701C60.2603 41.6801 60.4903 40.8801 60.9103 40.1201C61.3403 39.3301 61.9303 38.7301 62.6403 38.2801C63.3503 37.8301 64.0603 37.6001 64.7403 37.6001C65.3103 37.6001 65.7003 37.7101 65.9903 37.9701C66.2703 38.2001 66.4203 38.5101 66.4203 38.8801C66.4203 39.1901 66.3103 39.4801 66.1103 39.7001C65.8803 39.9301 65.6603 40.0401 65.4003 40.0401C65.1703 40.0401 64.9703 39.9801 64.8303 39.8101C64.6603 39.6701 64.6003 39.5001 64.6003 39.3001C64.6003 39.0401 64.7103 38.8201 65.0003 38.6201C65.1703 38.4801 65.2803 38.3601 65.2803 38.2501C65.2803 38.1601 65.2203 38.1101 65.1703 38.0501C65.0603 37.9601 64.9403 37.9401 64.7703 37.9401C64.3703 37.9401 63.9803 38.0801 63.6103 38.4201C63.1303 38.8701 62.7603 39.4101 62.5303 40.0901C62.2703 40.7701 62.1303 41.4201 62.1303 42.0201C62.1303 42.5001 62.2703 42.8701 62.5303 43.1501C62.7903 43.4601 63.1003 43.6001 63.4403 43.6001C63.7803 43.6001 64.1203 43.5101 64.4603 43.3401C64.8303 43.2001 65.2003 42.9401 65.5103 42.6301ZM71.4903 34.2101L69.5903 40.8101C70.2403 39.8501 70.7503 39.1701 71.0603 38.8301C71.5103 38.3501 71.9103 38.0101 72.2203 37.8401C72.5603 37.6701 72.8703 37.5801 73.1603 37.5801C73.4203 37.5801 73.6403 37.6701 73.8403 37.8601C74.0103 38.0601 74.1003 38.3101 74.1003 38.6501C74.1003 38.9101 74.0403 39.2501 73.9003 39.6401L72.9103 42.7301C72.8003 43.0101 72.7703 43.1801 72.7703 43.3001C72.7703 43.3301 72.7703 43.3601 72.8303 43.4101C72.8603 43.4401 72.8903 43.4701 72.9403 43.4701C72.9903 43.4701 73.0503 43.4401 73.1103 43.3801C73.2503 43.2701 73.4203 43.0701 73.5903 42.8101C73.6503 42.7201 73.7303 42.6401 73.8203 42.5001L74.1003 42.6701C73.6703 43.3501 73.2803 43.8001 72.8803 44.0601C72.5103 44.3201 72.1403 44.4601 71.8003 44.4601C71.5203 44.4601 71.2603 44.3701 71.0903 44.2301C70.9203 44.0601 70.8303 43.8601 70.8303 43.6301C70.8303 43.4001 70.8903 43.0901 71.0303 42.7201L72.0203 39.5701C72.0803 39.3701 72.1103 39.2001 72.1103 39.1201C72.1103 39.0601 72.1103 39.0101 72.0503 38.9801C72.0203 38.9201 71.9603 38.9201 71.9103 38.9201C71.7403 38.9201 71.4803 39.0601 71.1403 39.3501C70.4903 39.9501 69.8403 40.9101 69.1803 42.1801L68.5303 44.3601H66.7003L69.1403 36.0801C69.2503 35.7401 69.3103 35.4801 69.3103 35.3101C69.3103 35.2001 69.2503 35.0801 69.1403 35.0301C69.0003 34.9401 68.7703 34.8901 68.4603 34.9201L68.5203 34.6101L71.0403 34.1801H71.4903V34.2101Z" fill="#221F20"/>
</g>
<defs>
<clipPath id="clip0_338_331">
<rect width="80.65" height="50.63" fill="white"/>
</clipPath>
</defs>
</svg>
