<svg width="58" height="40" viewBox="0 0 58 40" fill="none" xmlns="http://www.w3.org/2000/svg">
<g clip-path="url(#clip0_338_327)">
<path fill-rule="evenodd" clip-rule="evenodd" d="M5.84018 0.430054H52.0202C55.0002 0.430054 57.4302 2.87005 57.4302 5.84005V33.4201C57.4302 36.4001 54.9902 38.8301 52.0202 38.8301H5.84018C2.86018 38.8301 0.430176 36.3901 0.430176 33.4201V5.84005C0.430176 2.86005 2.86018 0.430054 5.84018 0.430054Z" fill="#FAB31E" stroke="white" stroke-width="0.8504" stroke-miterlimit="10"/>
<path d="M20.1304 18.7901H26.5904L25.9104 21.1101H19.4204L20.1304 18.7901ZM38.4404 14.5101L37.5004 15.4701C37.8104 15.9001 38.0104 16.2601 38.1204 16.6001C38.2304 16.9401 38.2904 17.3101 38.2904 17.6801C38.2904 18.8701 37.9504 20.0601 37.2404 21.2501C36.5304 22.4401 35.6504 23.4001 34.5504 24.1101C33.4704 24.8201 32.3704 25.1601 31.2904 25.1601C30.7804 25.1601 30.3504 25.0701 30.0104 24.9301C29.6404 24.8201 29.2404 24.5601 28.8504 24.1901L27.8904 25.1501L27.4904 24.7201L28.4504 23.7601C28.1704 23.3301 27.9704 22.9701 27.8504 22.6301C27.7104 22.2901 27.6504 21.8901 27.6504 21.4701C27.6504 20.2801 27.9904 19.0901 28.6404 17.9301C29.2904 16.7401 30.1704 15.8001 31.2504 15.1201C32.3304 14.4101 33.4004 14.0701 34.5104 14.0701C35.0504 14.0701 35.5304 14.1601 35.9804 14.3301C36.3204 14.4401 36.6904 14.7001 37.1104 15.0401L38.0204 14.0801L38.4404 14.5101ZM35.8004 16.3801C35.7104 15.7601 35.5704 15.3001 35.3204 15.0801C35.0604 14.8201 34.7504 14.7101 34.3304 14.7101C33.8204 14.7101 33.3904 14.8201 33.0504 15.0801C32.4304 15.5301 31.8304 16.4101 31.2904 17.6601C30.7204 18.9101 30.3504 20.3801 30.1604 22.0501L35.8004 16.3801ZM30.1904 22.8801C30.2804 23.4801 30.4504 23.9001 30.6704 24.1601C30.9304 24.4201 31.2704 24.5301 31.6604 24.5301C32.1704 24.5301 32.6004 24.3901 32.9404 24.1301C33.5904 23.6201 34.2204 22.6801 34.7804 21.3501C35.3504 20.0501 35.6904 18.6601 35.8004 17.2101L30.1904 22.8801Z" fill="black"/>
</g>
<defs>
<clipPath id="clip0_338_327">
<rect width="57.86" height="39.26" fill="white"/>
</clipPath>
</defs>
</svg>
