<svg width="58" height="40" viewBox="0 0 58 40" fill="none" xmlns="http://www.w3.org/2000/svg">
<g clip-path="url(#clip0_338_426)">
<path fill-rule="evenodd" clip-rule="evenodd" d="M5.84018 0.430054H52.0202C55.0002 0.430054 57.4302 2.87005 57.4302 5.84005V33.4201C57.4302 36.4001 54.9902 38.8301 52.0202 38.8301H5.84018C2.86018 38.8301 0.430176 36.3901 0.430176 33.4201V5.84005C0.430176 2.86005 2.86018 0.430054 5.84018 0.430054Z" fill="#F5C0C0" stroke="white" stroke-width="0.8504" stroke-miterlimit="10"/>
<path d="M20.4703 18.4801H26.9303L26.2503 20.8001H19.7603L20.4703 18.4801ZM30.7003 20.4401C30.6403 20.9201 30.6103 21.3201 30.6103 21.6301C30.6103 22.2001 30.7503 22.6201 31.0903 22.9601C31.4003 23.3001 31.8303 23.4701 32.3703 23.4701C32.9103 23.4701 33.4203 23.3601 33.9303 23.1301C34.4703 22.9001 35.0603 22.5301 35.7703 21.9701L36.1103 22.2501C35.2303 23.2101 34.4103 23.8901 33.6203 24.2901C32.8303 24.7201 31.9203 24.9101 30.9603 24.9101C29.7103 24.9101 28.8603 24.6301 28.3803 24.0301C27.9303 23.4301 27.6703 22.7501 27.6703 21.9601C27.6703 20.7701 28.0403 19.5501 28.7503 18.3301C29.4603 17.1401 30.3903 16.1501 31.6103 15.4401C32.8303 14.7001 34.0503 14.3301 35.3003 14.3301C35.9203 14.3301 36.3803 14.4701 36.6903 14.7601C37.0303 15.0701 37.1703 15.4401 37.1703 15.8901C37.1703 16.4301 37.0303 16.9401 36.7203 17.4501C36.2903 18.1601 35.7303 18.7001 35.0803 19.1201C34.4303 19.5501 33.7203 19.8901 32.9003 20.1101C32.3403 20.2701 31.6103 20.3801 30.7003 20.4401ZM30.8103 19.8701C31.4603 19.7801 31.9703 19.6401 32.3403 19.4701C32.6803 19.3301 33.0503 19.0401 33.3903 18.6801C33.7303 18.3401 34.0403 17.8601 34.3003 17.3201C34.5603 16.7501 34.6703 16.2401 34.6703 15.7601C34.6703 15.5301 34.6103 15.3901 34.5003 15.2501C34.3903 15.1401 34.2403 15.0801 34.0503 15.0801C33.7103 15.0801 33.3103 15.3401 32.8603 15.8201C32.0303 16.7201 31.3503 18.0901 30.8103 19.8701ZM42.2603 9.24011C42.7103 9.24011 43.0803 9.38011 43.3903 9.69011C43.7303 10.0301 43.8703 10.4001 43.8703 10.8501C43.8703 11.3001 43.7303 11.7001 43.3903 12.0101C43.0803 12.3201 42.7103 12.4901 42.2603 12.4901C41.8103 12.4901 41.4103 12.3201 41.1003 12.0101C40.7603 11.7001 40.6203 11.3001 40.6203 10.8501C40.6203 10.4001 40.7603 10.0301 41.1003 9.69011C41.4103 9.38011 41.8103 9.24011 42.2603 9.24011ZM43.3403 14.3401L40.7303 23.0101C40.2203 24.7701 39.6503 26.1801 39.0303 27.2301C38.6303 28.0001 38.0903 28.5301 37.4103 28.9301C36.7303 29.3301 36.0503 29.5301 35.3403 29.5301C34.7403 29.5301 34.3203 29.3901 34.0403 29.1601C33.7603 28.9001 33.6103 28.6201 33.6103 28.3401C33.6103 28.0001 33.7203 27.7401 33.9803 27.4901C34.2403 27.2601 34.5503 27.1501 34.9203 27.1501C35.2303 27.1501 35.4603 27.2101 35.6303 27.3801C35.8003 27.5501 35.8903 27.7501 35.8903 27.9801C35.8903 28.1801 35.7803 28.4101 35.5803 28.6301C35.4903 28.7201 35.4703 28.7701 35.4703 28.8301C35.4703 28.8901 35.5003 28.9201 35.5303 28.9701C35.5903 29.0001 35.6403 29.0301 35.7303 29.0301C36.0103 29.0301 36.2703 28.8601 36.4703 28.4601C36.6103 28.2301 36.8403 27.3001 37.1503 25.6801L39.6703 17.1501C39.8403 16.5301 39.9303 16.1601 39.9303 16.0201C39.9303 15.8501 39.8403 15.7101 39.6703 15.5701C39.5003 15.4601 39.2703 15.3701 38.9903 15.3701C38.9003 15.3701 38.7903 15.3701 38.6803 15.4001L38.7703 14.9501L42.6803 14.3501H43.3403V14.3401Z" fill="#221F20"/>
</g>
<defs>
<clipPath id="clip0_338_426">
<rect width="57.86" height="39.26" fill="white"/>
</clipPath>
</defs>
</svg>
