<svg width="64" height="45" viewBox="0 0 64 45" fill="none" xmlns="http://www.w3.org/2000/svg">
<g clip-path="url(#clip0_338_419)">
<path fill-rule="evenodd" clip-rule="evenodd" d="M5.84018 0.430054H52.0202C55.0002 0.430054 57.4302 2.87005 57.4302 5.84005V33.4201C57.4302 36.4001 54.9902 38.8301 52.0202 38.8301H5.84018C2.86018 38.8301 0.430176 36.3901 0.430176 33.4201V5.84005C0.430176 2.86005 2.86018 0.430054 5.84018 0.430054Z" fill="#FAB31E" stroke="white" stroke-width="0.8504" stroke-miterlimit="10"/>
<path d="M21.2 12.2201H27.63L26.95 14.5401H20.46L21.2 12.2201ZM28.52 9.10007L31.89 8.08007C32.17 8.42007 32.34 8.73007 32.46 9.04007C32.66 9.55007 32.8 10.2901 32.89 11.1901C33.06 13.0301 33.15 14.9601 33.2 17.0301C33.99 15.9801 34.9 14.5901 35.92 12.8901C36.23 12.3801 36.37 11.8701 36.37 11.4201C36.37 11.1401 36.2 10.8501 35.86 10.6001C35.49 10.3401 35.26 10.1501 35.18 10.0001C35.09 9.86007 35.04 9.66007 35.04 9.43007C35.04 9.06007 35.18 8.75007 35.47 8.47007C35.73 8.19007 36.07 8.07007 36.43 8.07007C36.83 8.07007 37.2 8.21007 37.48 8.52007C37.79 8.83007 37.93 9.20007 37.93 9.63007C37.93 10.1101 37.79 10.6801 37.5 11.3601C37.24 12.0101 36.59 13.1201 35.57 14.7001C34.27 16.7401 32.99 18.5001 31.71 20.0001C30.92 20.9401 30.26 21.6201 29.75 22.0401C29.27 22.4701 28.76 22.7801 28.22 23.0301C27.91 23.1701 27.6 23.2301 27.28 23.2301C26.85 23.2301 26.49 23.0901 26.2 22.8001C25.89 22.4901 25.75 22.1501 25.75 21.7501C25.75 21.3201 25.86 20.9801 26.15 20.7001C26.43 20.4201 26.75 20.2701 27.09 20.2701C27.54 20.2701 27.97 20.5301 28.34 20.9801C28.6 21.2901 28.82 21.4601 28.96 21.4601C29.13 21.4601 29.3 21.4001 29.47 21.3201C29.7 21.2101 30.01 20.9201 30.41 20.5001C30.47 19.5601 30.47 18.8801 30.47 18.4001C30.47 17.7801 30.44 16.8701 30.38 15.7401L30.21 11.5201C30.12 10.7501 29.98 10.1901 29.7 9.85007C29.5 9.59007 29.25 9.48007 28.91 9.48007C28.8 9.48007 28.65 9.48007 28.51 9.51007V9.10007H28.52Z" fill="#221F20"/>
<path d="M21.0303 28.1201V32.2601L22.0503 31.2701C22.2503 31.0701 22.3903 30.9301 22.4203 30.8401C22.4803 30.7501 22.5103 30.6701 22.5103 30.5801C22.5103 30.4901 22.4803 30.4101 22.4003 30.3501C22.3403 30.2901 22.2003 30.2601 22.0003 30.2401V30.0701H23.9603V30.2401C23.7603 30.2401 23.6203 30.3001 23.4803 30.3801C23.3403 30.4401 23.0503 30.6901 22.6603 31.0901L22.1803 31.5701L23.2003 33.0401C23.6303 33.6401 23.8503 33.9801 23.9403 34.0601C24.0503 34.1701 24.2003 34.2301 24.3403 34.2301V34.4001H22.1003V34.2301C22.2103 34.2301 22.2703 34.2301 22.3303 34.1701C22.3903 34.1401 22.3903 34.1101 22.3903 34.0601C22.3903 34.0001 22.3303 33.8601 22.2203 33.6601L21.3403 32.4101L21.0603 32.6701V33.4601C21.0603 33.8001 21.0903 34.0001 21.1703 34.0801C21.2303 34.1701 21.3403 34.1901 21.5403 34.2201V34.3901H19.3003V34.2201C19.5003 34.2201 19.6103 34.1601 19.7003 34.0501C19.7603 33.9901 19.7903 33.7901 19.7903 33.4501V29.0601C19.7903 28.7201 19.7603 28.5201 19.6803 28.4401C19.6203 28.3501 19.5103 28.3001 19.3103 28.2701V28.1001H21.0303V28.1201ZM27.0703 36.0601V35.8601C27.4403 35.7201 27.6903 35.5201 27.8403 35.2601C28.0103 35.0301 28.1003 34.7801 28.1003 34.5201C28.1003 34.4601 28.1003 34.4101 28.0703 34.3801C28.0403 34.3501 28.0103 34.3501 28.0103 34.3501C27.9803 34.3501 27.9503 34.3501 27.9203 34.3801C27.8103 34.4401 27.7203 34.4701 27.5803 34.4701C27.3803 34.4701 27.2403 34.3801 27.1003 34.2401C26.9903 34.1001 26.9003 33.9601 26.9003 33.7601C26.9003 33.5601 26.9903 33.3601 27.1303 33.2201C27.3003 33.0801 27.4703 33.0001 27.6903 33.0001C27.9503 33.0001 28.1703 33.0901 28.3703 33.3101C28.5703 33.5101 28.6503 33.7901 28.6503 34.1301C28.6503 34.5801 28.5103 34.9801 28.2503 35.3201C28.0103 35.6601 27.6103 35.9101 27.0703 36.0601ZM34.4403 30.1301H35.8903V30.6401H35.0703C35.2103 30.8101 35.3303 30.9201 35.3803 31.0701C35.4703 31.2401 35.4903 31.4101 35.4903 31.5801C35.4903 31.8901 35.4003 32.1501 35.2303 32.3701C35.0603 32.5901 34.8303 32.8001 34.5203 32.9101C34.2403 33.0501 33.9803 33.1101 33.7503 33.1101C33.7203 33.1101 33.5203 33.1101 33.1803 33.0801C33.0403 33.0801 32.9203 33.1401 32.8403 33.2201C32.7303 33.3101 32.7003 33.4201 32.7003 33.5301C32.7003 33.6401 32.7303 33.7601 32.8103 33.8101C32.9003 33.9001 33.0403 33.9201 33.2403 33.9201H34.0303C34.6803 33.9201 35.1403 33.9801 35.3603 34.1201C35.7303 34.3201 35.9003 34.6301 35.9003 35.0301C35.9003 35.2901 35.8103 35.5401 35.6403 35.7401C35.5003 35.9701 35.2703 36.1401 35.0203 36.2201C34.6203 36.3601 34.1703 36.4501 33.6303 36.4501C33.2603 36.4501 32.8903 36.4201 32.5803 36.3401C32.2703 36.2501 32.0103 36.1701 31.9003 36.0301C31.7603 35.8901 31.6703 35.7501 31.6703 35.6001C31.6703 35.4601 31.7303 35.3401 31.8403 35.2301C31.9503 35.1201 32.1503 35.0001 32.4403 34.9501C32.0403 34.7501 31.8403 34.4701 31.8403 34.1301C31.8403 33.9001 31.9003 33.7001 32.0703 33.5101C32.2403 33.3101 32.5003 33.1101 32.8603 32.9701C32.4303 32.8301 32.1203 32.6301 31.9503 32.3701C31.7503 32.1101 31.6703 31.8301 31.6703 31.5201C31.6703 31.0901 31.8403 30.7301 32.1803 30.4101C32.5503 30.1001 32.9703 29.9601 33.5103 29.9601C33.8203 29.9601 34.1303 30.0201 34.4403 30.1301ZM33.6203 30.2501C33.4503 30.2501 33.3103 30.3401 33.1903 30.5301C33.0503 30.7001 32.9903 31.0701 32.9903 31.6401C32.9903 32.0901 33.0503 32.4101 33.1603 32.5801C33.3003 32.7501 33.4403 32.8401 33.6103 32.8401C33.7803 32.8401 33.9503 32.7501 34.0603 32.6101C34.1703 32.4401 34.2303 32.1001 34.2303 31.6201C34.2303 31.0501 34.1703 30.6801 34.0303 30.4901C33.9603 30.3301 33.8203 30.2501 33.6203 30.2501ZM33.3603 35.0601C33.0503 35.0601 32.8503 35.0901 32.7403 35.1201C32.5703 35.2301 32.4803 35.3501 32.4803 35.5201C32.4803 35.6901 32.5703 35.8301 32.7403 35.9501C32.9403 36.0901 33.2803 36.1501 33.7603 36.1501C34.2103 36.1501 34.5303 36.0901 34.7803 35.9801C35.0403 35.8701 35.1503 35.7001 35.1503 35.5001C35.1503 35.4101 35.1203 35.3601 35.0903 35.3001C35.0003 35.2101 34.8603 35.1601 34.6903 35.1001C34.5303 35.0601 34.1003 35.0601 33.3603 35.0601Z" fill="#221F20"/>
<path fill-rule="evenodd" clip-rule="evenodd" d="M46.2303 22.79H60.2603C61.9303 22.79 63.2903 24.15 63.2903 25.79V41.27C63.2903 42.94 61.9303 44.3 60.2603 44.3H46.2303C44.5603 44.3 43.2003 42.94 43.2003 41.27V35.63L40.2803 33.53L43.2003 31.46V25.8C43.2003 24.15 44.5603 22.79 46.2303 22.79Z" fill="#FAB31E" stroke="white" stroke-width="0.8504" stroke-miterlimit="10"/>
<path d="M48.3003 34.4401H52.5503L52.1003 35.9701H47.8203L48.3003 34.4401ZM56.1303 28.3201C56.4403 28.3201 56.7003 28.4301 56.9003 28.6301C57.1003 28.8601 57.2103 29.0801 57.2103 29.4001C57.2103 29.7101 57.1003 29.9701 56.9003 30.1701C56.7003 30.3701 56.4203 30.4801 56.1303 30.4801C55.8503 30.4801 55.5903 30.3701 55.3603 30.1701C55.1603 29.9701 55.0503 29.7201 55.0503 29.4001C55.0503 29.0901 55.1603 28.8601 55.3603 28.6301C55.5603 28.4301 55.8103 28.3201 56.1303 28.3201ZM56.7203 31.6901L55.1003 36.8501C55.0103 37.1301 54.9603 37.3301 54.9603 37.4201C54.9603 37.4801 54.9903 37.5301 55.0203 37.5901C55.0803 37.6501 55.1303 37.6801 55.1603 37.6801C55.2503 37.6801 55.3303 37.6201 55.4203 37.5401C55.6503 37.3701 55.9003 37.0301 56.1903 36.5201L56.4503 36.6901C55.7103 38.0201 54.9203 38.7001 54.1003 38.7001C53.7603 38.7001 53.5003 38.5901 53.3303 38.4201C53.1303 38.2501 53.0503 38.0201 53.0503 37.7701C53.0503 37.5701 53.0803 37.3401 53.1603 37.0601L54.2903 33.5701C54.4003 33.2301 54.4603 32.9701 54.4603 32.8001C54.4603 32.6901 54.4003 32.6001 54.2903 32.5201C54.2003 32.4301 54.0603 32.4101 53.8903 32.4101C53.8003 32.4101 53.7203 32.4101 53.6103 32.4101L53.7003 32.1001L56.2803 31.7001H56.7203V31.6901Z" fill="#221F20"/>
</g>
<defs>
<clipPath id="clip0_338_419">
<rect width="63.72" height="44.73" fill="white"/>
</clipPath>
</defs>
</svg>
