<svg width="57" height="39" viewBox="0 0 57 39" fill="none" xmlns="http://www.w3.org/2000/svg">
<path fill-rule="evenodd" clip-rule="evenodd" d="M6.25107 1H51.1386C52.53 0.999999 53.8645 1.55223 54.8491 2.53541C55.8336 3.51859 56.3877 4.85233 56.3897 6.24373V33.0573C56.3877 34.4494 55.8339 35.7839 54.8495 36.7682C53.8652 37.7526 52.5307 38.3064 51.1386 38.3084H6.25107C4.859 38.3064 3.5245 37.7526 2.54015 36.7682C1.5558 35.7839 1.00194 34.4494 1 33.0573V6.24373C1.00195 4.85233 1.55604 3.51859 2.5406 2.53541C3.52516 1.55223 4.85967 0.999999 6.25107 1Z" fill="#FFAD00" stroke="#F2F2F2" stroke-width="1.11" stroke-miterlimit="10"/>
<path d="M20.4912 18.5526H26.7558L26.0875 20.7999H19.7788L20.4912 18.5526ZM37.6031 14.6748L35.4953 21.8207L35.2677 22.6947C35.2472 22.7765 35.2349 22.8601 35.2309 22.9444C35.2363 23.0303 35.2729 23.1112 35.3338 23.172C35.3562 23.1986 35.3844 23.2197 35.4162 23.2337C35.448 23.2477 35.4826 23.2543 35.5174 23.2528C35.7501 23.2149 35.9627 23.0983 36.1196 22.9223C36.3941 22.6032 36.6515 22.2698 36.8907 21.9235L37.2653 22.1292C36.8686 22.9066 36.3161 23.5941 35.6422 24.1488C35.1084 24.5688 34.4486 24.7965 33.7695 24.7951C33.4307 24.8144 33.0972 24.7041 32.8367 24.4866C32.7333 24.3826 32.652 24.2587 32.5977 24.1224C32.5434 23.986 32.5173 23.8401 32.5209 23.6935C32.5752 23.1598 32.6935 22.6345 32.8735 22.1292L33.1452 21.2552C32.5356 22.4035 31.716 23.4274 30.729 24.2737C30.3327 24.609 29.8307 24.7937 29.3115 24.7951C29.0204 24.8128 28.7302 24.746 28.4762 24.6027C28.2221 24.4594 28.0148 24.2456 27.8794 23.9872C27.567 23.4266 27.4098 22.7928 27.4241 22.1512C27.47 20.9379 27.7888 19.7505 28.3568 18.6774C28.9092 17.4391 29.7534 16.353 30.8171 15.5121C31.4559 14.9224 32.2777 14.5699 33.1452 14.5133C33.5044 14.4984 33.8551 14.625 34.122 14.8658C34.4316 15.222 34.6217 15.6664 34.6654 16.1363L35.062 14.8217L37.6031 14.6748ZM34.144 16.7165C34.1848 16.2822 34.0898 15.846 33.8723 15.468C33.8158 15.3819 33.7383 15.3117 33.647 15.2642C33.5557 15.2166 33.4537 15.1932 33.3508 15.1963C33.0711 15.208 32.8073 15.3293 32.6164 15.5341C31.9175 16.3141 31.3808 17.2253 31.0374 18.2147C30.5317 19.3215 30.2473 20.5166 30.2002 21.7326C30.1784 22.0175 30.2451 22.3022 30.3911 22.5478C30.432 22.6235 30.4909 22.6879 30.5626 22.7353C30.6344 22.7827 30.7168 22.8116 30.8024 22.8195C30.9997 22.8024 31.191 22.743 31.3633 22.6455C31.5357 22.5479 31.685 22.4144 31.8012 22.254C32.3078 21.6608 32.7349 21.004 33.0718 20.3005C33.706 19.2085 34.064 17.9782 34.1146 16.7165H34.144Z" fill="#221F20"/>
</svg>
