<svg width="67" height="56" viewBox="0 0 67 56" fill="none" xmlns="http://www.w3.org/2000/svg">
<path fill-rule="evenodd" clip-rule="evenodd" d="M5.54762 0.402954H49.5254C52.3604 0.402954 54.6629 2.9573 54.6629 6.07287V45.7263C54.6629 48.849 52.3604 51.3962 49.5254 51.3962H5.54762C2.71267 51.3962 0.410156 48.849 0.410156 45.7263V6.07287C0.410156 2.9573 2.71267 0.402954 5.54762 0.402954Z" fill="#FFAD00"/>
<path d="M5.54782 0H49.5256V0.813074H5.54782V0ZM49.5256 0C50.2699 0.00980474 51.0041 0.174123 51.6816 0.482535C52.3592 0.790947 52.9652 1.23673 53.4614 1.79164L52.8498 2.34568C52.435 1.87036 51.9245 1.4881 51.3516 1.22397C50.7787 0.959843 50.1564 0.819818 49.5256 0.813074V0ZM53.4614 1.79164C54.5122 2.96872 55.0868 4.49504 55.0732 6.07285H54.2529C54.257 4.69407 53.7434 3.36399 52.8139 2.34568L53.4614 1.79164ZM55.0732 6.07285V45.7262H54.2529V6.07285H55.0732ZM55.0732 45.7262C55.0828 47.2969 54.5084 48.815 53.4614 49.9859L52.8498 49.4606C53.7786 48.439 54.2919 47.107 54.2889 45.7262H55.0732ZM53.4614 49.9859C52.9687 50.5456 52.3635 50.9951 51.6854 51.305C51.0072 51.615 50.2712 51.7784 49.5256 51.7847V50.986C50.1556 50.9788 50.7771 50.8393 51.3498 50.5765C51.9225 50.3138 52.4335 49.9336 52.8498 49.4606L53.4614 49.9859ZM49.5256 51.7847H5.54782V50.986H49.5256V51.7847ZM5.54782 51.7847C4.80218 51.7784 4.06625 51.615 3.38806 51.305C2.70987 50.9951 2.10468 50.5456 1.61198 49.9859L2.22359 49.4606C2.6399 49.9336 3.15096 50.3138 3.72363 50.5765C4.2963 50.8393 4.91778 50.9788 5.54782 50.986V51.7847ZM1.61198 49.9859C0.565012 48.815 -0.00942132 47.2969 0.000237728 45.7262H0.820493C0.817445 47.107 1.33074 48.439 2.25956 49.4606L1.61198 49.9859ZM0.000237728 45.7262V6.07285H0.820493V45.7262H0.000237728ZM0.000237728 6.07285C-0.0134123 4.49504 0.561194 2.96872 1.61198 1.79164L2.22359 2.34568C1.29403 3.36399 0.780479 4.69407 0.784525 6.07285H0.000237728ZM1.61198 1.79164C2.10819 1.23673 2.71426 0.790947 3.39177 0.482535C4.06929 0.174123 4.80348 0.00980474 5.54782 0V0.813074C4.91701 0.819818 4.29475 0.959843 3.72185 1.22397C3.14896 1.4881 2.63837 1.87036 2.22359 2.34568L1.61198 1.79164Z" fill="#F2F2F2"/>
<path d="M19.6864 8.99417H25.824L25.1692 11.1959H18.9885L19.6864 8.99417ZM33.1632 5.03674C33.7116 5.04169 34.2512 5.17475 34.739 5.4253C35.2092 5.66192 35.594 6.03917 35.8399 6.50459C36.0952 6.96728 36.2289 7.48717 36.2284 8.0156C36.2051 9.22091 35.8731 10.4001 35.2643 11.4406C34.6572 12.5383 33.7869 13.468 32.7315 14.146C31.7991 14.7673 30.7075 15.107 29.5872 15.1246C29.1769 15.1489 28.7662 15.085 28.3827 14.9373C27.9992 14.7896 27.6518 14.5615 27.3638 14.2683C26.84 13.7042 26.5562 12.9585 26.5723 12.1889C26.5577 11.2375 26.7595 10.2951 27.1624 9.43308C27.5265 8.61141 28.0305 7.85914 28.6518 7.20973C29.2437 6.56472 29.9484 6.03315 30.7312 5.64115C31.4821 5.25721 32.3127 5.05511 33.156 5.05114L33.1632 5.03674ZM32.7171 5.60518C32.3821 5.59074 32.0545 5.7068 31.8033 5.92897C31.033 6.83353 30.4617 7.89018 30.1268 9.03015C29.546 10.4302 29.2289 11.9256 29.1914 13.4409C29.1854 13.5864 29.2091 13.7317 29.261 13.8677C29.313 14.0038 29.3921 14.1279 29.4936 14.2324C29.5833 14.3353 29.6938 14.4181 29.8178 14.4751C29.9419 14.5322 30.0766 14.5623 30.2132 14.5633C30.4762 14.5583 30.7298 14.4645 30.9327 14.2971C31.4099 13.8034 31.7949 13.2283 32.0695 12.599C32.5361 11.6808 32.9051 10.7161 33.1704 9.7209C33.4421 8.76542 33.5872 7.77844 33.6021 6.78521C33.616 6.63534 33.5996 6.48422 33.5538 6.34083C33.5081 6.19744 33.434 6.06472 33.3359 5.95055C33.2678 5.85218 33.1761 5.77238 33.0693 5.71835C32.9625 5.66433 32.844 5.63779 32.7243 5.64115L32.7171 5.60518ZM9.20283 24.8167H15.3404L14.6857 27.0184H8.50488L9.20283 24.8167ZM18.9309 26.6731C18.8726 27.0446 18.8389 27.4196 18.8302 27.7955C18.8108 28.2696 18.9788 28.7323 19.2979 29.0835C19.4594 29.2402 19.6512 29.3625 19.8615 29.4429C20.0717 29.5233 20.2961 29.5601 20.5211 29.5512C21.035 29.5509 21.5429 29.4405 22.0105 29.2274C22.6345 28.9384 23.2176 28.5682 23.7446 28.1265L24.0684 28.3855C23.406 29.1796 22.6037 29.8454 21.7011 30.3499C20.9099 30.7431 20.0375 30.9451 19.154 30.9399C18.7581 31.0042 18.3528 30.9787 17.9681 30.8653C17.5835 30.7519 17.2292 30.5536 16.9314 30.2849C16.6337 30.0162 16.4002 29.684 16.2481 29.3129C16.096 28.9418 16.0293 28.5413 16.0528 28.1409C16.0719 26.9165 16.4171 25.7193 17.0529 24.6728C17.7221 23.5309 18.6704 22.5777 19.8087 21.9026C20.8507 21.2394 22.0563 20.8782 23.2913 20.8592C23.7739 20.827 24.2505 20.9816 24.6224 21.291C24.7698 21.4238 24.8861 21.5874 24.9632 21.7702C25.0403 21.9529 25.0763 22.1504 25.0685 22.3487C25.0622 22.8741 24.9156 23.3883 24.644 23.8381C24.2464 24.4738 23.7163 25.0162 23.0898 25.4283C22.4499 25.8436 21.7479 26.1545 21.0103 26.3493C20.3272 26.5139 19.6318 26.6222 18.9309 26.6731ZM19.0316 26.1262C19.5259 26.0703 20.0101 25.9469 20.4707 25.7593C20.8466 25.5849 21.186 25.3407 21.4709 25.0397C21.8276 24.6542 22.117 24.2116 22.3271 23.7302C22.5551 23.2659 22.6802 22.7578 22.694 22.2407C22.6981 22.0711 22.642 21.9054 22.5358 21.7731C22.4171 21.6674 22.2628 21.6108 22.104 21.6148C21.8749 21.652 21.6555 21.7349 21.459 21.8585C21.2625 21.9821 21.0928 22.1439 20.96 22.3343C20.0438 23.465 19.3835 24.7807 19.0245 26.191L19.0316 26.1262ZM31.3932 24.8167H37.5308L36.876 27.0184H30.6953L31.3932 24.8167ZM41.1213 26.6731C41.0629 27.0446 41.0293 27.4196 41.0205 27.7955C41.0012 28.2696 41.1692 28.7323 41.4882 29.0835C41.6503 29.2395 41.8421 29.3614 42.0523 29.4417C42.2624 29.5221 42.4866 29.5593 42.7114 29.5512C43.2256 29.5534 43.734 29.4429 44.2009 29.2274C44.8276 28.9435 45.4113 28.5729 45.9349 28.1265L46.2587 28.3855C45.6013 29.1845 44.798 29.8511 43.8915 30.3499C43.1005 30.7438 42.2279 30.9459 41.3443 30.9399C40.9017 30.99 40.4535 30.939 40.0334 30.7906C39.6134 30.6423 39.2325 30.4006 38.9195 30.0836C38.4711 29.5366 38.2314 28.8482 38.2431 28.1409C38.2622 26.9165 38.6074 25.7193 39.2433 24.6728C39.9125 23.5309 40.8607 22.5777 41.9991 21.9026C43.0432 21.2381 44.2514 20.8769 45.4888 20.8592C45.7271 20.8404 45.9667 20.8689 46.1939 20.9429C46.4211 21.017 46.6314 21.1353 46.8128 21.291C46.9629 21.4227 47.0825 21.5856 47.1633 21.7682C47.2441 21.9509 47.284 22.149 47.2805 22.3487C47.2662 22.8759 47.1123 23.3899 46.8343 23.8381C46.4368 24.4738 45.9066 25.0162 45.2802 25.4283C44.6422 25.8471 43.9396 26.1583 43.2007 26.3493C42.5179 26.5157 41.8223 26.624 41.1213 26.6731ZM41.222 26.1262C41.7162 26.0703 42.2004 25.9469 42.6611 25.7593C43.037 25.5849 43.3764 25.3407 43.6612 25.0397C44.0297 24.6636 44.3207 24.2186 44.5175 23.7302C44.7454 23.2659 44.8706 22.7578 44.8844 22.2407C44.8885 22.0711 44.8324 21.9054 44.7261 21.7731C44.6684 21.7191 44.6005 21.6773 44.5263 21.6501C44.4521 21.6229 44.3733 21.6109 44.2944 21.6148C44.0653 21.652 43.8459 21.7349 43.6494 21.8585C43.4529 21.9821 43.2832 22.1439 43.1503 22.3343C42.2342 23.465 41.5738 24.7807 41.2148 26.191L41.222 26.1262ZM44.244 30.0189C43.5994 30.3228 43.0126 30.7368 42.51 31.2421C42.0079 31.6909 41.629 32.2606 41.4091 32.897C41.3667 33.0147 41.3448 33.1389 41.3443 33.264C41.3393 33.4306 41.3886 33.5943 41.4846 33.7305C41.5806 33.8668 41.7182 33.9681 41.8768 34.0195C42.0154 34.0558 42.158 34.0751 42.3013 34.077C42.6919 34.0655 43.0702 33.9378 43.3878 33.7101L43.5101 33.9763C42.847 34.7274 41.9295 35.2067 40.9342 35.3218C40.6993 35.3376 40.4639 35.2998 40.2458 35.2113C40.0277 35.1228 39.8325 34.9859 39.675 34.811C39.5071 34.6097 39.42 34.3533 39.4304 34.0914C39.4698 33.4854 39.7251 32.9136 40.1499 32.4797C41.096 31.3382 42.342 30.4835 43.7476 30.0117L44.244 30.0189Z" fill="#221F20"/>
<path d="M34.674 38.056H62.8869C63.6502 38.056 64.3822 38.3593 64.922 38.899C65.4618 39.4388 65.765 40.1708 65.765 40.9342V52.5762C65.765 53.3395 65.4618 54.0716 64.922 54.6113C64.3822 55.1511 63.6502 55.4543 62.8869 55.4543H34.674C33.9107 55.4543 33.1786 55.1511 32.6389 54.6113C32.0991 54.0716 31.7959 53.3395 31.7959 52.5762V40.9342C31.7959 40.1708 32.0991 39.4388 32.6389 38.899C33.1786 38.3593 33.9107 38.056 34.674 38.056Z" fill="#FFAD00" stroke="#F2F2F2" stroke-width="0.85" stroke-miterlimit="10"/>
<path d="M36.1857 45.3162H40.7763L40.287 46.9711H35.6748L36.1857 45.3162ZM45.6835 42.3589L44.007 47.7266C43.9434 47.8906 43.9022 48.0624 43.8847 48.2374C43.8852 48.2586 43.8915 48.2791 43.9029 48.2969C43.9143 48.3147 43.9304 48.3289 43.9494 48.3382C43.9684 48.3568 43.9909 48.3715 44.0156 48.3814C44.0403 48.3912 44.0667 48.3961 44.0933 48.3957C44.3164 48.3957 44.6402 48.1943 45.0287 47.7626C45.73 46.9424 46.327 46.0385 46.806 45.0715L47.5615 42.6683L49.5402 42.5819L47.986 47.8273C47.8931 48.0716 47.8256 48.3247 47.7845 48.5828C47.7893 48.6289 47.8097 48.672 47.8425 48.7047C47.8752 48.7375 47.9183 48.758 47.9644 48.7627C48.0478 48.7627 48.1289 48.7349 48.1947 48.6836C48.4681 48.4123 48.7095 48.1105 48.9142 47.7841L49.1804 47.9712C48.4609 49.252 47.655 49.8852 46.7556 49.8852C46.4757 49.8985 46.2003 49.8117 45.9785 49.6405C45.8897 49.5569 45.8199 49.4552 45.774 49.3422C45.7281 49.2292 45.707 49.1076 45.7123 48.9858C45.7272 48.6176 45.7976 48.2537 45.9209 47.9065L46.3095 46.5825C45.6331 47.5611 45.1438 48.2374 44.8704 48.5828C44.5342 48.991 44.1331 49.341 43.6832 49.6189C43.4075 49.7868 43.0922 49.8787 42.7694 49.8852C42.6348 49.8891 42.501 49.8642 42.3769 49.812C42.2528 49.7599 42.1413 49.6818 42.0499 49.583C41.9508 49.4797 41.8731 49.3579 41.8212 49.2246C41.7694 49.0912 41.7444 48.9489 41.7477 48.8059C41.7586 48.4359 41.8341 48.0706 41.9707 47.7266L42.9493 44.5822C43.0604 44.2458 43.1352 43.8985 43.1723 43.5461C43.1729 43.4725 43.153 43.4003 43.1148 43.3374C43.0649 43.2751 43.0007 43.2258 42.9277 43.1935C42.7836 43.148 42.6325 43.1285 42.4816 43.136L42.5391 42.8266L45.2158 42.3589H45.6835ZM54.3179 42.3589L53.2602 45.8054C53.7067 45.0527 54.2044 44.3315 54.7496 43.6468C55.0644 43.2427 55.4407 42.8907 55.8649 42.6035C56.1398 42.4488 56.4488 42.3648 56.7643 42.3589C56.9067 42.3507 57.0491 42.3756 57.1802 42.4318C57.3113 42.488 57.4275 42.5739 57.5198 42.6827C57.6703 42.8919 57.7486 43.1445 57.7429 43.4022C57.7161 43.7843 57.6411 44.1614 57.5198 44.5247L57.1528 45.791C57.6371 45.0572 58.1683 44.3554 58.743 43.69C59.1089 43.2527 59.544 42.8784 60.031 42.5819C60.2828 42.453 60.5611 42.384 60.844 42.3805C60.9805 42.3772 61.116 42.4047 61.2405 42.4607C61.365 42.5167 61.4754 42.5999 61.5636 42.7042C61.6655 42.8102 61.7454 42.9354 61.7985 43.0725C61.8517 43.2096 61.877 43.3559 61.873 43.5029C61.8536 43.9437 61.7637 44.3785 61.6067 44.7909L60.6497 47.669C60.5469 47.9329 60.4768 48.2083 60.4411 48.4893C60.4469 48.5326 60.4616 48.5742 60.4843 48.6116C60.5168 48.6448 60.5602 48.6652 60.6066 48.6692C60.66 48.6685 60.7113 48.6479 60.7505 48.6116C60.9838 48.4228 61.1896 48.2024 61.3621 47.9568C61.3981 47.8921 61.4844 47.7913 61.5636 47.669L61.8514 47.8345C61.5584 48.3946 61.1486 48.8854 60.6497 49.2736C60.3013 49.5446 59.881 49.7072 59.4409 49.7413C59.154 49.7481 58.8739 49.6539 58.6494 49.475C58.5618 49.3985 58.491 49.3047 58.4415 49.1994C58.3919 49.0941 58.3647 48.9797 58.3616 48.8634C58.3905 48.5098 58.4654 48.1615 58.5847 47.8273L59.5633 44.7477C59.6514 44.4867 59.7211 44.2198 59.7719 43.949C59.7701 43.9253 59.7635 43.9022 59.7523 43.8811C59.7412 43.8601 59.7258 43.8415 59.7072 43.8267C59.6709 43.8019 59.6287 43.787 59.5848 43.7835C59.5018 43.7874 59.4196 43.8019 59.3402 43.8267C59.1509 43.9474 58.9727 44.0847 58.8077 44.2369C58.4512 44.6156 58.1196 45.017 57.8148 45.4385C57.4703 45.8477 57.1689 46.2913 56.9154 46.7624C56.727 47.1718 56.5707 47.5952 56.4477 48.0288L55.9584 49.6621H53.9581L55.4691 44.5031C55.5319 44.3166 55.573 44.1234 55.5914 43.9275C55.5932 43.9084 55.5901 43.8892 55.5826 43.8716C55.5751 43.854 55.5633 43.8386 55.5483 43.8267C55.5051 43.8267 55.4835 43.7835 55.4475 43.7835C55.2389 43.7835 54.9367 44.0282 54.505 44.5391C53.82 45.4298 53.2383 46.3954 52.7709 47.4172L52.1017 49.6621H50.0726L51.6052 44.5822C51.7378 44.2434 51.8202 43.8871 51.8499 43.5245C51.8433 43.449 51.8159 43.3767 51.7707 43.3158C51.7124 43.2533 51.6412 43.2042 51.5621 43.1719C51.3692 43.1245 51.1705 43.1051 50.9721 43.1144L51.0368 42.805L53.807 42.3373L54.3179 42.3589Z" fill="#221F20"/>
</svg>
