<svg width="57" height="39" viewBox="0 0 57 39" fill="none" xmlns="http://www.w3.org/2000/svg">
<path fill-rule="evenodd" clip-rule="evenodd" d="M6.25107 1H51.1386C52.53 0.999999 53.8645 1.55223 54.8491 2.53541C55.8336 3.51859 56.3877 4.85233 56.3897 6.24373V33.0573C56.3877 34.4494 55.8339 35.7839 54.8495 36.7682C53.8652 37.7526 52.5307 38.3064 51.1386 38.3084H6.25107C4.859 38.3064 3.5245 37.7526 2.54015 36.7682C1.5558 35.7839 1.00194 34.4494 1 33.0573V6.24373C1.00195 4.85233 1.55604 3.51859 2.5406 2.53541C3.52516 1.55223 4.85967 0.999999 6.25107 1V1Z" fill="#F5C0C0" stroke="#F2F2F2" stroke-width="1.11" stroke-miterlimit="10"/>
<path d="M20.4907 18.5526H26.7553L26.087 20.7999H19.7783L20.4907 18.5526ZM37.6026 14.6748L35.4949 21.8207L35.2672 22.6947C35.2467 22.7765 35.2344 22.8601 35.2304 22.9444C35.2358 23.0303 35.2724 23.1112 35.3333 23.172C35.3557 23.1986 35.3839 23.2197 35.4157 23.2337C35.4475 23.2477 35.4821 23.2543 35.5169 23.2528C35.7496 23.2149 35.9622 23.0983 36.1191 22.9223C36.3936 22.6032 36.651 22.2698 36.8902 21.9235L37.2648 22.1292C36.8681 22.9066 36.3156 23.5941 35.6417 24.1488C35.108 24.5688 34.4482 24.7965 33.769 24.7951C33.4302 24.8144 33.0967 24.7041 32.8362 24.4866C32.7328 24.3826 32.6515 24.2587 32.5972 24.1224C32.5429 23.986 32.5168 23.8401 32.5205 23.6935C32.5747 23.1598 32.693 22.6345 32.873 22.1292L33.1447 21.2552C32.5351 22.4035 31.7155 23.4274 30.7285 24.2737C30.3322 24.609 29.8302 24.7937 29.3111 24.7951C29.0199 24.8128 28.7298 24.746 28.4757 24.6027C28.2216 24.4594 28.0143 24.2456 27.8789 23.9872C27.5665 23.4266 27.4093 22.7928 27.4236 22.1512C27.4695 20.9379 27.7883 19.7505 28.3563 18.6774C28.9087 17.4391 29.7529 16.353 30.8166 15.5121C31.4554 14.9224 32.2772 14.5699 33.1447 14.5133C33.5039 14.4984 33.8546 14.625 34.1215 14.8658C34.4312 15.222 34.6213 15.6664 34.665 16.1363L35.0615 14.8217L37.6026 14.6748ZM34.1435 16.7165C34.1843 16.2822 34.0894 15.846 33.8718 15.468C33.8153 15.3819 33.7378 15.3117 33.6465 15.2642C33.5552 15.2166 33.4532 15.1932 33.3503 15.1963C33.0707 15.208 32.8068 15.3293 32.6159 15.5341C31.917 16.3141 31.3803 17.2253 31.0369 18.2147C30.5312 19.3215 30.2468 20.5166 30.1997 21.7326C30.1779 22.0175 30.2446 22.3022 30.3906 22.5478C30.4315 22.6235 30.4904 22.6879 30.5621 22.7353C30.6339 22.7827 30.7163 22.8116 30.8019 22.8195C30.9992 22.8024 31.1905 22.743 31.3629 22.6455C31.5352 22.5479 31.6845 22.4144 31.8007 22.254C32.3073 21.6608 32.7344 21.004 33.0713 20.3005C33.7055 19.2085 34.0635 17.9782 34.1141 16.7165H34.1435Z" fill="#221F20"/>
</svg>
