<svg width="57" height="39" viewBox="0 0 57 39" fill="none" xmlns="http://www.w3.org/2000/svg">
<path fill-rule="evenodd" clip-rule="evenodd" d="M6.25107 1H51.1386C52.53 0.999999 53.8645 1.55223 54.8491 2.53541C55.8336 3.51859 56.3877 4.85233 56.3897 6.24373V33.0573C56.3877 34.4494 55.8339 35.7839 54.8495 36.7682C53.8652 37.7526 52.5307 38.3064 51.1386 38.3084H6.25107C4.859 38.3064 3.5245 37.7526 2.54015 36.7682C1.5558 35.7839 1.00194 34.4494 1 33.0573V6.24373C1.00195 4.85233 1.55604 3.51859 2.5406 2.53541C3.52516 1.55223 4.85967 0.999999 6.25107 1V1Z" fill="#F5C0C0" stroke="#F2F2F2" stroke-width="1.13" stroke-miterlimit="10"/>
<path d="M20.4907 18.5526H26.7553L26.087 20.8H19.7783L20.4907 18.5526ZM30.42 20.4474C30.3602 20.8315 30.3258 21.2192 30.3172 21.6078C30.3067 21.8442 30.3435 22.0803 30.4255 22.3022C30.5075 22.5242 30.633 22.7276 30.7946 22.9004C30.9587 23.0614 31.1543 23.1869 31.3691 23.269C31.5839 23.3512 31.8134 23.3882 32.0431 23.3777C32.5651 23.3747 33.0814 23.2699 33.5633 23.0693C34.1987 22.7626 34.7933 22.3777 35.3333 21.9236L35.6638 22.1953C34.9857 23.0018 34.167 23.6786 33.2475 24.193C32.4412 24.5977 31.5499 24.8042 30.6477 24.7952C30.1978 24.8449 29.7425 24.7943 29.3146 24.647C28.8866 24.4996 28.4967 24.2593 28.1727 23.9433C27.7076 23.3833 27.4622 22.6733 27.4824 21.9456C27.4964 20.6951 27.8492 19.4717 28.5032 18.4057C29.1839 17.2366 30.1522 16.2607 31.316 15.5709C32.3797 14.8952 33.6105 14.529 34.8706 14.5133C35.3618 14.4821 35.8468 14.6368 36.2293 14.9467C36.3787 15.0846 36.4967 15.253 36.5753 15.4406C36.6538 15.6281 36.6911 15.8304 36.6846 16.0336C36.6796 16.5711 36.5272 17.0969 36.2439 17.5538C35.8512 18.2104 35.3105 18.7662 34.665 19.1769C34.0058 19.5932 33.2913 19.9147 32.5425 20.1316C31.846 20.301 31.1356 20.4067 30.42 20.4474V20.4474ZM30.5228 19.904C31.0279 19.8376 31.5218 19.7042 31.9917 19.5074C32.3819 19.3241 32.7296 19.0615 33.0125 18.7362C33.3741 18.3436 33.6693 17.8946 33.8865 17.4069C34.111 16.9386 34.2337 16.428 34.2463 15.9087C34.254 15.7337 34.1935 15.5626 34.0774 15.4314C33.9593 15.3226 33.8046 15.2623 33.6441 15.2624C33.1736 15.3447 32.7543 15.6084 32.4764 15.9969C31.5385 17.1491 30.8642 18.4927 30.5008 19.9333L30.5228 19.904Z" fill="#221F20"/>
</svg>
