<svg width="58" height="40" viewBox="0 0 58 40" fill="none" xmlns="http://www.w3.org/2000/svg">
<g clip-path="url(#clip0_410_255)">
<path fill-rule="evenodd" clip-rule="evenodd" d="M5.83969 0.430054H52.0197C54.9997 0.430054 57.4297 2.87005 57.4297 5.84005V33.4201C57.4297 36.4001 54.9897 38.8301 52.0197 38.8301H5.83969C2.85969 38.8301 0.429688 36.3901 0.429688 33.4201V5.84005C0.429688 2.86005 2.85969 0.430054 5.83969 0.430054Z" fill="#FAB31E" stroke="white" stroke-width="0.8504" stroke-miterlimit="10"/>
<path d="M20.4698 18.48H26.9298L26.2498 20.8H19.7598L20.4698 18.48ZM38.0998 14.49L35.9198 21.86L35.6898 22.77C35.6898 22.88 35.6598 22.97 35.6598 23.03C35.6598 23.12 35.6898 23.17 35.7698 23.26C35.8298 23.32 35.8798 23.35 35.9398 23.35C36.1098 23.35 36.3098 23.24 36.5598 23.01C36.6698 22.9 36.9598 22.58 37.3498 21.99L37.7498 22.19C37.2098 23.15 36.6698 23.83 36.0798 24.29C35.4798 24.72 34.8298 24.94 34.1498 24.94C33.7198 24.94 33.4098 24.83 33.1898 24.63C32.9898 24.4 32.8798 24.15 32.8798 23.81C32.8798 23.53 32.9898 22.99 33.2198 22.19L33.4998 21.31C32.6498 22.76 31.8298 23.8 31.0298 24.43C30.5498 24.77 30.0698 24.94 29.5598 24.94C28.8798 24.94 28.3998 24.66 28.0898 24.12C27.7798 23.55 27.6398 22.93 27.6398 22.22C27.6398 21.17 27.9498 19.98 28.5798 18.65C29.2298 17.29 30.0798 16.21 31.0998 15.39C31.9798 14.71 32.7698 14.37 33.5098 14.37C33.9398 14.37 34.2798 14.48 34.5298 14.71C34.7898 14.97 34.9598 15.39 35.0698 16.04L35.4998 14.68L38.0998 14.49ZM34.5498 16.61C34.5498 16.01 34.4398 15.59 34.2698 15.31C34.1298 15.14 33.9598 15.05 33.7298 15.05C33.4698 15.05 33.2498 15.14 32.9898 15.36C32.5098 15.81 31.9398 16.75 31.3698 18.14C30.7998 19.56 30.4898 20.75 30.4898 21.77C30.4898 22.17 30.5798 22.45 30.6898 22.62C30.8298 22.79 30.9698 22.88 31.1198 22.88C31.4598 22.88 31.7998 22.68 32.1398 22.31C32.6498 21.74 33.0798 21.09 33.4698 20.3C34.1898 18.91 34.5498 17.69 34.5498 16.61Z" fill="#221F20"/>
</g>
<defs>
<clipPath id="clip0_410_255">
<rect width="57.86" height="39.26" fill="white"/>
</clipPath>
</defs>
</svg>
