<svg width="59" height="40" viewBox="0 0 59 40" fill="none" xmlns="http://www.w3.org/2000/svg">
<path fill-rule="evenodd" clip-rule="evenodd" d="M6.41 1H52.59C55.57 1 58 3.44 58 6.41V33.99C58 36.97 55.56 39.4 52.59 39.4H6.41C3.43 39.4 1 36.96 1 33.99V6.41C1 3.43 3.43 1 6.41 1Z" fill="#FAB31E" stroke="white" stroke-width="0.8504" stroke-miterlimit="10"/>
<path d="M20.4705 27.73H26.9005L26.2205 30.05H19.7305L20.4705 27.73ZM33.8505 23.59L31.4705 31.1C31.3605 31.44 31.3005 31.7 31.3005 31.84C31.3005 31.9 31.3305 31.95 31.3905 31.98C31.4505 32.04 31.5005 32.07 31.5905 32.07C31.9305 32.07 32.3805 31.79 32.9205 31.16C33.7105 30.28 34.5605 29.03 35.4405 27.39L36.4605 23.99L39.2705 23.9L37.0905 31.24C36.8905 31.86 36.8105 32.23 36.8105 32.32C36.8105 32.38 36.8405 32.43 36.9005 32.49C36.9605 32.58 37.0105 32.6 37.0705 32.6C37.1805 32.6 37.2705 32.54 37.3805 32.46C37.6405 32.26 38.0005 31.84 38.4305 31.21L38.8305 31.47C37.7805 33.26 36.6505 34.16 35.4305 34.16C34.9505 34.16 34.5805 34.05 34.3205 33.82C34.0605 33.59 33.9205 33.28 33.9205 32.91C33.9205 32.51 34.0305 32 34.2005 31.38L34.7705 29.51C33.8305 30.9 33.1305 31.83 32.7005 32.32C32.0505 33.06 31.4805 33.54 31.0305 33.79C30.5805 34.05 30.1505 34.16 29.7305 34.16C29.3605 34.16 29.0205 34.02 28.7405 33.73C28.4605 33.45 28.3105 33.08 28.3105 32.65C28.3105 32.25 28.4205 31.74 28.6205 31.12L30.0105 26.7C30.2105 25.96 30.3205 25.48 30.3205 25.23C30.3205 25.12 30.2905 25.03 30.2305 24.95C30.1705 24.86 30.0905 24.78 29.9505 24.75C29.8405 24.69 29.6405 24.66 29.3305 24.66L29.4405 24.23L33.1805 23.58H33.8505V23.59Z" fill="#221F20"/>
<path d="M20.6979 9.95742H26.8356L26.1808 12.1592H20L20.6979 9.95742ZM34.1748 6C34.7231 6.00495 35.2628 6.13801 35.7506 6.38855C36.2208 6.62518 36.6056 7.00243 36.8514 7.46785C37.1067 7.93054 37.2404 8.45043 37.24 8.97886C37.2166 10.1842 36.8847 11.3634 36.2758 12.4038C35.6688 13.5016 34.7984 14.4313 33.7431 15.1093C32.8106 15.7306 31.719 16.0703 30.5987 16.0878C30.1885 16.1121 29.7778 16.0483 29.3943 15.9006C29.0108 15.7529 28.6633 15.5248 28.3754 15.2316C27.8515 14.6675 27.5677 13.9218 27.5839 13.1521C27.5693 12.2007 27.771 11.2584 28.1739 10.3963C28.5381 9.57467 29.042 8.8224 29.6633 8.17299C30.2553 7.52798 30.96 6.9964 31.7428 6.6044C32.4936 6.22047 33.3242 6.01837 34.1676 6.01439L34.1748 6ZM33.7287 6.56844C33.3936 6.55399 33.0661 6.67006 32.8149 6.89222C32.0445 7.79678 31.4733 8.85344 31.1384 9.9934C30.5575 11.3935 30.2404 12.8888 30.203 14.4041C30.1969 14.5497 30.2206 14.6949 30.2726 14.831C30.3245 14.9671 30.4037 15.0911 30.5052 15.1956C30.5948 15.2986 30.7053 15.3813 30.8294 15.4384C30.9534 15.4955 31.0882 15.5255 31.2247 15.5266C31.4877 15.5216 31.7413 15.4278 31.9442 15.2604C32.4214 14.7667 32.8064 14.1916 33.0811 13.5623C33.5476 12.644 33.9166 11.6794 34.182 10.6842C34.4536 9.72868 34.5987 8.7417 34.6137 7.74847C34.6275 7.5986 34.6111 7.44747 34.5654 7.30409C34.5196 7.1607 34.4455 7.02798 34.3475 6.91381C34.2793 6.81544 34.1877 6.73563 34.0809 6.68161C33.9741 6.62758 33.8555 6.60104 33.7359 6.6044L33.7287 6.56844Z" fill="#221F20"/>
</svg>
