<svg width="59" height="46" viewBox="0 0 59 46" fill="none" xmlns="http://www.w3.org/2000/svg">
<path fill-rule="evenodd" clip-rule="evenodd" d="M6.41 1H52.59C55.57 1 58 3.79583 58 7.19896V38.801C58 42.2156 55.56 45 52.59 45H6.41C3.43 45 1 42.2042 1 38.801V7.19896C1 3.78438 3.43 1 6.41 1Z" fill="#F5C0C0" stroke="white" stroke-width="0.8504" stroke-miterlimit="10"/>
<path d="M20.7315 30.1376H27.3875L26.6869 32.4286H20L20.7315 30.1376ZM28.2736 27.027L31.7768 26.0197C32.0446 26.3555 32.2404 26.6912 32.3641 26.9677C32.5701 27.501 32.7144 28.2021 32.8071 29.1205C32.9513 30.9078 33.075 32.8433 33.1265 34.8578C33.9405 33.8506 34.8781 32.4779 35.929 30.7696C36.2484 30.266 36.3927 29.792 36.3927 29.3377C36.3927 29.0612 36.2175 28.7749 35.8363 28.528C35.4551 28.2712 35.249 28.0836 35.1666 27.9355C35.0532 27.7676 35.0223 27.5997 35.0223 27.3726C35.0223 27.0072 35.1666 26.6715 35.4345 26.4246C35.723 26.1481 36.0527 26 36.4545 26C36.8563 26 37.2169 26.1679 37.5363 26.474C37.8248 26.7801 38 27.1455 38 27.5405C38 28.0441 37.8558 28.607 37.557 29.2488C37.2685 29.8907 36.5884 31.0165 35.5684 32.5767C34.1981 34.5912 32.8792 36.3292 31.5913 37.7808C30.7464 38.7288 30.0767 39.4003 29.5718 39.8249C29.0773 40.2199 28.5209 40.5556 27.9954 40.8025C27.6451 40.9407 27.3257 41 27.0063 41C26.5633 41 26.2129 40.8618 25.8935 40.5754C25.605 40.2693 25.4299 39.9335 25.4299 39.5089C25.4299 39.1139 25.5741 38.7781 25.842 38.5016C26.1305 38.2251 26.4602 38.077 26.8311 38.077C27.2948 38.077 27.7378 38.3041 28.1191 38.7781C28.3869 39.0843 28.5827 39.2521 28.7579 39.2521C28.933 39.2521 29.1082 39.1929 29.2524 39.1139C29.4894 38.9756 29.8088 38.7189 30.2209 38.3041C30.2828 37.3759 30.3137 36.7044 30.3137 36.2304C30.3137 35.6182 30.2828 34.7196 30.2209 33.5741L30.0149 29.4068C29.9531 28.6465 29.7779 28.0935 29.5203 27.7874C29.3143 27.5306 29.0258 27.3924 28.7064 27.3924C28.5621 27.3924 28.4179 27.422 28.2633 27.422V27.027H28.2736Z" fill="black"/>
<path d="M22.7164 13.8499H29.0597L28.3881 16.0587H22L22.7164 13.8499ZM34.3881 5C34.8507 5 35.2388 5.15881 35.5373 5.49086C35.8358 5.7796 36 6.14052 36 6.6025C36 7.00674 35.8358 7.3821 35.5373 7.67084C35.194 8.00289 34.8209 8.16169 34.3881 8.16169C33.9254 8.16169 33.5373 8.00289 33.2388 7.67084C32.9403 7.3821 32.7761 7.02118 32.7761 6.6025C32.7761 6.15496 32.9403 5.7796 33.2388 5.49086C33.5373 5.17324 33.9254 5 34.3881 5ZM35.2836 9.87969L32.8657 17.3292C32.7313 17.7767 32.6567 18.0654 32.6567 18.1954C32.6567 18.282 32.7015 18.3542 32.7463 18.3975C32.8358 18.4841 32.8806 18.5274 32.9552 18.5274C33.0896 18.5274 33.209 18.4841 33.3433 18.3686C33.6418 18.0799 34.0597 17.589 34.4925 16.8961L34.8806 17.0982C33.7761 19.0183 32.597 20 31.3731 20C30.8657 20 30.4776 19.8701 30.2239 19.6246C29.9254 19.3792 29.806 19.0472 29.806 18.6429C29.806 18.3975 29.8507 18.0654 29.9701 17.6612L31.6567 12.5938C31.8209 12.1463 31.9104 11.7709 31.9104 11.5255C31.9104 11.3667 31.8209 11.1935 31.6567 11.078C31.5224 10.9913 31.3134 10.9192 31.0597 10.9192C30.9254 10.9192 30.806 10.9192 30.6418 10.9192L30.7761 10.5149L34.6269 9.89413H35.2836V9.87969Z" fill="black"/>
</svg>
