<svg width="59" height="40" viewBox="0 0 59 40" fill="none" xmlns="http://www.w3.org/2000/svg">
<path fill-rule="evenodd" clip-rule="evenodd" d="M6.41 1H52.59C55.57 1 58 3.44 58 6.41V33.99C58 36.97 55.56 39.4 52.59 39.4H6.41C3.43 39.4 1 36.96 1 33.99V6.41C1 3.43 3.43 1 6.41 1Z" fill="#FAB31E" stroke="white" stroke-width="0.8504" stroke-miterlimit="10"/>
<path d="M20.4705 10.41H26.9005L26.2205 12.71H19.7305L20.4705 10.41ZM30.7005 12.33C30.6105 12.81 30.5905 13.21 30.5905 13.52C30.5905 14.09 30.7605 14.54 31.0705 14.85C31.4105 15.19 31.8405 15.36 32.3705 15.36C32.8805 15.36 33.4205 15.25 33.9305 15.02C34.4405 14.79 35.0605 14.42 35.7405 13.86L36.0805 14.14C35.2305 15.1 34.4105 15.78 33.6105 16.21C32.7905 16.61 31.9105 16.81 30.9205 16.81C29.7005 16.81 28.8505 16.53 28.3705 15.93C27.8905 15.33 27.6605 14.65 27.6605 13.89C27.6605 12.67 28.0005 11.45 28.7105 10.23C29.4205 9.03998 30.3805 8.04998 31.6005 7.33998C32.8205 6.59998 34.0405 6.22998 35.2605 6.22998C35.8805 6.22998 36.3705 6.36998 36.6805 6.67998C36.9905 6.95998 37.1605 7.32998 37.1605 7.78998C37.1605 8.32998 36.9905 8.83998 36.6805 9.34998C36.2505 10.06 35.7205 10.63 35.0605 11.05C34.4105 11.48 33.6705 11.79 32.8805 12.01C32.3505 12.16 31.6105 12.28 30.7005 12.33ZM30.7905 11.77C31.4405 11.68 31.9505 11.54 32.3205 11.4C32.6905 11.23 33.0305 10.95 33.4005 10.61C33.7405 10.24 34.0205 9.78998 34.2805 9.21998C34.5405 8.64998 34.6805 8.13998 34.6805 7.65998C34.6805 7.45998 34.6205 7.28998 34.4805 7.17998C34.3705 7.06998 34.2205 6.97998 34.0505 6.97998C33.6805 6.97998 33.2805 7.23998 32.8305 7.71998C32.0305 8.61998 31.3505 9.97998 30.7905 11.77ZM20.4705 27.73H26.9005L26.2205 30.05H19.7305L20.4705 27.73ZM33.8505 23.59L31.4705 31.1C31.3605 31.44 31.3005 31.7 31.3005 31.84C31.3005 31.9 31.3305 31.95 31.3905 31.98C31.4505 32.04 31.5005 32.07 31.5905 32.07C31.9305 32.07 32.3805 31.79 32.9205 31.16C33.7105 30.28 34.5605 29.03 35.4405 27.39L36.4605 23.99L39.2705 23.9L37.0905 31.24C36.8905 31.86 36.8105 32.23 36.8105 32.32C36.8105 32.38 36.8405 32.43 36.9005 32.49C36.9605 32.58 37.0105 32.6 37.0705 32.6C37.1805 32.6 37.2705 32.54 37.3805 32.46C37.6405 32.26 38.0005 31.84 38.4305 31.21L38.8305 31.47C37.7805 33.26 36.6505 34.16 35.4305 34.16C34.9505 34.16 34.5805 34.05 34.3205 33.82C34.0605 33.59 33.9205 33.28 33.9205 32.91C33.9205 32.51 34.0305 32 34.2005 31.38L34.7705 29.51C33.8305 30.9 33.1305 31.83 32.7005 32.32C32.0505 33.06 31.4805 33.54 31.0305 33.79C30.5805 34.05 30.1505 34.16 29.7305 34.16C29.3605 34.16 29.0205 34.02 28.7405 33.73C28.4605 33.45 28.3105 33.08 28.3105 32.65C28.3105 32.25 28.4205 31.74 28.6205 31.12L30.0105 26.7C30.2105 25.96 30.3205 25.48 30.3205 25.23C30.3205 25.12 30.2905 25.03 30.2305 24.95C30.1705 24.86 30.0905 24.78 29.9505 24.75C29.8405 24.69 29.6405 24.66 29.3305 24.66L29.4405 24.23L33.1805 23.58H33.8505V23.59Z" fill="#221F20"/>
</svg>
