<svg width="70" height="65" viewBox="0 0 70 65" fill="none" xmlns="http://www.w3.org/2000/svg">
<path fill-rule="evenodd" clip-rule="evenodd" d="M6.32304 0.577393H54.2384C55.7237 0.57947 57.1474 1.17094 58.1969 2.22191C59.2464 3.27288 59.8359 4.69742 59.8359 6.18267V56.5832C59.8359 58.0677 59.2461 59.4915 58.1964 60.5412C57.1467 61.5909 55.723 62.1806 54.2384 62.1806H6.32304C4.83851 62.1806 3.41478 61.5909 2.36506 60.5412C1.31533 59.4915 0.725586 58.0677 0.725586 56.5832V6.18267C0.725584 4.69742 1.31508 3.27288 2.36458 2.22191C3.41408 1.17094 4.83779 0.57947 6.32304 0.577393Z" fill="#FAB31E" stroke="#F8F8F8" stroke-width="0.85" stroke-miterlimit="10"/>
<path d="M22.0017 14.0928H28.6889L27.999 16.4917H21.2178L22.0017 14.0928ZM29.5983 10.8472L33.1104 9.78101C33.3532 10.0844 33.5488 10.4227 33.6905 10.7845C33.9394 11.5165 34.0896 12.2784 34.1374 13.0501C34.2942 14.9394 34.4039 16.9699 34.4666 19.0944C35.4842 17.7089 36.4263 16.2696 37.2889 14.7826C37.5797 14.3302 37.7423 13.8072 37.7592 13.2696C37.742 13.094 37.6823 12.9251 37.5853 12.7776C37.4884 12.6302 37.3571 12.5084 37.2026 12.4229C36.9441 12.2508 36.7117 12.0422 36.5128 11.8036C36.4203 11.6245 36.3745 11.425 36.3795 11.2235C36.3794 10.845 36.5282 10.4816 36.7936 10.2117C37.0591 9.94188 37.42 9.78718 37.7984 9.78101C38.007 9.78391 38.2129 9.82839 38.404 9.91185C38.5952 9.99531 38.7678 10.1161 38.9117 10.2671C39.0584 10.417 39.1736 10.5949 39.2503 10.7901C39.3271 10.9854 39.3639 11.1941 39.3585 11.4038C39.3383 12.027 39.1944 12.6399 38.9352 13.2069C38.3454 14.412 37.6776 15.5773 36.9361 16.6955C35.7202 18.6071 34.3849 20.44 32.9379 22.1832C32.3153 22.9339 31.6394 23.6387 30.9153 24.292C30.4397 24.6992 29.9125 25.0418 29.3474 25.3112C29.041 25.4567 28.7067 25.5343 28.3674 25.5385C27.9448 25.5433 27.537 25.383 27.2307 25.0917C26.9428 24.8044 26.7778 24.4165 26.7704 24.0099C26.7631 23.6033 26.9141 23.2097 27.1915 22.9123C27.3182 22.7743 27.472 22.6641 27.6434 22.5885C27.8147 22.513 27.9999 22.4737 28.1872 22.4733C28.4443 22.4874 28.6946 22.5605 28.919 22.6869C29.1433 22.8133 29.3355 22.9897 29.4807 23.2023C29.7237 23.5394 29.9432 23.7119 30.1235 23.7119C30.2968 23.7127 30.4681 23.6753 30.6252 23.6022C30.9842 23.3596 31.3131 23.0754 31.6052 22.7555C31.6444 21.7991 31.6679 21.0621 31.6679 20.5761C31.6679 19.9332 31.6679 19.0082 31.5817 17.8009L31.3778 13.4186C31.3691 12.8054 31.1929 12.2063 30.8683 11.686C30.7723 11.5607 30.6471 11.4609 30.5036 11.3953C30.3601 11.3297 30.2026 11.3003 30.0451 11.3097C29.9042 11.2987 29.7627 11.2987 29.6218 11.3097L29.5983 10.8472ZM22.0017 35.1498H28.6889L27.999 37.5487H21.2178L22.0017 35.1498ZM32.6243 37.1646C32.5608 37.5694 32.5241 37.9779 32.5146 38.3876C32.4918 38.9044 32.6751 39.4091 33.0241 39.7908C33.2002 39.9616 33.4091 40.0948 33.6382 40.1824C33.8673 40.27 34.1118 40.3102 34.3569 40.3004C34.9166 40.2979 35.4695 40.1777 35.9797 39.9476C36.6565 39.6273 37.2911 39.2244 37.869 38.7482L38.2218 39.0382C37.498 39.8991 36.6241 40.6215 35.6426 41.1706C34.7818 41.6027 33.8304 41.823 32.8673 41.8134C31.5817 41.8134 30.688 41.4999 30.2019 40.8805C29.7168 40.2856 29.456 39.5393 29.465 38.7717C29.4925 37.4354 29.8768 36.1308 30.5782 34.993C31.3051 33.753 32.3288 32.7131 33.5572 31.967C34.6981 31.2514 36.0129 30.861 37.3594 30.8381C37.8893 30.7983 38.4143 30.9639 38.8254 31.3006C38.9866 31.4465 39.1137 31.6261 39.1977 31.8266C39.2817 32.0271 39.3205 32.2436 39.3115 32.4609C39.3036 33.0307 39.1439 33.5882 38.8489 34.0758C38.4072 34.7638 37.8313 35.3558 37.1556 35.8162C36.4561 36.2626 35.6919 36.5984 34.89 36.8118C34.1457 36.9912 33.3879 37.1092 32.6243 37.1646V37.1646ZM32.7106 36.5688C33.2504 36.5157 33.7791 36.3809 34.2785 36.169C34.6876 35.9613 35.0566 35.6826 35.3682 35.3458C35.7551 34.9273 36.0703 34.4479 36.3011 33.9269C36.5481 33.4205 36.6844 32.8673 36.7009 32.3041C36.7072 32.1165 36.646 31.9329 36.5284 31.7867C36.3973 31.6748 36.2304 31.6136 36.0581 31.6142C35.8075 31.6521 35.5675 31.7413 35.3531 31.8762C35.1386 32.0111 34.9543 32.1888 34.8116 32.3981C33.8137 33.6336 33.0872 35.0653 32.6792 36.6001L32.7106 36.5688Z" fill="#221F20"/>
<path d="M27.5843 50.6016H29.0973V51.1347H28.2272C28.3667 51.2519 28.4813 51.3959 28.5642 51.5581C28.6409 51.7251 28.6785 51.9074 28.674 52.0912C28.6746 52.3748 28.5809 52.6506 28.4075 52.8751C28.2263 53.1236 27.9792 53.3165 27.6941 53.4317C27.4484 53.5485 27.1819 53.6151 26.9101 53.6277H26.33C26.2652 53.6244 26.2004 53.6345 26.1396 53.6574C26.0789 53.6804 26.0236 53.7156 25.9772 53.761C25.8833 53.8553 25.8275 53.9809 25.8204 54.1138C25.8205 54.1688 25.8325 54.2232 25.8555 54.2733C25.8785 54.3233 25.912 54.3679 25.9537 54.4038C26.0861 54.4828 26.2388 54.5209 26.3927 54.5136H27.2158C27.6952 54.4734 28.177 54.5515 28.6191 54.7409C28.7898 54.831 28.9309 54.9684 29.0254 55.1367C29.12 55.3049 29.164 55.4969 29.1522 55.6895C29.1582 55.9558 29.0724 56.216 28.9092 56.4264C28.7398 56.6505 28.5079 56.8196 28.2428 56.9125C27.4326 57.1936 26.5579 57.2318 25.7263 57.0222C25.4612 56.9843 25.2102 56.879 24.9973 56.7165C24.8762 56.598 24.8035 56.4387 24.7934 56.2696C24.7909 56.1958 24.8035 56.1223 24.8304 56.0535C24.8574 55.9847 24.8982 55.9222 24.9502 55.8698C25.1328 55.7287 25.3443 55.6297 25.5695 55.5798C25.3903 55.517 25.2346 55.4006 25.1238 55.2463C25.013 55.092 24.9524 54.9073 24.9502 54.7174C24.9603 54.4803 25.0454 54.2524 25.1932 54.0667C25.4165 53.8386 25.683 53.6574 25.9772 53.5336C25.6156 53.4299 25.2968 53.2128 25.0678 52.9143C24.8724 52.661 24.77 52.3482 24.7777 52.0284C24.7835 51.8125 24.8338 51.6 24.9255 51.4044C25.0173 51.2088 25.1485 51.0342 25.3108 50.8917C25.6948 50.5645 26.1864 50.3914 26.6906 50.4057C27.004 50.4081 27.3135 50.4748 27.6 50.6016H27.5843ZM26.7612 50.7114C26.6658 50.7167 26.5734 50.7461 26.4925 50.7968C26.4116 50.8475 26.3449 50.9179 26.2986 51.0015C26.1247 51.3619 26.0541 51.7635 26.0948 52.1617C26.0645 52.4988 26.1355 52.8373 26.2986 53.1338C26.3423 53.2143 26.4068 53.2815 26.4855 53.3284C26.5641 53.3753 26.6539 53.4002 26.7455 53.4004C26.839 53.3997 26.9308 53.3748 27.0119 53.3281C27.093 53.2814 27.1606 53.2145 27.208 53.1338C27.3759 52.822 27.4468 52.4671 27.4118 52.1147C27.4513 51.709 27.3723 51.3005 27.1845 50.9387C27.1386 50.8685 27.0758 50.8108 27.0018 50.7711C26.9279 50.7314 26.8451 50.7108 26.7612 50.7114V50.7114ZM26.4789 55.6895C26.2577 55.6698 26.0349 55.702 25.8282 55.7836C25.7492 55.8163 25.6816 55.8717 25.6341 55.9429C25.5866 56.0141 25.5614 56.0978 25.5617 56.1834C25.5694 56.275 25.6 56.3632 25.6507 56.4399C25.7014 56.5167 25.7705 56.5794 25.8518 56.6224C26.1805 56.7906 26.5504 56.8614 26.9179 56.8263C27.274 56.836 27.6285 56.7747 27.9606 56.6459C28.2115 56.5127 28.3447 56.3559 28.3447 56.1364C28.3425 56.0652 28.3178 55.9966 28.2742 55.9404C28.1666 55.8347 28.0248 55.7708 27.8744 55.7601C27.4123 55.6948 26.9452 55.6712 26.4789 55.6895V55.6895ZM32.2332 56.74V56.5283C32.555 56.4129 32.8303 56.1954 33.0171 55.909C33.186 55.6821 33.2792 55.4079 33.2837 55.1251C33.2844 55.0765 33.2677 55.0292 33.2366 54.9918C33.2267 54.9875 33.2161 54.9852 33.2053 54.9852C33.1945 54.9852 33.1838 54.9875 33.1739 54.9918C33.1431 54.9835 33.1106 54.9835 33.0798 54.9918C32.9822 55.0552 32.8667 55.0855 32.7506 55.078C32.6576 55.0775 32.5657 55.0577 32.4807 55.0199C32.3957 54.9822 32.3194 54.9272 32.2567 54.8585C32.1221 54.7191 32.0439 54.5348 32.0372 54.3411C32.0491 54.1303 32.1408 53.932 32.2937 53.7864C32.4466 53.6408 32.6492 53.5588 32.8603 53.5572C32.9946 53.5564 33.1275 53.584 33.2504 53.638C33.3733 53.692 33.4835 53.7713 33.5737 53.8707C33.7764 54.1197 33.8772 54.4363 33.8559 54.7566C33.8626 55.1928 33.7155 55.6174 33.4405 55.9561C33.1336 56.3486 32.7023 56.6251 32.2175 56.74H32.2332ZM38.8106 48.5163V52.8046L39.8532 51.7854C39.9968 51.646 40.1304 51.4967 40.253 51.3386C40.2949 51.2473 40.3189 51.1488 40.3236 51.0485C40.3261 51.0071 40.3188 50.9657 40.3025 50.9276C40.2862 50.8895 40.2612 50.8557 40.2295 50.829C40.0972 50.7632 39.9535 50.7233 39.8062 50.7114V50.5389H41.8288V50.7114C41.6501 50.71 41.4743 50.756 41.3192 50.8447C41.0229 51.0736 40.7402 51.3197 40.4725 51.5816L39.9865 52.0676L41.0527 53.6355C41.2885 54.0016 41.5505 54.35 41.8366 54.6782C41.9472 54.7837 42.0862 54.8545 42.2364 54.882V55.031H39.9316V54.882C39.9711 54.8864 40.0111 54.8824 40.0489 54.8702C40.0867 54.858 40.1216 54.838 40.1511 54.8115C40.1714 54.7953 40.1882 54.7752 40.2003 54.7522C40.2125 54.7293 40.2197 54.7041 40.2217 54.6782C40.1814 54.5326 40.1121 54.3966 40.0179 54.2784L39.132 52.9692L38.8419 53.2593V54.0432C38.8173 54.2613 38.8469 54.4821 38.9281 54.686C39.0336 54.7948 39.1766 54.8593 39.328 54.8664V55.0153H37.0153V54.8664C37.0921 54.8606 37.1671 54.8397 37.2357 54.8047C37.3044 54.7697 37.3653 54.7214 37.4151 54.6625C37.483 54.4636 37.5071 54.2523 37.4857 54.0432V49.4727C37.51 49.2521 37.4804 49.0288 37.3994 48.8221C37.3524 48.7358 37.2191 48.6888 37.0153 48.6653V48.4928L38.8106 48.5163Z" fill="#221F20"/>
<path fill-rule="evenodd" clip-rule="evenodd" d="M51.322 41.6959H65.9036C66.7353 41.6959 67.5329 42.0263 68.121 42.6144C68.7091 43.2025 69.0394 44.0001 69.0394 44.8317V60.8793C69.0394 61.711 68.7091 62.5086 68.121 63.0967C67.5329 63.6848 66.7353 64.0151 65.9036 64.0151H51.322C50.4904 64.0151 49.6928 63.6848 49.1047 63.0967C48.5166 62.5086 48.1862 61.711 48.1862 60.8793V55.0153L45.1602 52.8595L48.1862 50.7036V44.8317C48.1862 44.0001 48.5166 43.2025 49.1047 42.6144C49.6928 42.0263 50.4904 41.6959 51.322 41.6959Z" fill="#FAB31E" stroke="#F8F8F8" stroke-width="0.85" stroke-miterlimit="10"/>
<path d="M53.4783 53.7846H57.8998L57.4294 55.3525H52.9844L53.4783 53.7846ZM61.5844 47.4502C61.8746 47.4512 62.1541 47.5602 62.3683 47.7559C62.4748 47.861 62.5593 47.9861 62.617 48.124C62.6746 48.262 62.7043 48.41 62.7043 48.5595C62.7043 48.709 62.6746 48.8571 62.617 48.995C62.5593 49.1329 62.4748 49.258 62.3683 49.3631C62.2652 49.4645 62.1426 49.544 62.0078 49.5965C61.873 49.6491 61.729 49.6737 61.5844 49.6688C61.4397 49.6746 61.2954 49.6505 61.1605 49.5979C61.0255 49.5452 60.903 49.4653 60.8004 49.3631C60.5893 49.1489 60.4709 48.8602 60.4709 48.5595C60.4709 48.2588 60.5893 47.9701 60.8004 47.7559C60.9046 47.6559 61.0274 47.5774 61.1619 47.525C61.2965 47.4725 61.44 47.4471 61.5844 47.4502ZM62.2116 50.9388L60.5417 56.2932C60.464 56.4842 60.4113 56.6845 60.3849 56.889C60.3834 56.9189 60.389 56.9487 60.4012 56.976C60.4135 57.0032 60.4321 57.0272 60.4555 57.0458C60.4729 57.0722 60.4961 57.0944 60.5232 57.1107C60.5503 57.1269 60.5808 57.1369 60.6123 57.1399C60.6985 57.1399 60.7612 57.0929 60.8553 57.0066C61.1698 56.6898 61.446 56.3372 61.6784 55.9561L61.9215 56.1129C61.1584 57.4927 60.3431 58.1826 59.4755 58.1826C59.19 58.1954 58.9101 58.1003 58.6916 57.916C58.5958 57.8292 58.5202 57.7224 58.4701 57.6032C58.42 57.484 58.3966 57.3553 58.4015 57.2261C58.4115 56.9832 58.4563 56.7429 58.5348 56.5127L59.695 52.8673C59.7904 52.6158 59.8485 52.3517 59.8675 52.0834C59.87 52.0254 59.8568 51.9678 59.8292 51.9167C59.8016 51.8656 59.7606 51.823 59.7107 51.7933C59.5896 51.7007 59.4398 51.6535 59.2874 51.66H59.0052L59.0914 51.3543L61.7568 50.931L62.2116 50.9388Z" fill="#221F20"/>
</svg>
