<svg width="73" height="48" viewBox="0 0 73 48" fill="none" xmlns="http://www.w3.org/2000/svg">
<path fill-rule="evenodd" clip-rule="evenodd" d="M6.41 1H52.59C55.57 1 58 3.44 58 6.41V33.99C58 36.97 55.56 39.4 52.59 39.4H6.41C3.43 39.4 1 36.96 1 33.99V6.41C1 3.43 3.43 1 6.41 1Z" fill="#FAB31E" stroke="white" stroke-width="0.8504" stroke-miterlimit="10"/>
<path fill-rule="evenodd" clip-rule="evenodd" d="M43.54 25.29H69.45C71.12 25.29 72.48 26.65 72.48 28.32V43.8C72.48 45.47 71.12 46.83 69.45 46.83H43.54C41.9 46.83 40.51 45.47 40.51 43.8V28.32C40.51 26.65 41.9 25.29 43.54 25.29Z" fill="#FAB31E" stroke="white" stroke-width="0.8504" stroke-miterlimit="10"/>
<path d="M48.0501 34.93H54.4801L53.8001 37.25H47.3101L48.0501 34.93ZM65.6801 30.93L63.5001 38.3L63.2701 39.21C63.2401 39.3 63.2401 39.38 63.2401 39.44C63.2401 39.53 63.2701 39.61 63.3301 39.67C63.3901 39.76 63.4401 39.78 63.5301 39.78C63.6701 39.78 63.9001 39.67 64.1501 39.41C64.2601 39.32 64.5201 38.98 64.9401 38.42L65.3101 38.62C64.8001 39.56 64.2301 40.26 63.6401 40.69C63.0401 41.14 62.4201 41.37 61.7401 41.37C61.3101 41.37 61.0001 41.26 60.7801 41.03C60.5501 40.83 60.4401 40.55 60.4401 40.24C60.4401 39.93 60.5501 39.42 60.8101 38.62L61.0701 37.71C60.2201 39.18 59.4001 40.23 58.6001 40.83C58.1501 41.2 57.6601 41.37 57.1301 41.37C56.4501 41.37 55.9701 41.09 55.6601 40.52C55.3801 39.98 55.2101 39.33 55.2101 38.65C55.2101 37.6 55.5201 36.41 56.1701 35.05C56.8201 33.69 57.6401 32.61 58.6901 31.79C59.5401 31.11 60.3301 30.77 61.1001 30.77C61.5301 30.77 61.8401 30.91 62.0901 31.14C62.3501 31.4 62.5401 31.82 62.6601 32.44L63.0601 31.11L65.6801 30.93ZM62.1101 33.06C62.1101 32.46 62.0201 32.01 61.8301 31.76C61.7201 31.56 61.5201 31.48 61.2901 31.48C61.0601 31.48 60.8101 31.59 60.5801 31.82C60.0701 32.27 59.5301 33.21 58.9601 34.6C58.3601 35.99 58.0801 37.21 58.0801 38.23C58.0801 38.6 58.1401 38.88 58.2801 39.05C58.3901 39.25 58.5601 39.33 58.7101 39.33C59.0501 39.33 59.3901 39.13 59.7301 38.73C60.2101 38.19 60.6701 37.54 61.0601 36.75C61.7701 35.35 62.1101 34.13 62.1101 33.06Z" fill="#221F20"/>
<path d="M20.8401 15.1699H27.2701L26.5901 17.4699H20.1001L20.8401 15.1699ZM39.1501 10.8899L38.2101 11.8299C38.4901 12.2599 38.6901 12.6199 38.8301 12.9599C38.9401 13.2999 39.0001 13.6699 39.0001 14.0699C39.0001 15.2599 38.6601 16.4499 37.9501 17.6399C37.2401 18.8299 36.3601 19.7699 35.2601 20.4699C34.1801 21.1799 33.0801 21.5199 31.9701 21.5199C31.4901 21.5199 31.0601 21.4599 30.6901 21.3199C30.3201 21.1799 29.9501 20.9199 29.5301 20.5799L28.5901 21.5199L28.1601 21.1199L29.1201 20.1299C28.8401 19.7299 28.6401 19.3399 28.5201 18.9999C28.4101 18.6599 28.3501 18.2599 28.3501 17.8399C28.3501 16.6499 28.6901 15.4599 29.3401 14.2999C29.9901 13.1399 30.8701 12.1999 31.9501 11.4899C33.0301 10.8099 34.1001 10.4399 35.2101 10.4399C35.7501 10.4399 36.2301 10.5299 36.6601 10.6999C37.0001 10.8399 37.4001 11.0699 37.8201 11.4099L38.7301 10.4699L39.1501 10.8899ZM36.4801 12.7299C36.4201 12.1099 36.2501 11.6799 36.0301 11.4299C35.7701 11.1999 35.4601 11.0599 35.0401 11.0599C34.5301 11.0599 34.1001 11.1999 33.7601 11.4599C33.1401 11.9099 32.5401 12.7599 31.9701 14.0099C31.4301 15.2899 31.0601 16.7299 30.8601 18.3999L36.4801 12.7299ZM30.9001 19.2199C30.9901 19.8399 31.1301 20.2699 31.3801 20.4999C31.6401 20.7599 31.9501 20.8699 32.3701 20.8699C32.8801 20.8699 33.3101 20.7599 33.6501 20.4699C34.3001 19.9599 34.9001 19.0499 35.4601 17.7199C36.0301 16.3899 36.3701 14.9999 36.4801 13.5499L30.9001 19.2199Z" fill="#221F20"/>
</svg>
