<svg width="70" height="59" viewBox="0 0 70 59" fill="none" xmlns="http://www.w3.org/2000/svg">
<g clip-path="url(#clip0_333_45)">
<path fill-rule="evenodd" clip-rule="evenodd" d="M5.83993 0.429993H52.0199C54.9999 0.429993 57.4299 3.11999 57.4299 6.37999V48.02C57.4299 51.31 54.9899 54 52.0199 54H5.83993C2.85993 54 0.429932 51.31 0.429932 48.02V6.37999C0.429932 3.11999 2.85993 0.429993 5.83993 0.429993Z" fill="#FAB31E" stroke="white" stroke-width="0.8504" stroke-miterlimit="10"/>
<path d="M20.6599 9.47005H27.1199L26.4399 11.77H19.9499L20.6599 9.47005ZM34.8399 5.30005C35.4399 5.30005 35.9699 5.44005 36.4799 5.70005C36.9899 5.98005 37.3899 6.35005 37.6399 6.83005C37.9199 7.31005 38.0399 7.85005 38.0399 8.42005C38.0399 9.61005 37.6999 10.83 37.0499 12.02C36.3699 13.21 35.4899 14.15 34.3899 14.85C33.3099 15.53 32.2099 15.87 31.0999 15.87C30.0799 15.87 29.3099 15.59 28.7499 14.99C28.2099 14.37 27.9299 13.66 27.9299 12.78C27.9299 11.76 28.1299 10.8 28.5499 9.89005C28.9499 9.01005 29.4899 8.22005 30.1099 7.54005C30.7299 6.89005 31.4699 6.35005 32.2899 5.92005C33.1099 5.50005 33.9599 5.30005 34.8399 5.30005ZM34.3799 5.90005C33.9799 5.90005 33.6399 6.01005 33.3899 6.24005C32.8799 6.69005 32.2799 7.80005 31.6299 9.50005C30.9799 11.2 30.6699 12.76 30.6699 14.12C30.6699 14.46 30.7599 14.74 30.9799 14.97C31.1799 15.2 31.4299 15.28 31.7199 15.28C31.9999 15.28 32.2599 15.19 32.4899 15.02C32.7999 14.76 33.1999 14.17 33.6799 13.23C34.1599 12.29 34.5299 11.27 34.8399 10.17C35.1499 9.04005 35.2899 8.02005 35.2899 7.08005C35.2899 6.71005 35.1999 6.40005 35.0299 6.20005C34.8399 5.98005 34.6099 5.90005 34.3799 5.90005ZM9.66993 26.08H16.0999L15.4199 28.38H8.92993L9.66993 26.08ZM19.8699 28.03C19.8099 28.51 19.7799 28.91 19.7799 29.22C19.7799 29.76 19.9499 30.21 20.2599 30.55C20.5699 30.86 21.0299 31.03 21.5599 31.03C22.0699 31.03 22.5799 30.92 23.1199 30.69C23.6299 30.49 24.2299 30.09 24.9299 29.53L25.2699 29.81C24.4199 30.77 23.5999 31.45 22.7799 31.88C21.9899 32.28 21.0799 32.48 20.1199 32.48C18.8699 32.48 18.0199 32.2 17.5399 31.6C17.0899 31 16.8599 30.32 16.8599 29.56C16.8599 28.34 17.1999 27.1201 17.9099 25.93C18.6199 24.7101 19.5799 23.75 20.7999 23.01C22.0199 22.27 23.2399 21.9 24.4599 21.9C25.0799 21.9 25.5399 22.04 25.8799 22.35C26.1899 22.63 26.3299 23 26.3299 23.46C26.3299 24 26.1899 24.54 25.8799 25.05C25.4499 25.73 24.9199 26.3 24.2599 26.72C23.6099 27.15 22.8699 27.4601 22.0499 27.68C21.5099 27.84 20.8099 27.95 19.8699 28.03ZM19.9799 27.47C20.6299 27.36 21.1399 27.24 21.5099 27.07C21.8499 26.9 22.2199 26.64 22.5599 26.28C22.8999 25.91 23.2099 25.46 23.4699 24.89C23.7299 24.32 23.8399 23.81 23.8399 23.33C23.8399 23.13 23.7799 22.96 23.6699 22.85C23.5599 22.74 23.4099 22.68 23.2399 22.68C22.8699 22.68 22.4699 22.91 22.0199 23.42C21.1999 24.29 20.5199 25.65 19.9799 27.47ZM32.9699 26.08H39.4299L38.7499 28.38H32.2599L32.9699 26.08ZM43.1999 28.03C43.1399 28.51 43.0899 28.91 43.0899 29.22C43.0899 29.76 43.2599 30.21 43.5999 30.55C43.9099 30.86 44.3399 31.03 44.8799 31.03C45.4199 31.03 45.9299 30.92 46.4399 30.69C46.9799 30.49 47.5699 30.09 48.2499 29.53L48.5899 29.81C47.7399 30.77 46.9199 31.45 46.1199 31.88C45.2999 32.28 44.4199 32.48 43.4299 32.48C42.2099 32.48 41.3599 32.2 40.8799 31.6C40.3999 31 40.1699 30.32 40.1699 29.56C40.1699 28.34 40.5399 27.1201 41.2499 25.93C41.9299 24.7101 42.8899 23.75 44.1099 23.01C45.3299 22.27 46.5499 21.9 47.7999 21.9C48.3999 21.9 48.8799 22.04 49.1899 22.35C49.4999 22.63 49.6699 23 49.6699 23.46C49.6699 24 49.5299 24.54 49.2199 25.05C48.7699 25.73 48.2299 26.3 47.5799 26.72C46.9299 27.15 46.1899 27.4601 45.3999 27.68C44.8399 27.84 44.1099 27.95 43.1999 28.03ZM43.3099 27.47C43.9599 27.36 44.4699 27.24 44.8099 27.07C45.1799 26.9 45.5499 26.64 45.8899 26.28C46.2299 25.91 46.5399 25.46 46.7999 24.89C47.0299 24.32 47.1699 23.81 47.1699 23.33C47.1699 23.13 47.1099 22.96 46.9999 22.85C46.8899 22.74 46.7399 22.68 46.5499 22.68C46.2099 22.68 45.7799 22.91 45.3599 23.42C44.5299 24.29 43.8499 25.65 43.3099 27.47ZM46.4899 31.55C45.8699 31.81 45.2399 32.2601 44.6799 32.8301C44.0599 33.4301 43.6599 34.0201 43.4899 34.59C43.4599 34.7001 43.4299 34.82 43.4299 34.96C43.4299 35.36 43.6299 35.6101 43.9999 35.75C44.1399 35.81 44.2799 35.8101 44.4499 35.8101C44.8199 35.8101 45.1899 35.7 45.5799 35.44L45.6899 35.7201C44.6999 36.6601 43.7899 37.1101 42.9999 37.1101C42.3999 37.1101 41.9799 36.9401 41.6699 36.57C41.4999 36.37 41.4099 36.1201 41.4099 35.8301C41.4099 35.2901 41.6699 34.7201 42.1499 34.1301C43.1399 32.9401 44.4199 32.06 45.9499 31.55H46.4899Z" fill="#221F20"/>
<path fill-rule="evenodd" clip-rule="evenodd" d="M36.43 40H66.08C67.75 40 69.11 41.36 69.11 43V55.25C69.11 56.92 67.75 58.28 66.08 58.28H36.43C34.76 58.28 33.4 56.92 33.4 55.25V43C33.39 41.36 34.75 40 36.43 40Z" fill="#FAB31E" stroke="white" stroke-width="0.8504" stroke-miterlimit="10"/>
<path d="M38.01 47.62H42.83L42.32 49.35H37.47L38.01 47.62ZM47.99 44.5L46.23 50.11C46.14 50.39 46.12 50.56 46.12 50.65C46.12 50.71 46.12 50.76 46.18 50.79C46.21 50.82 46.27 50.85 46.32 50.85C46.58 50.85 46.92 50.62 47.31 50.17C47.91 49.52 48.53 48.58 49.18 47.34L49.95 44.82L52.05 44.76L50.41 50.23C50.3 50.71 50.21 50.97 50.21 51.05C50.21 51.08 50.24 51.14 50.27 51.16C50.33 51.22 50.36 51.25 50.41 51.25C50.5 51.25 50.55 51.22 50.64 51.14C50.84 51 51.09 50.69 51.43 50.2L51.71 50.4C50.94 51.73 50.09 52.41 49.16 52.41C48.82 52.41 48.56 52.32 48.37 52.15C48.18 51.98 48.06 51.75 48.06 51.47C48.06 51.16 48.15 50.79 48.29 50.34L48.72 48.92C48.01 49.97 47.47 50.68 47.16 51.05C46.68 51.59 46.25 51.96 45.91 52.13C45.57 52.33 45.26 52.41 44.95 52.41C44.67 52.41 44.41 52.3 44.18 52.1C43.98 51.87 43.87 51.62 43.87 51.28C43.87 51 43.96 50.63 44.1 50.15L45.15 46.83C45.32 46.29 45.38 45.92 45.38 45.75C45.38 45.66 45.38 45.58 45.32 45.52C45.26 45.46 45.21 45.41 45.12 45.38C45.03 45.35 44.86 45.32 44.64 45.32L44.73 45.01L47.54 44.5H47.99ZM57.03 44.5L55.95 48.07C56.66 46.96 57.17 46.23 57.51 45.86C57.99 45.29 58.39 44.92 58.7 44.75C59.01 44.58 59.32 44.49 59.64 44.49C60.01 44.49 60.26 44.6 60.41 44.83C60.58 45.06 60.67 45.28 60.67 45.57C60.67 45.83 60.58 46.22 60.44 46.73L60.04 48.06C60.81 46.95 61.37 46.22 61.71 45.85C62.22 45.28 62.67 44.91 63.07 44.72C63.33 44.58 63.61 44.49 63.92 44.49C64.23 44.49 64.49 44.6 64.69 44.83C64.92 45.03 65.03 45.31 65.03 45.68C65.03 46.02 64.92 46.47 64.75 47.01L63.73 50.04C63.59 50.49 63.5 50.78 63.5 50.92C63.5 50.98 63.53 51.01 63.56 51.03C63.62 51.09 63.65 51.09 63.7 51.09C63.75 51.09 63.81 51.09 63.84 51.03C64.04 50.89 64.27 50.66 64.49 50.35C64.52 50.29 64.6 50.18 64.69 50.04L65 50.24C64.6 50.92 64.18 51.43 63.72 51.77C63.27 52.08 62.84 52.25 62.44 52.25C62.1 52.25 61.84 52.16 61.62 51.97C61.42 51.8 61.34 51.57 61.34 51.35C61.34 51.09 61.4 50.73 61.57 50.24L62.59 47.01C62.73 46.56 62.79 46.27 62.79 46.16C62.79 46.13 62.79 46.1 62.73 46.05C62.7 46.02 62.64 45.99 62.59 45.99C62.54 45.99 62.45 46.02 62.36 46.05C62.25 46.11 62.05 46.25 61.79 46.5C61.56 46.73 61.19 47.12 60.74 47.75C60.26 48.35 59.95 48.8 59.8 49.14C59.63 49.48 59.46 49.93 59.32 50.47L58.78 52.17H56.68L58.27 46.76C58.38 46.48 58.41 46.28 58.41 46.16C58.41 46.13 58.38 46.07 58.35 46.05C58.32 46.02 58.29 45.99 58.24 45.99C58.04 45.99 57.7 46.27 57.28 46.81C56.6 47.63 56 48.65 55.44 49.81L54.73 52.16H52.6L54.22 46.83C54.36 46.32 54.45 45.95 54.45 45.72C54.45 45.63 54.42 45.55 54.39 45.49C54.33 45.43 54.25 45.38 54.16 45.35C54.05 45.32 53.85 45.29 53.54 45.29L53.6 44.98L56.52 44.47H57.03V44.5Z" fill="#221F20"/>
</g>
<defs>
<clipPath id="clip0_333_45">
<rect width="69.53" height="58.71" fill="white"/>
</clipPath>
</defs>
</svg>
