<svg width="69" height="54" viewBox="0 0 69 54" fill="none" xmlns="http://www.w3.org/2000/svg">
<path fill-rule="evenodd" clip-rule="evenodd" d="M6.39 1H52.59C55.57 1 58 3.44 58 6.41V33.99C58 36.97 55.56 39.4 52.59 39.4H6.39C3.44 39.4 1 36.96 1 33.99V6.41C1.01 3.43 3.44 1 6.39 1Z" fill="#FAB31E" stroke="white" stroke-width="0.8504" stroke-miterlimit="10"/>
<path fill-rule="evenodd" clip-rule="evenodd" d="M39.24 22.6801H65.15C66.79 22.6801 68.15 24.0401 68.15 25.7101V50.1701C68.15 51.8401 66.79 53.2001 65.15 53.2001H39.24C37.57 53.2001 36.21 51.8401 36.21 50.1701V25.7101C36.21 24.0401 37.57 22.6801 39.24 22.6801Z" fill="#FAB31E" stroke="white" stroke-width="0.8504" stroke-miterlimit="10"/>
<path d="M21.0501 12.62H27.5101L26.8301 14.94H20.3401L21.0501 12.62ZM38.6801 8.61996L36.5001 15.99L36.2701 16.87C36.2401 16.98 36.2401 17.07 36.2401 17.13C36.2401 17.22 36.2701 17.3 36.3301 17.36C36.3901 17.45 36.4701 17.47 36.5301 17.47C36.6701 17.47 36.9001 17.36 37.1501 17.1C37.2601 17.01 37.5201 16.67 37.9401 16.08L38.3401 16.28C37.8001 17.24 37.2601 17.95 36.6701 18.38C36.0701 18.83 35.4201 19.06 34.7401 19.06C34.3101 19.06 34.0001 18.95 33.7801 18.72C33.5501 18.52 33.4401 18.24 33.4401 17.9C33.4401 17.62 33.5801 17.08 33.8101 16.31L34.0901 15.4C33.2101 16.87 32.3901 17.92 31.6001 18.52C31.1501 18.86 30.6601 19.06 30.1501 19.06C29.4701 19.06 28.9601 18.78 28.6801 18.21C28.3701 17.64 28.2301 17.02 28.2301 16.31C28.2301 15.29 28.5401 14.1 29.1701 12.74C29.8201 11.38 30.6701 10.3 31.6901 9.47996C32.5401 8.79996 33.3601 8.45996 34.1001 8.45996C34.5301 8.45996 34.8701 8.59996 35.1201 8.82996C35.3801 9.05996 35.5501 9.50996 35.6601 10.13L36.0901 8.76996L38.6801 8.61996ZM35.1301 10.72C35.1301 10.12 35.0201 9.69996 34.8501 9.43996C34.7101 9.23996 34.5401 9.15996 34.2801 9.15996C34.0501 9.15996 33.8301 9.26996 33.5701 9.49996C33.0601 9.94996 32.5201 10.89 31.9501 12.28C31.3501 13.67 31.0701 14.89 31.0701 15.88C31.0701 16.28 31.1601 16.56 31.2701 16.73C31.4101 16.9 31.5501 16.99 31.7001 16.99C32.0401 16.99 32.3801 16.82 32.7201 16.42C33.2001 15.88 33.6601 15.2 34.0501 14.44C34.7701 13.04 35.1301 11.8 35.1301 10.72Z" fill="#221F20"/>
<path d="M45.6201 29.48H50.4401L49.9301 31.21H45.0801L45.6201 29.48ZM59.2901 26.28L58.6101 26.99C58.8101 27.3 58.9801 27.59 59.0601 27.84C59.1501 28.1 59.2001 28.38 59.2001 28.66C59.2001 29.54 58.9201 30.42 58.4101 31.32C57.8701 32.2 57.2201 32.91 56.4001 33.45C55.5801 33.96 54.7801 34.24 53.9601 34.24C53.5901 34.24 53.2801 34.18 53.0001 34.07C52.7401 33.96 52.4301 33.79 52.1501 33.53L51.4401 34.24L51.1301 33.93L51.8401 33.19C51.6401 32.88 51.4701 32.59 51.3901 32.34C51.3001 32.08 51.2801 31.8 51.2801 31.49C51.2801 30.58 51.5101 29.7 52.0201 28.83C52.5001 27.95 53.1501 27.27 53.9501 26.73C54.7701 26.22 55.5701 25.96 56.3901 25.96C56.7901 25.96 57.1601 26.02 57.5001 26.13C57.7601 26.24 58.0401 26.41 58.3501 26.67L59.0301 25.96L59.2901 26.28ZM57.3001 27.67C57.2701 27.22 57.1301 26.88 56.9601 26.71C56.7901 26.51 56.5301 26.43 56.2201 26.43C55.8501 26.43 55.5401 26.54 55.2601 26.71C54.8101 27.05 54.3501 27.7 53.9601 28.64C53.5301 29.58 53.2501 30.65 53.1401 31.9L57.3001 27.67ZM53.1301 32.52C53.1901 32.97 53.3001 33.29 53.5001 33.48C53.6701 33.65 53.9301 33.74 54.2401 33.74C54.6101 33.74 54.9201 33.65 55.1801 33.46C55.6901 33.06 56.1401 32.38 56.5701 31.39C56.9701 30.4 57.2201 29.38 57.3101 28.3L53.1301 32.52ZM45.6201 45.53H50.4401L49.9301 47.26H45.0801L45.6201 45.53ZM54.4701 38.61C54.8101 38.61 55.0901 38.75 55.3501 38.98C55.5801 39.21 55.6901 39.52 55.6901 39.83C55.6901 40.17 55.5801 40.45 55.3501 40.71C55.0901 40.94 54.8101 41.08 54.4701 41.08C54.1301 41.08 53.8501 40.94 53.6201 40.71C53.3601 40.45 53.2501 40.17 53.2501 39.83C53.2501 39.52 53.3601 39.21 53.6201 38.98C53.8401 38.75 54.1301 38.61 54.4701 38.61ZM55.1501 42.44L53.3101 48.25C53.2201 48.59 53.1701 48.82 53.1701 48.93C53.1701 48.99 53.2001 49.04 53.2601 49.1C53.2901 49.16 53.3501 49.19 53.4001 49.19C53.4901 49.19 53.6001 49.13 53.6801 49.05C53.9101 48.85 54.2201 48.45 54.5601 47.89L54.8401 48.09C53.9901 49.59 53.1101 50.36 52.1501 50.36C51.8101 50.36 51.5301 50.25 51.3001 50.05C51.0701 49.85 50.9901 49.6 50.9901 49.28C50.9901 49.08 51.0201 48.83 51.1301 48.51L52.4101 44.54C52.5201 44.17 52.5801 43.89 52.5801 43.69C52.5801 43.58 52.5201 43.46 52.4101 43.38C52.3001 43.27 52.1501 43.24 51.9601 43.24C51.8701 43.24 51.7601 43.24 51.6501 43.24L51.7401 42.9L54.6601 42.45H55.1501V42.44Z" fill="#221F20"/>
</svg>
