<svg width="65" height="43" viewBox="0 0 65 43" fill="none" xmlns="http://www.w3.org/2000/svg">
<path fill-rule="evenodd" clip-rule="evenodd" d="M6.10553 1H49.8099C51.164 1 52.4626 1.5379 53.42 2.49538C54.3775 3.45285 54.9154 4.75145 54.9154 6.10552V32.2195C54.9154 33.5735 54.3775 34.8721 53.42 35.8296C52.4626 36.7871 51.164 37.325 49.8099 37.325H6.10553C4.75146 37.325 3.45286 36.7871 2.49539 35.8296C1.53792 34.8721 1 33.5735 1 32.2195V6.10552C1 4.75145 1.53792 3.45285 2.49539 2.49538C3.45286 1.5379 4.75146 1 6.10553 1Z" fill="#E4554C" stroke="#F2F2F2" stroke-width="1.11" stroke-miterlimit="10"/>
<path d="M17.9112 30.0813H19.2913V30.5676H18.4976C18.6136 30.6849 18.7167 30.8143 18.8051 30.9537C18.8677 31.1158 18.9016 31.2876 18.9052 31.4614C18.9127 31.7322 18.8269 31.9973 18.6621 32.2122C18.4918 32.434 18.2679 32.6087 18.0113 32.7199C17.776 32.8304 17.5204 32.8912 17.2605 32.8987C17.2605 32.8987 17.0818 32.8987 16.7385 32.8987C16.6177 32.8975 16.5007 32.9408 16.4096 33.0202C16.3635 33.0568 16.3266 33.1037 16.3018 33.1571C16.277 33.2104 16.2649 33.2689 16.2666 33.3277C16.2641 33.3783 16.2738 33.4288 16.2949 33.4749C16.3161 33.5209 16.3481 33.5612 16.3882 33.5923C16.5119 33.6633 16.6532 33.698 16.7957 33.6924H17.5466C17.9831 33.6566 18.4218 33.7252 18.8265 33.8926C18.9799 33.9737 19.107 34.0968 19.1931 34.2475C19.2792 34.3981 19.3207 34.5702 19.3128 34.7435C19.3092 34.9861 19.2291 35.2213 19.0839 35.4157C18.9246 35.6202 18.7153 35.7803 18.4761 35.8804C18.0607 36.0263 17.6219 36.0942 17.1819 36.0807C16.8409 36.082 16.5007 36.0484 16.1665 35.9806C15.9316 35.9318 15.7112 35.829 15.5229 35.6802C15.4087 35.5814 15.3349 35.4439 15.3156 35.2941C15.3169 35.2254 15.3321 35.1576 15.3604 35.0949C15.3886 35.0322 15.4294 34.9759 15.48 34.9294C15.6396 34.7896 15.8354 34.6979 16.0449 34.6649C15.8811 34.6032 15.7386 34.4954 15.6346 34.3546C15.5305 34.2138 15.4694 34.0459 15.4586 33.8711C15.4638 33.6522 15.5505 33.4432 15.7017 33.2848C15.8996 33.0648 16.1438 32.8914 16.4168 32.7771C16.0893 32.6759 15.7953 32.4881 15.5658 32.2336C15.3964 31.9954 15.3041 31.7109 15.3013 31.4185C15.301 31.2194 15.3467 31.0229 15.4347 30.8443C15.5228 30.6657 15.6508 30.5098 15.809 30.3888C15.9785 30.2346 16.1772 30.116 16.3934 30.0398C16.6095 29.9637 16.8387 29.9316 17.0675 29.9455C17.3508 29.9511 17.6312 30.0043 17.8969 30.1028L17.9112 30.0813ZM17.1604 30.2029C17.0749 30.2027 16.9909 30.2252 16.9169 30.2678C16.8428 30.3105 16.7813 30.372 16.7385 30.446C16.585 30.7764 16.5209 31.1413 16.5526 31.5043C16.5288 31.8092 16.5855 32.1149 16.7171 32.391C16.7606 32.4651 16.8228 32.5266 16.8974 32.5693C16.9721 32.612 17.0566 32.6345 17.1426 32.6345C17.2285 32.6345 17.3131 32.612 17.3877 32.5693C17.4623 32.5266 17.5245 32.4651 17.568 32.391C17.7177 32.1132 17.7801 31.7966 17.7468 31.4828C17.7763 31.1139 17.7072 30.7437 17.5466 30.4103C17.5062 30.3447 17.4493 30.291 17.3814 30.2545C17.3136 30.2181 17.2374 30.2003 17.1604 30.2029ZM16.8959 34.7435C16.6982 34.7307 16.4997 34.7524 16.3095 34.8079C16.2399 34.8412 16.1807 34.8926 16.1379 34.9568C16.0951 35.021 16.0704 35.0955 16.0664 35.1725C16.0699 35.2544 16.094 35.334 16.1365 35.404C16.179 35.474 16.2385 35.5321 16.3095 35.573C16.611 35.7214 16.947 35.7856 17.282 35.7589C17.6137 35.7674 17.944 35.7116 18.2545 35.5944C18.3489 35.5624 18.4318 35.5033 18.4928 35.4244C18.5539 35.3456 18.5903 35.2505 18.5977 35.1511C18.6022 35.1159 18.5973 35.0802 18.5835 35.0475C18.5697 35.0148 18.5474 34.9864 18.519 34.9652C18.4289 34.8675 18.3075 34.8043 18.1758 34.7864C17.7502 34.7505 17.323 34.7362 16.8959 34.7435ZM22.1444 35.6945V35.5158C22.4341 35.4037 22.6833 35.2068 22.8594 34.9509C22.9992 34.7381 23.076 34.4903 23.0811 34.2358C23.0926 34.2034 23.0926 34.1681 23.0811 34.1357C23.065 34.116 23.042 34.1033 23.0168 34.0999L22.9381 34.1357C22.8426 34.1825 22.7369 34.2046 22.6306 34.2001C22.5429 34.2002 22.4562 34.1818 22.376 34.1461C22.2959 34.1103 22.2243 34.0581 22.1658 33.9927C22.106 33.9315 22.0593 33.8587 22.0285 33.7787C21.9978 33.6988 21.9837 33.6135 21.9871 33.5279C21.9884 33.4328 22.0087 33.3389 22.0468 33.2517C22.0848 33.1645 22.1399 33.0858 22.2087 33.0202C22.3493 32.8799 22.5393 32.8003 22.7379 32.7985C22.8613 32.7987 22.9831 32.8264 23.0944 32.8796C23.2057 32.9328 23.3038 33.0101 23.3814 33.106C23.5662 33.3252 23.6608 33.6063 23.646 33.8926C23.6564 34.2989 23.5192 34.6952 23.2599 35.0081C22.9784 35.3644 22.5857 35.6162 22.1444 35.7231V35.6945ZM28.1509 28.1721V32.0835L29.1019 31.1253C29.2807 30.9465 29.4022 30.8035 29.4666 30.7249C29.5017 30.6485 29.5212 30.5658 29.5238 30.4818C29.5262 30.4415 29.5183 30.4013 29.5008 30.365C29.4832 30.3287 29.4567 30.2975 29.4237 30.2744C29.3173 30.1977 29.1901 30.1553 29.059 30.1528V30.017H30.9039V30.1528C30.7403 30.1657 30.5816 30.2146 30.4391 30.2958C30.1438 30.5034 29.879 30.7514 29.6525 31.0324L29.2092 31.4757L30.1602 32.9058C30.5463 33.4922 30.7894 33.7925 30.8752 33.8783C30.9792 33.978 31.1173 34.0343 31.2614 34.0356V34.2001H29.1162V34.0356C29.1871 34.0381 29.2577 34.0259 29.3236 33.9998C29.3556 33.9668 29.3757 33.924 29.3808 33.8783C29.3548 33.743 29.2931 33.617 29.202 33.5136L28.3869 32.3123L28.1294 32.5626V33.2776C28.1058 33.4789 28.1328 33.683 28.2081 33.8711C28.2562 33.9177 28.3135 33.9538 28.3762 33.9771C28.439 34.0005 28.5059 34.0107 28.5728 34.007V34.1715H26.4633V34.007C26.5318 34.0079 26.5996 33.9944 26.6625 33.9673C26.7253 33.9402 26.7817 33.9001 26.828 33.8497C26.888 33.6653 26.9099 33.4707 26.8924 33.2776V29.1017C26.918 28.9091 26.8883 28.7131 26.8066 28.5368C26.7645 28.4864 26.7121 28.4456 26.6529 28.4172C26.5936 28.3888 26.529 28.3735 26.4633 28.3723V28.1721H28.1509Z" fill="black"/>
<path fill-rule="evenodd" clip-rule="evenodd" d="M41.6582 21.5508H60.9147C61.6733 21.5508 62.4008 21.8521 62.9372 22.3885C63.4736 22.9249 63.7749 23.6524 63.7749 24.411V39.0483C63.7749 39.8068 63.4736 40.5344 62.9372 41.0708C62.4008 41.6072 61.6733 41.9085 60.9147 41.9085H41.6582C40.8996 41.9085 40.1721 41.6072 39.6357 41.0708C39.0993 40.5344 38.798 39.8068 38.798 39.0483V33.6925L36.0378 31.7261L38.798 29.7668V24.411C38.798 23.6524 39.0993 22.9249 39.6357 22.3885C40.1721 21.8521 40.8996 21.5508 41.6582 21.5508Z" fill="#E4554C" stroke="#F2F2F2" stroke-width="0.85" stroke-miterlimit="10"/>
<path d="M46.1588 32.9416H50.0467L49.635 34.3104H45.7197L46.1588 32.9416ZM53.3125 27.4572C53.596 27.4572 53.8339 27.5556 54.0168 27.7613C54.1998 27.9403 54.3004 28.164 54.3004 28.4503C54.3004 28.7008 54.1998 28.9334 54.0168 29.1123C53.8064 29.3181 53.5777 29.4165 53.3125 29.4165C53.0289 29.4165 52.791 29.3181 52.6081 29.1123C52.4251 28.9334 52.3245 28.7097 52.3245 28.4503C52.3245 28.1729 52.4251 27.9403 52.6081 27.7613C52.791 27.5645 53.0289 27.4572 53.3125 27.4572ZM53.8613 30.4812L52.3794 35.0978C52.297 35.3751 52.2513 35.554 52.2513 35.6346C52.2513 35.6882 52.2787 35.733 52.3062 35.7598C52.3611 35.8135 52.3885 35.8403 52.4343 35.8403C52.5166 35.8403 52.5898 35.8135 52.6721 35.7419C52.8551 35.563 53.1112 35.2588 53.3765 34.8293L53.6143 34.9546C52.9374 36.1445 52.2147 36.7529 51.4646 36.7529C51.1536 36.7529 50.9157 36.6724 50.7602 36.5203C50.5772 36.3682 50.5041 36.1624 50.5041 35.9119C50.5041 35.7598 50.5315 35.554 50.6047 35.3035L51.6384 32.1632C51.739 31.8858 51.7939 31.6532 51.7939 31.5011C51.7939 31.4027 51.739 31.2953 51.6384 31.2238C51.5561 31.1701 51.428 31.1254 51.2725 31.1254C51.1902 31.1254 51.117 31.1254 51.0163 31.1254L51.0987 30.8748L53.4588 30.4901H53.8613V30.4812Z" fill="black"/>
<path d="M22.318 12.9338H27.6063L27.0496 14.7904H21.7368L22.318 12.9338ZM28.3103 10.413L31.0936 9.59669C31.3064 9.86878 31.4619 10.1409 31.5602 10.3649C31.7239 10.7971 31.8385 11.3653 31.9122 12.1095C32.0268 13.558 32.125 15.1265 32.1659 16.759C32.8127 15.9428 33.5576 14.8304 34.3926 13.446C34.6463 13.0378 34.761 12.6537 34.761 12.2856C34.761 12.0615 34.6218 11.8294 34.3189 11.6294C34.016 11.4213 33.8523 11.2692 33.7868 11.1492C33.6968 11.0132 33.6722 10.8771 33.6722 10.6931C33.6722 10.397 33.7868 10.1249 33.9996 9.9248C34.2289 9.70073 34.4908 9.58069 34.8101 9.58069C35.1293 9.58069 35.4158 9.71673 35.6696 9.96481C35.8988 10.2129 36.038 10.509 36.038 10.8291C36.038 11.2372 35.9234 11.6934 35.686 12.2136C35.4568 12.7337 34.9165 13.646 34.1061 14.9104C33.0173 16.543 31.9695 17.9514 30.9462 19.1278C30.275 19.8961 29.7429 20.4403 29.3417 20.7844C28.9488 21.1045 28.5067 21.3766 28.0893 21.5766C27.8109 21.6887 27.5572 21.7367 27.3034 21.7367C26.9514 21.7367 26.6731 21.6246 26.4193 21.3926C26.1901 21.1445 26.0509 20.8724 26.0509 20.5283C26.0509 20.2082 26.1655 19.9361 26.3784 19.712C26.6076 19.4879 26.8695 19.3679 27.1642 19.3679C27.5326 19.3679 27.8846 19.552 28.1875 19.9361C28.4003 20.1842 28.5559 20.3202 28.695 20.3202C28.8342 20.3202 28.9734 20.2722 29.088 20.2082C29.2762 20.0961 29.53 19.8881 29.8575 19.552C29.9066 18.7997 29.9311 18.2555 29.9311 17.8714C29.9311 17.3753 29.9066 16.647 29.8575 15.7187L29.6937 12.3416C29.6446 11.7254 29.5055 11.2772 29.3008 11.0292C29.1371 10.8211 28.9079 10.7091 28.6541 10.7091C28.5395 10.7091 28.4249 10.7331 28.3021 10.7331V10.413H28.3103Z" fill="#221F20"/>
</svg>
