<svg width="58" height="40" viewBox="0 0 58 40" fill="none" xmlns="http://www.w3.org/2000/svg">
<g clip-path="url(#clip0_333_58)">
<path fill-rule="evenodd" clip-rule="evenodd" d="M5.83993 0.430054H52.0199C54.9999 0.430054 57.4299 2.87005 57.4299 5.84005V33.4201C57.4299 36.4001 54.9899 38.8301 52.0199 38.8301H5.83993C2.85993 38.8301 0.429932 36.3901 0.429932 33.4201V5.84005C0.429932 2.86005 2.85993 0.430054 5.83993 0.430054Z" fill="#FAB31E" stroke="white" stroke-width="0.8504" stroke-miterlimit="10"/>
<path d="M20.47 18.48H26.93L26.25 20.8H19.76L20.47 18.48ZM38.1 14.49L35.92 21.86L35.69 22.77C35.69 22.88 35.66 22.97 35.66 23.03C35.66 23.12 35.69 23.17 35.77 23.26C35.83 23.32 35.88 23.35 35.94 23.35C36.11 23.35 36.31 23.24 36.56 23.01C36.67 22.9 36.96 22.58 37.35 21.99L37.75 22.19C37.21 23.15 36.67 23.83 36.08 24.29C35.48 24.72 34.83 24.94 34.15 24.94C33.72 24.94 33.41 24.83 33.19 24.63C32.99 24.4 32.88 24.15 32.88 23.81C32.88 23.53 32.99 22.99 33.22 22.19L33.5 21.31C32.65 22.76 31.83 23.8 31.03 24.43C30.55 24.77 30.07 24.94 29.56 24.94C28.88 24.94 28.4 24.66 28.09 24.12C27.78 23.55 27.64 22.93 27.64 22.22C27.64 21.17 27.95 19.98 28.58 18.65C29.23 17.29 30.08 16.21 31.1 15.39C31.98 14.71 32.77 14.37 33.51 14.37C33.94 14.37 34.28 14.48 34.53 14.71C34.79 14.97 34.96 15.39 35.07 16.04L35.5 14.68L38.1 14.49ZM34.55 16.61C34.55 16.01 34.44 15.59 34.27 15.31C34.13 15.14 33.96 15.05 33.73 15.05C33.47 15.05 33.25 15.14 32.99 15.36C32.51 15.81 31.94 16.75 31.37 18.14C30.8 19.56 30.49 20.75 30.49 21.77C30.49 22.17 30.58 22.45 30.69 22.62C30.83 22.79 30.97 22.88 31.12 22.88C31.46 22.88 31.8 22.68 32.14 22.31C32.65 21.74 33.08 21.09 33.47 20.3C34.19 18.91 34.55 17.69 34.55 16.61Z" fill="#221F20"/>
</g>
<defs>
<clipPath id="clip0_333_58">
<rect width="57.86" height="39.26" fill="white"/>
</clipPath>
</defs>
</svg>
