<svg width="57" height="40" viewBox="0 0 57 40" fill="none" xmlns="http://www.w3.org/2000/svg">
<path fill-rule="evenodd" clip-rule="evenodd" d="M6.25107 1.33081H51.1386C52.53 1.33081 53.8645 1.88304 54.8491 2.86622C55.8336 3.8494 56.3877 5.18314 56.3897 6.57454V33.3881C56.3877 34.7802 55.8339 36.1147 54.8495 37.099C53.8652 38.0834 52.5307 38.6372 51.1386 38.6392H6.25107C4.859 38.6372 3.5245 38.0834 2.54015 37.099C1.5558 36.1147 1.00194 34.7802 1 33.3881V6.57454C1.00195 5.18314 1.55604 3.8494 2.5406 2.86622C3.52516 1.88304 4.85967 1.33081 6.25107 1.33081Z" fill="#E4554C" stroke="#F2F2F2" stroke-width="1.13" stroke-miterlimit="10"/>
<path d="M20.4912 18.8834H26.7558L26.0875 21.1308H19.7788L20.4912 18.8834ZM30.4205 20.7782C30.3607 21.1623 30.3263 21.55 30.3177 21.9386C30.3072 22.175 30.344 22.4111 30.426 22.633C30.508 22.855 30.6335 23.0584 30.7951 23.2312C30.9592 23.3922 31.1548 23.5177 31.3696 23.5999C31.5844 23.682 31.8138 23.719 32.0436 23.7086C32.5655 23.7055 33.0819 23.6007 33.5638 23.4001C34.1992 23.0934 34.7938 22.7085 35.3338 22.2544L35.6642 22.5261C34.9862 23.3326 34.1675 24.0094 33.248 24.5238C32.4417 24.9285 31.5504 25.135 30.6482 25.126C30.1983 25.1757 29.743 25.1251 29.3151 24.9778C28.8871 24.8305 28.4972 24.5901 28.1732 24.2741C27.7081 23.7141 27.4627 23.0041 27.4829 22.2764C27.4969 21.0259 27.8497 19.8026 28.5037 18.7366C29.1844 17.5674 30.1527 16.5915 31.3165 15.9017C32.3802 15.226 33.611 14.8598 34.8711 14.8442C35.3623 14.813 35.8473 14.9676 36.2298 15.2775C36.3792 15.4154 36.4972 15.5838 36.5757 15.7714C36.6543 15.9589 36.6916 16.1612 36.6851 16.3644C36.6801 16.9019 36.5276 17.4278 36.2444 17.8846C35.8517 18.5412 35.311 19.097 34.6654 19.5077C34.0063 19.9241 33.2918 20.2455 32.543 20.4624C31.8465 20.6319 31.1361 20.7376 30.4205 20.7782ZM30.5233 20.2348C31.0284 20.1684 31.5223 20.035 31.9922 19.8382C32.3824 19.6549 32.7301 19.3923 33.013 19.0671C33.3746 18.6744 33.6698 18.2254 33.887 17.7377C34.1115 17.2694 34.2342 16.7588 34.2468 16.2395C34.2545 16.0645 34.194 15.8934 34.0779 15.7622C33.9598 15.6534 33.8051 15.5931 33.6446 15.5933C33.1741 15.6755 32.7548 15.9392 32.4769 16.3277C31.539 17.4799 30.8646 18.8235 30.5013 20.2641L30.5233 20.2348Z" fill="#221F20"/>
</svg>
