<svg width="70" height="65" viewBox="0 0 70 65" fill="none" xmlns="http://www.w3.org/2000/svg">
<path fill-rule="evenodd" clip-rule="evenodd" d="M6.32304 0.577393H54.2384C55.7237 0.57947 57.1474 1.17094 58.1969 2.22191C59.2464 3.27288 59.8359 4.69742 59.8359 6.18267V56.5832C59.8359 58.0677 59.2461 59.4915 58.1964 60.5412C57.1467 61.5909 55.723 62.1806 54.2384 62.1806H6.32304C4.83851 62.1806 3.41478 61.5909 2.36506 60.5412C1.31533 59.4915 0.725586 58.0677 0.725586 56.5832V6.18267C0.725584 4.69742 1.31508 3.27288 2.36458 2.22191C3.41408 1.17094 4.83779 0.57947 6.32304 0.577393Z" fill="#FAB31E" stroke="#F8F8F8" stroke-width="0.85" stroke-miterlimit="10"/>
<path d="M22.0022 14.0928H28.6894L27.9995 16.4917H21.2183L22.0022 14.0928ZM29.5988 10.8472L33.1109 9.78101C33.3537 10.0844 33.5493 10.4227 33.691 10.7845C33.9399 11.5165 34.0901 12.2784 34.1379 13.0501C34.2947 14.9394 34.4044 16.9699 34.4671 19.0944C35.4847 17.7089 36.4268 16.2696 37.2894 14.7826C37.5802 14.3302 37.7428 13.8072 37.7597 13.2696C37.7425 13.094 37.6828 12.9251 37.5858 12.7776C37.4889 12.6302 37.3575 12.5084 37.2031 12.4229C36.9446 12.2508 36.7122 12.0422 36.5133 11.8036C36.4208 11.6245 36.3749 11.425 36.38 11.2235C36.3799 10.845 36.5287 10.4816 36.7941 10.2117C37.0596 9.94188 37.4204 9.78718 37.7989 9.78101C38.0075 9.78391 38.2134 9.82839 38.4045 9.91185C38.5957 9.99531 38.7683 10.1161 38.9122 10.2671C39.0589 10.417 39.1741 10.5949 39.2508 10.7901C39.3276 10.9854 39.3644 11.1941 39.359 11.4038C39.3388 12.027 39.1949 12.6399 38.9357 13.2069C38.3459 14.412 37.6781 15.5773 36.9366 16.6955C35.7207 18.6071 34.3853 20.44 32.9384 22.1832C32.3158 22.9339 31.6398 23.6387 30.9158 24.292C30.4402 24.6992 29.913 25.0418 29.3479 25.3112C29.0415 25.4567 28.7072 25.5343 28.3679 25.5385C27.9453 25.5433 27.5375 25.383 27.2312 25.0917C26.9433 24.8044 26.7782 24.4165 26.7709 24.0099C26.7636 23.6033 26.9146 23.2097 27.192 22.9123C27.3187 22.7743 27.4725 22.6641 27.6439 22.5885C27.8152 22.513 28.0004 22.4737 28.1876 22.4733C28.4447 22.4874 28.6951 22.5605 28.9194 22.6869C29.1438 22.8133 29.336 22.9897 29.4812 23.2023C29.7242 23.5394 29.9437 23.7119 30.124 23.7119C30.2973 23.7127 30.4686 23.6753 30.6257 23.6022C30.9847 23.3596 31.3136 23.0754 31.6057 22.7555C31.6449 21.7991 31.6684 21.0621 31.6684 20.5761C31.6684 19.9332 31.6684 19.0082 31.5822 17.8009L31.3783 13.4186C31.3696 12.8054 31.1934 12.2063 30.8688 11.686C30.7728 11.5607 30.6476 11.4609 30.5041 11.3953C30.3606 11.3297 30.2031 11.3003 30.0456 11.3097C29.9047 11.2987 29.7632 11.2987 29.6223 11.3097L29.5988 10.8472ZM22.0022 35.1498H28.6894L27.9995 37.5487H21.2183L22.0022 35.1498ZM32.6248 37.1646C32.5613 37.5694 32.5246 37.9779 32.5151 38.3876C32.4923 38.9044 32.6756 39.4091 33.0246 39.7908C33.2007 39.9616 33.4096 40.0948 33.6387 40.1824C33.8678 40.27 34.1123 40.3102 34.3574 40.3004C34.9171 40.2979 35.4699 40.1777 35.9801 39.9476C36.657 39.6273 37.2916 39.2244 37.8695 38.7482L38.2223 39.0382C37.4985 39.8991 36.6246 40.6215 35.643 41.1706C34.7823 41.6027 33.8309 41.823 32.8678 41.8134C31.5821 41.8134 30.6884 41.4999 30.2024 40.8805C29.7173 40.2856 29.4565 39.5393 29.4655 38.7717C29.493 37.4354 29.8773 36.1308 30.5787 34.993C31.3055 33.753 32.3292 32.7131 33.5577 31.967C34.6986 31.2514 36.0133 30.861 37.3599 30.8381C37.8898 30.7983 38.4147 30.9639 38.8259 31.3006C38.9871 31.4465 39.1142 31.6261 39.1982 31.8266C39.2822 32.0271 39.321 32.2436 39.312 32.4609C39.304 33.0307 39.1444 33.5882 38.8494 34.0758C38.4077 34.7638 37.8317 35.3558 37.1561 35.8162C36.4566 36.2626 35.6924 36.5984 34.8905 36.8118C34.1462 36.9912 33.3884 37.1092 32.6248 37.1646ZM32.7111 36.5688C33.2509 36.5157 33.7796 36.3809 34.279 36.169C34.6881 35.9613 35.0571 35.6826 35.3687 35.3458C35.7555 34.9273 36.0707 34.4479 36.3016 33.9269C36.5486 33.4205 36.6849 32.8673 36.7014 32.3041C36.7077 32.1165 36.6465 31.9329 36.5289 31.7867C36.3978 31.6748 36.2309 31.6136 36.0585 31.6142C35.808 31.6521 35.568 31.7413 35.3536 31.8762C35.1391 32.0111 34.9548 32.1888 34.8121 32.3981C33.8142 33.6336 33.0877 35.0653 32.6797 36.6001L32.7111 36.5688Z" fill="#221F20"/>
<path d="M27.5838 50.6016H29.0968V51.1347H28.2267C28.3662 51.2519 28.4808 51.3959 28.5638 51.5581C28.6404 51.7251 28.678 51.9074 28.6735 52.0912C28.6742 52.3748 28.5804 52.6506 28.407 52.8751C28.2258 53.1236 27.9787 53.3165 27.6936 53.4317C27.4479 53.5485 27.1814 53.6151 26.9096 53.6277H26.3295C26.2647 53.6244 26.1999 53.6345 26.1392 53.6574C26.0784 53.6804 26.0231 53.7156 25.9767 53.761C25.8828 53.8553 25.827 53.9809 25.8199 54.1138C25.82 54.1688 25.832 54.2232 25.855 54.2733C25.878 54.3233 25.9115 54.3679 25.9532 54.4038C26.0856 54.4828 26.2383 54.5209 26.3922 54.5136H27.2154C27.6947 54.4734 28.1765 54.5515 28.6186 54.7409C28.7893 54.831 28.9304 54.9684 29.0249 55.1367C29.1195 55.3049 29.1635 55.4969 29.1517 55.6895C29.1577 55.9558 29.0719 56.216 28.9087 56.4264C28.7393 56.6505 28.5075 56.8196 28.2423 56.9125C27.4321 57.1936 26.5574 57.2318 25.7258 57.0222C25.4607 56.9843 25.2097 56.879 24.9968 56.7165C24.8757 56.598 24.803 56.4387 24.7929 56.2696C24.7904 56.1958 24.803 56.1223 24.8299 56.0535C24.8569 55.9847 24.8977 55.9222 24.9497 55.8698C25.1323 55.7287 25.3438 55.6297 25.569 55.5798C25.3898 55.517 25.2342 55.4006 25.1234 55.2463C25.0125 55.092 24.9519 54.9073 24.9497 54.7174C24.9598 54.4803 25.0449 54.2524 25.1928 54.0667C25.416 53.8386 25.6825 53.6574 25.9767 53.5336C25.6151 53.4299 25.2963 53.2128 25.0673 52.9143C24.8719 52.661 24.7695 52.3482 24.7773 52.0284C24.783 51.8125 24.8333 51.6 24.925 51.4044C25.0168 51.2088 25.148 51.0342 25.3103 50.8917C25.6943 50.5645 26.1859 50.3914 26.6901 50.4057C27.0035 50.4081 27.313 50.4748 27.5995 50.6016H27.5838ZM26.7607 50.7114C26.6653 50.7167 26.5729 50.7461 26.492 50.7968C26.4111 50.8475 26.3444 50.9179 26.2981 51.0015C26.1242 51.3619 26.0536 51.7635 26.0943 52.1617C26.064 52.4988 26.135 52.8373 26.2981 53.1338C26.3418 53.2143 26.4063 53.2815 26.485 53.3284C26.5636 53.3753 26.6534 53.4002 26.745 53.4004C26.8385 53.3997 26.9304 53.3748 27.0114 53.3281C27.0925 53.2814 27.1601 53.2145 27.2075 53.1338C27.3754 52.822 27.4463 52.4671 27.4113 52.1147C27.4508 51.709 27.3718 51.3005 27.184 50.9387C27.1381 50.8685 27.0753 50.8108 27.0013 50.7711C26.9274 50.7314 26.8446 50.7108 26.7607 50.7114ZM26.4784 55.6895C26.2572 55.6698 26.0344 55.702 25.8278 55.7836C25.7487 55.8163 25.6811 55.8717 25.6336 55.9429C25.5861 56.0141 25.561 56.0978 25.5612 56.1834C25.5689 56.275 25.5995 56.3632 25.6502 56.4399C25.7009 56.5167 25.77 56.5794 25.8513 56.6224C26.18 56.7906 26.5499 56.8614 26.9174 56.8263C27.2735 56.836 27.628 56.7747 27.9601 56.6459C28.211 56.5127 28.3443 56.3559 28.3443 56.1364C28.342 56.0652 28.3173 55.9966 28.2737 55.9404C28.1661 55.8347 28.0243 55.7708 27.8739 55.7601C27.4118 55.6948 26.9448 55.6712 26.4784 55.6895ZM32.2327 56.74V56.5283C32.5545 56.4129 32.8298 56.1954 33.0166 55.909C33.1855 55.6821 33.2788 55.4079 33.2832 55.1251C33.2839 55.0765 33.2672 55.0292 33.2361 54.9918C33.2262 54.9875 33.2156 54.9852 33.2048 54.9852C33.194 54.9852 33.1833 54.9875 33.1734 54.9918C33.1426 54.9835 33.1102 54.9835 33.0794 54.9918C32.9817 55.0552 32.8663 55.0855 32.7501 55.078C32.6571 55.0775 32.5652 55.0577 32.4802 55.0199C32.3952 54.9822 32.3189 54.9272 32.2562 54.8585C32.1216 54.7191 32.0434 54.5348 32.0367 54.3411C32.0486 54.1303 32.1404 53.932 32.2932 53.7864C32.4461 53.6408 32.6487 53.5588 32.8598 53.5572C32.9941 53.5564 33.127 53.584 33.2499 53.638C33.3728 53.692 33.483 53.7713 33.5732 53.8707C33.7759 54.1197 33.8767 54.4363 33.8555 54.7566C33.8621 55.1928 33.715 55.6174 33.44 55.9561C33.1331 56.3486 32.7018 56.6251 32.217 56.74H32.2327ZM38.8101 48.5163V52.8046L39.8527 51.7854C39.9963 51.646 40.1299 51.4967 40.2525 51.3386C40.2944 51.2473 40.3184 51.1488 40.3231 51.0485C40.3256 51.0071 40.3184 50.9657 40.302 50.9276C40.2857 50.8895 40.2607 50.8557 40.229 50.829C40.0967 50.7632 39.953 50.7233 39.8057 50.7114V50.5389H41.8283V50.7114C41.6497 50.71 41.4738 50.756 41.3187 50.8447C41.0224 51.0736 40.7397 51.3197 40.4721 51.5816L39.986 52.0676L41.0522 53.6355C41.288 54.0016 41.55 54.35 41.8361 54.6782C41.9467 54.7837 42.0857 54.8545 42.236 54.882V55.031H39.9311V54.882C39.9706 54.8864 40.0106 54.8824 40.0484 54.8702C40.0862 54.858 40.1211 54.838 40.1506 54.8115C40.1709 54.7953 40.1877 54.7752 40.1998 54.7522C40.212 54.7293 40.2192 54.7041 40.2212 54.6782C40.1809 54.5326 40.1116 54.3966 40.0174 54.2784L39.1315 52.9692L38.8414 53.2593V54.0432C38.8168 54.2613 38.8464 54.4821 38.9277 54.686C39.0332 54.7948 39.1761 54.8593 39.3275 54.8664V55.0153H37.0148V54.8664C37.0916 54.8606 37.1666 54.8397 37.2352 54.8047C37.3039 54.7697 37.3649 54.7214 37.4146 54.6625C37.4825 54.4636 37.5066 54.2523 37.4852 54.0432V49.4727C37.5095 49.2521 37.4799 49.0288 37.399 48.8221C37.3519 48.7358 37.2186 48.6888 37.0148 48.6653V48.4928L38.8101 48.5163Z" fill="#221F20"/>
<path fill-rule="evenodd" clip-rule="evenodd" d="M51.3223 41.6959H65.9039C66.7355 41.6959 67.5332 42.0263 68.1212 42.6144C68.7093 43.2025 69.0397 44.0001 69.0397 44.8317V60.8793C69.0397 61.711 68.7093 62.5086 68.1212 63.0967C67.5332 63.6848 66.7355 64.0151 65.9039 64.0151H51.3223C50.4906 64.0151 49.693 63.6848 49.1049 63.0967C48.5168 62.5086 48.1865 61.711 48.1865 60.8793V55.0153L45.1604 52.8595L48.1865 50.7036V44.8317C48.1865 44.0001 48.5168 43.2025 49.1049 42.6144C49.693 42.0263 50.4906 41.6959 51.3223 41.6959Z" fill="#FAB31E" stroke="#F8F8F8" stroke-width="0.85" stroke-miterlimit="10"/>
<path d="M53.4783 53.7846H57.8998L57.4294 55.3525H52.9844L53.4783 53.7846ZM61.5844 47.4502C61.8746 47.4512 62.1541 47.5602 62.3683 47.7559C62.4748 47.861 62.5593 47.9861 62.617 48.124C62.6746 48.262 62.7043 48.41 62.7043 48.5595C62.7043 48.709 62.6746 48.8571 62.617 48.995C62.5593 49.1329 62.4748 49.258 62.3683 49.3631C62.2652 49.4645 62.1426 49.544 62.0078 49.5965C61.873 49.6491 61.729 49.6737 61.5844 49.6688C61.4397 49.6746 61.2954 49.6505 61.1605 49.5979C61.0255 49.5452 60.903 49.4653 60.8004 49.3631C60.5893 49.1489 60.4709 48.8602 60.4709 48.5595C60.4709 48.2588 60.5893 47.9701 60.8004 47.7559C60.9046 47.6559 61.0274 47.5774 61.1619 47.525C61.2965 47.4725 61.44 47.4471 61.5844 47.4502ZM62.2116 50.9388L60.5417 56.2932C60.464 56.4842 60.4113 56.6845 60.3849 56.889C60.3834 56.9189 60.389 56.9487 60.4012 56.976C60.4135 57.0032 60.4321 57.0272 60.4555 57.0458C60.4729 57.0722 60.4961 57.0944 60.5232 57.1107C60.5503 57.1269 60.5808 57.1369 60.6123 57.1399C60.6985 57.1399 60.7612 57.0929 60.8553 57.0066C61.1698 56.6898 61.446 56.3372 61.6784 55.9561L61.9215 56.1129C61.1584 57.4927 60.3431 58.1826 59.4755 58.1826C59.19 58.1954 58.9101 58.1003 58.6916 57.916C58.5958 57.8292 58.5202 57.7224 58.4701 57.6032C58.42 57.484 58.3966 57.3553 58.4015 57.2261C58.4115 56.9832 58.4563 56.7429 58.5348 56.5127L59.695 52.8673C59.7904 52.6158 59.8485 52.3517 59.8675 52.0834C59.87 52.0254 59.8568 51.9678 59.8292 51.9167C59.8016 51.8656 59.7606 51.823 59.7107 51.7933C59.5896 51.7007 59.4398 51.6535 59.2874 51.66H59.0052L59.0914 51.3543L61.7568 50.931L62.2116 50.9388Z" fill="#221F20"/>
</svg>
