<svg width="58" height="40" viewBox="0 0 58 40" fill="none" xmlns="http://www.w3.org/2000/svg">
<g clip-path="url(#clip0_338_887)">
<path fill-rule="evenodd" clip-rule="evenodd" d="M5.83969 0.430054H52.0197C54.9997 0.430054 57.4297 2.87005 57.4297 5.84005V33.4201C57.4297 36.4001 54.9897 38.8301 52.0197 38.8301H5.83969C2.85969 38.8301 0.429688 36.3901 0.429688 33.4201V5.84005C0.429688 2.86005 2.85969 0.430054 5.83969 0.430054Z" fill="#FAB31E" stroke="white" stroke-width="0.8504" stroke-miterlimit="10"/>
<path d="M19.9002 9.84003H26.3302L25.6502 12.14H19.1602L19.9002 9.84003ZM30.1302 11.76C30.0402 12.24 30.0202 12.64 30.0202 12.95C30.0202 13.52 30.1902 13.97 30.5002 14.28C30.8402 14.62 31.2702 14.79 31.8002 14.79C32.3102 14.79 32.8502 14.68 33.3602 14.45C33.8702 14.22 34.4902 13.85 35.1702 13.29L35.5102 13.57C34.6602 14.53 33.8402 15.21 33.0402 15.64C32.2202 16.04 31.3402 16.24 30.3502 16.24C29.1302 16.24 28.2802 15.96 27.8002 15.36C27.3202 14.76 27.0902 14.08 27.0902 13.32C27.0902 12.1 27.4302 10.88 28.1402 9.66003C28.8502 8.47003 29.8102 7.48003 31.0302 6.77003C32.2502 6.03003 33.4702 5.66003 34.6902 5.66003C35.3102 5.66003 35.8002 5.80003 36.1102 6.11003C36.4202 6.39003 36.5902 6.76003 36.5902 7.22003C36.5902 7.76003 36.4202 8.27003 36.1102 8.78003C35.6802 9.49003 35.1502 10.06 34.4902 10.48C33.8402 10.91 33.1002 11.22 32.3102 11.44C31.7802 11.59 31.0402 11.71 30.1302 11.76ZM30.2202 11.2C30.8702 11.11 31.3802 10.97 31.7502 10.83C32.1202 10.66 32.4602 10.38 32.8302 10.04C33.1702 9.67003 33.4502 9.22003 33.7102 8.65003C33.9702 8.08003 34.1102 7.57003 34.1102 7.09003C34.1102 6.89003 34.0502 6.72003 33.9102 6.61003C33.8002 6.50003 33.6502 6.41003 33.4802 6.41003C33.1102 6.41003 32.7102 6.67003 32.2602 7.15003C31.4602 8.05003 30.7802 9.41003 30.2202 11.2ZM19.9002 27.16H26.3302L25.6502 29.48H19.1602L19.9002 27.16ZM33.2802 23.02L30.9002 30.53C30.7902 30.87 30.7302 31.13 30.7302 31.27C30.7302 31.33 30.7602 31.38 30.8202 31.41C30.8802 31.47 30.9302 31.5 31.0202 31.5C31.3602 31.5 31.8102 31.22 32.3502 30.59C33.1402 29.71 33.9902 28.46 34.8702 26.82L35.8902 23.42L38.7002 23.33L36.5202 30.67C36.3202 31.29 36.2402 31.66 36.2402 31.75C36.2402 31.81 36.2702 31.86 36.3302 31.92C36.3902 32.01 36.4402 32.03 36.5002 32.03C36.6102 32.03 36.7002 31.97 36.8102 31.89C37.0702 31.69 37.4302 31.27 37.8602 30.64L38.2602 30.9C37.2102 32.69 36.0802 33.59 34.8602 33.59C34.3802 33.59 34.0102 33.48 33.7502 33.25C33.4902 33.02 33.3502 32.71 33.3502 32.34C33.3502 31.94 33.4602 31.43 33.6302 30.81L34.2002 28.94C33.2602 30.33 32.5602 31.26 32.1302 31.75C31.4802 32.49 30.9102 32.97 30.4602 33.22C30.0102 33.48 29.5802 33.59 29.1602 33.59C28.7902 33.59 28.4502 33.45 28.1702 33.16C27.8902 32.88 27.7402 32.51 27.7402 32.08C27.7402 31.68 27.8502 31.17 28.0502 30.55L29.4402 26.13C29.6402 25.39 29.7502 24.91 29.7502 24.66C29.7502 24.55 29.7202 24.46 29.6602 24.38C29.6002 24.29 29.5202 24.21 29.3802 24.18C29.2702 24.12 29.0702 24.09 28.7602 24.09L28.8702 23.66L32.6102 23.01H33.2802V23.02Z" fill="#221F20"/>
</g>
<defs>
<clipPath id="clip0_338_887">
<rect width="57.86" height="39.26" fill="white"/>
</clipPath>
</defs>
</svg>
