<svg width="122" height="40" viewBox="0 0 122 40" fill="none" xmlns="http://www.w3.org/2000/svg">
<g clip-path="url(#clip0_338_883)">
<path fill-rule="evenodd" clip-rule="evenodd" d="M5.83969 0.430054H115.77C118.75 0.430054 121.18 2.87005 121.18 5.84005V33.4201C121.18 36.4001 118.74 38.8301 115.77 38.8301H5.83969C2.85969 38.8301 0.429688 36.3901 0.429688 33.4201V5.84005C0.429688 2.86005 2.85969 0.430054 5.83969 0.430054Z" fill="#F5C0C0" stroke="white" stroke-width="0.8504" stroke-miterlimit="10"/>
<path d="M21.8298 18.7401H28.2598L27.5798 21.0601H21.0898L21.8298 18.7401ZM29.1398 15.6201L32.5098 14.6001C32.7898 14.9401 32.9598 15.2501 33.0798 15.5601C33.2798 16.0701 33.4198 16.8101 33.5098 17.7101C33.6798 19.5501 33.7698 21.4801 33.8198 23.5501C34.6098 22.5001 35.5198 21.1101 36.5398 19.4101C36.8498 18.9001 36.9898 18.3901 36.9898 17.9401C36.9898 17.6601 36.8198 17.3701 36.4798 17.1201C36.1098 16.8601 35.8798 16.6701 35.7998 16.5201C35.7098 16.3801 35.6598 16.1801 35.6598 15.9501C35.6598 15.5801 35.7998 15.2701 36.0898 14.9901C36.3498 14.7101 36.6898 14.5901 37.0498 14.5901C37.4498 14.5901 37.8198 14.7301 38.0998 15.0401C38.4098 15.3501 38.5498 15.7201 38.5498 16.1501C38.5498 16.6301 38.4098 17.2301 38.1198 17.8801C37.8598 18.5301 37.2098 19.6401 36.1898 21.2201C34.8898 23.2601 33.6098 25.0201 32.3298 26.5201C31.5398 27.4601 30.8798 28.1401 30.3998 28.5601C29.8898 28.9901 29.3798 29.3301 28.8398 29.5501C28.5298 29.6901 28.2198 29.7801 27.8998 29.7801C27.4698 29.7801 27.1098 29.6101 26.8198 29.3301C26.5098 29.0201 26.3698 28.6801 26.3698 28.2801C26.3698 27.8501 26.5098 27.5101 26.7698 27.2301C27.0498 26.9501 27.3698 26.8001 27.7298 26.8001C28.1798 26.8001 28.5798 27.0601 28.9498 27.5101C29.2098 27.8201 29.4298 27.9901 29.5698 27.9901C29.7398 27.9901 29.9098 27.9301 30.0798 27.8501C30.3098 27.7401 30.6198 27.4501 31.0198 27.0301C31.0798 26.1201 31.0798 25.4101 31.0798 24.9301C31.0798 24.3101 31.0498 23.4001 30.9898 22.2701L30.8198 18.0501C30.7298 17.2801 30.5898 16.7201 30.3098 16.3801C30.1098 16.1201 29.8598 16.0101 29.5198 16.0101C29.4098 16.0101 29.2598 16.0101 29.1198 16.0401V15.6201H29.1398ZM47.1398 22.2201L47.4798 22.5001C46.7398 23.3501 46.0298 23.9701 45.3498 24.3701C44.4098 24.9101 43.4498 25.1601 42.4598 25.1601C41.8098 25.1601 41.2098 25.0201 40.6998 24.7301C40.1598 24.4501 39.7898 24.0501 39.5398 23.5401C39.3098 23.0001 39.1698 22.4901 39.1698 21.9501C39.1698 20.7301 39.5098 19.5401 40.1598 18.3801C40.8098 17.2201 41.6898 16.2801 42.7698 15.6001C43.8798 14.9201 44.9198 14.5801 45.9698 14.5801C46.7898 14.5801 47.4398 14.7501 47.8698 15.1201C48.2698 15.4901 48.4898 15.9401 48.4898 16.4801C48.4898 16.9901 48.3198 17.4201 48.0098 17.7601C47.6998 18.1001 47.3298 18.2701 46.9298 18.2701C46.5898 18.2701 46.3098 18.1601 46.0798 17.9301C45.8498 17.7301 45.7398 17.4501 45.7398 17.1601C45.7398 16.7601 45.9398 16.3901 46.3398 16.1101C46.6198 15.9101 46.7698 15.7101 46.7698 15.5701C46.7698 15.4301 46.7098 15.3101 46.5998 15.2301C46.4598 15.1201 46.2598 15.0601 46.0298 15.0601C45.4098 15.0601 44.8098 15.3201 44.2698 15.8301C43.5298 16.4801 42.9698 17.3301 42.5998 18.3501C42.1998 19.3701 42.0298 20.3301 42.0298 21.2701C42.0298 21.9801 42.1998 22.5701 42.5998 23.0001C42.9998 23.4301 43.4798 23.6501 44.0198 23.6501C44.4998 23.6501 45.0098 23.5401 45.5498 23.2801C46.1198 23.0701 46.6298 22.7101 47.1398 22.2201ZM56.2098 9.47008L53.2898 19.4801C54.3098 18.0101 55.0498 17.0101 55.5298 16.5001C56.2098 15.7601 56.8098 15.2501 57.3198 14.9701C57.7998 14.7101 58.2798 14.6001 58.7398 14.6001C59.1398 14.6001 59.4498 14.7401 59.7298 15.0301C60.0098 15.3401 60.1598 15.7401 60.1598 16.2201C60.1598 16.6201 60.0498 17.1301 59.8498 17.7201L58.3198 22.4301C58.1798 22.8301 58.1198 23.1101 58.1198 23.2501C58.1198 23.3101 58.1498 23.3601 58.2098 23.4201C58.2398 23.4801 58.3198 23.5101 58.3798 23.5101C58.4698 23.5101 58.5498 23.4801 58.6398 23.4001C58.8998 23.2301 59.1498 22.9201 59.4098 22.5201C59.4698 22.4301 59.5798 22.2601 59.7198 22.0701L60.1498 22.3301C59.5298 23.3501 58.8998 24.0601 58.3398 24.4601C57.7398 24.8001 57.1698 25.0001 56.6598 25.0001C56.2098 25.0001 55.8398 24.8901 55.5798 24.6601C55.3198 24.4001 55.1798 24.1201 55.1798 23.7501C55.1798 23.4401 55.2898 22.9801 55.4598 22.3901L56.9998 17.6601C57.0898 17.3201 57.1398 17.0901 57.1398 16.9501C57.1398 16.8601 57.1098 16.7801 57.0498 16.7201C56.9598 16.6601 56.9098 16.6301 56.8198 16.6301C56.5398 16.6301 56.1698 16.8601 55.6898 17.2801C54.6998 18.1901 53.6798 19.6301 52.6898 21.5601L51.7298 24.8501H48.9498L52.6398 12.3501C52.7798 11.8101 52.8698 11.4401 52.8698 11.1901C52.8698 11.0201 52.7798 10.8801 52.6098 10.7601C52.3798 10.6201 52.0698 10.5601 51.5898 10.5901L51.6998 10.1401L55.5298 9.46008H56.2098V9.47008ZM60.9198 28.5201L60.6598 28.0701C61.7898 27.4201 62.4998 26.9401 62.7898 26.6001C62.9898 26.3401 63.0998 26.0901 63.0998 25.8301C63.0998 25.5201 62.8998 25.2101 62.5298 24.8701C62.1298 24.5001 61.8798 24.2201 61.7598 23.9601C61.6698 23.7901 61.6198 23.5301 61.6198 23.2501C61.6198 22.7701 61.7898 22.3701 62.1598 22.0301C62.5298 21.6601 62.9498 21.4901 63.4598 21.4901C63.9398 21.4901 64.3698 21.6901 64.7398 22.0901C65.1098 22.4901 65.3098 22.9701 65.3098 23.5601C65.3098 24.4701 64.9398 25.3701 64.2298 26.2801C63.5198 27.1801 62.4198 27.9201 60.9198 28.5201ZM77.8098 9.47008C78.2598 9.47008 78.6598 9.64008 78.9698 9.95008C79.2798 10.2901 79.4498 10.6601 79.4498 11.1101C79.4498 11.5601 79.2798 11.9601 78.9698 12.2701C78.6598 12.5801 78.2598 12.7501 77.8098 12.7501C77.3598 12.7501 76.9898 12.5801 76.6498 12.2701C76.3398 11.9601 76.1698 11.5601 76.1698 11.1101C76.1698 10.6601 76.3398 10.2901 76.6498 9.95008C76.9598 9.64008 77.3598 9.47008 77.8098 9.47008ZM78.7198 14.6001L76.2498 22.4001C76.1398 22.8501 76.0498 23.1401 76.0498 23.2801C76.0498 23.3701 76.0798 23.4501 76.1598 23.5101C76.2198 23.6001 76.2698 23.6201 76.3598 23.6201C76.4698 23.6201 76.6198 23.5601 76.7298 23.4501C77.0698 23.1701 77.4398 22.6601 77.9198 21.9201L78.2898 22.1501C77.1598 24.1601 75.9698 25.1801 74.6898 25.1801C74.2098 25.1801 73.8398 25.0401 73.5598 24.7801C73.2498 24.5001 73.1098 24.1601 73.1098 23.7601C73.1098 23.4801 73.1998 23.1401 73.3398 22.7101L75.0398 17.4101C75.1798 16.9001 75.2698 16.5301 75.2698 16.2801C75.2698 16.1101 75.2098 15.9701 75.0398 15.8501C74.8998 15.7101 74.6998 15.6501 74.4398 15.6501C74.2998 15.6501 74.1598 15.6501 74.0098 15.6501L74.1198 15.2001L78.0298 14.6001H78.7198ZM87.5098 22.2201L87.8498 22.5001C87.1398 23.3501 86.4298 23.9701 85.7198 24.3701C84.7799 24.9101 83.8498 25.1601 82.8298 25.1601C82.1798 25.1601 81.5798 25.0201 81.0698 24.7301C80.5598 24.4501 80.1598 24.0501 79.9398 23.5401C79.6798 23.0001 79.5698 22.4901 79.5698 21.9501C79.5698 20.7301 79.8798 19.5401 80.5598 18.3801C81.2098 17.2201 82.0598 16.2801 83.1698 15.6001C84.2498 14.9201 85.2998 14.5801 86.3398 14.5801C87.1898 14.5801 87.8098 14.7501 88.2398 15.1201C88.6698 15.4901 88.8598 15.9401 88.8598 16.4801C88.8598 16.9901 88.7198 17.4201 88.3798 17.7601C88.0698 18.1001 87.6999 18.2701 87.2999 18.2701C86.9599 18.2701 86.6798 18.1601 86.4498 17.9301C86.2198 17.7301 86.1098 17.4501 86.1098 17.1601C86.1098 16.7601 86.3098 16.3901 86.7098 16.1101C86.9898 15.9101 87.1398 15.7101 87.1398 15.5701C87.1398 15.4301 87.0798 15.3101 86.9698 15.2301C86.8298 15.1201 86.6298 15.0601 86.3998 15.0601C85.7798 15.0601 85.1798 15.3201 84.6398 15.8301C83.8998 16.4801 83.3598 17.3301 82.9698 18.3501C82.5998 19.3701 82.3998 20.3301 82.3998 21.2701C82.3998 21.9801 82.5998 22.5701 82.9998 23.0001C83.3998 23.4301 83.8498 23.6501 84.3898 23.6501C84.8698 23.6501 85.3798 23.5401 85.9198 23.2801C86.4898 23.0701 87.0198 22.7101 87.5098 22.2201ZM96.5798 9.47008L93.6599 19.4801C94.6798 18.0101 95.4498 17.0101 95.8998 16.5001C96.5798 15.7601 97.1798 15.2501 97.6898 14.9701C98.1699 14.7101 98.6498 14.6001 99.1098 14.6001C99.5098 14.6001 99.8498 14.7401 100.1 15.0301C100.38 15.3401 100.53 15.7401 100.53 16.2201C100.53 16.6201 100.42 17.1301 100.25 17.7201L98.6898 22.4301C98.5798 22.8301 98.4898 23.1101 98.4898 23.2501C98.4898 23.3101 98.5199 23.3601 98.5798 23.4201C98.6398 23.4801 98.6898 23.5101 98.7498 23.5101C98.8398 23.5101 98.9198 23.4801 99.0298 23.4001C99.2598 23.2301 99.5098 22.9201 99.7698 22.5201C99.8598 22.4301 99.9398 22.2601 100.08 22.0701L100.53 22.3301C99.8798 23.3501 99.2498 24.0601 98.6898 24.4601C98.1098 24.8001 97.5698 25.0001 97.0598 25.0001C96.5798 25.0001 96.2098 24.8901 95.9498 24.6601C95.6898 24.4001 95.5499 24.1201 95.5499 23.7501C95.5499 23.4401 95.6599 22.9801 95.8598 22.3901L97.3598 17.6601C97.4498 17.3201 97.4998 17.0901 97.4998 16.9501C97.4998 16.8601 97.4698 16.7801 97.4099 16.7201C97.3199 16.6601 97.2698 16.6301 97.1798 16.6301C96.8998 16.6301 96.5299 16.8601 96.0499 17.2801C95.0599 18.1901 94.0698 19.6301 93.0698 21.5601L92.0798 24.8501H89.2999L92.9998 12.3601C93.1398 11.8201 93.2298 11.4501 93.2298 11.2001C93.2298 11.0301 93.1398 10.8901 92.9698 10.7701C92.7699 10.6301 92.4298 10.5701 91.9798 10.6001L92.0698 10.1501L95.8998 9.47008H96.5798Z" fill="#221F20"/>
</g>
<defs>
<clipPath id="clip0_338_883">
<rect width="121.61" height="39.26" fill="white"/>
</clipPath>
</defs>
</svg>
