<svg width="73" height="48" viewBox="0 0 73 48" fill="none" xmlns="http://www.w3.org/2000/svg">
<g clip-path="url(#clip0_338_864)">
<path fill-rule="evenodd" clip-rule="evenodd" d="M5.83969 0.430054H52.0197C54.9997 0.430054 57.4297 2.87005 57.4297 5.84005V37.9301C57.4297 40.9101 54.9897 43.3401 52.0197 43.3401H5.83969C2.85969 43.3401 0.429688 40.9001 0.429688 37.9301V5.84005C0.429688 2.86005 2.85969 0.430054 5.83969 0.430054Z" fill="#F5C0C0" stroke="white" stroke-width="0.8504" stroke-miterlimit="10"/>
<path fill-rule="evenodd" clip-rule="evenodd" d="M43.46 25.17H68.77C70.41 25.17 71.77 26.53 71.77 28.2V43.68C71.77 45.35 70.41 46.71 68.77 46.71H43.46C41.82 46.71 40.43 45.35 40.43 43.68V38.49L36.29 35.94L40.43 33.39V28.2C40.42 26.53 41.78 25.17 43.46 25.17Z" fill="#F5C0C0" stroke="white" stroke-width="0.8504" stroke-miterlimit="10"/>
<path d="M12.4698 12.2201H18.9298L18.2498 14.5401H11.7598L12.4698 12.2201ZM19.7898 9.10007L23.1898 8.08007C23.4498 8.42007 23.6398 8.73007 23.7598 9.04007C23.9598 9.55007 24.0998 10.2901 24.1898 11.1901C24.3298 13.0301 24.4498 14.9601 24.4998 17.0301C25.2898 15.9801 26.1998 14.5901 27.2198 12.8901C27.5298 12.3801 27.6698 11.8701 27.6698 11.4201C27.6698 11.1401 27.4998 10.8501 27.1298 10.6001C26.7898 10.3401 26.5598 10.1501 26.4798 10.0001C26.3998 9.85007 26.3398 9.66007 26.3398 9.43007C26.3398 9.06007 26.4798 8.75007 26.7398 8.47007C27.0198 8.19007 27.3398 8.07007 27.7298 8.07007C28.1198 8.07007 28.4698 8.21007 28.7798 8.52007C29.0898 8.83007 29.2298 9.20007 29.2298 9.63007C29.2298 10.1101 29.0898 10.6801 28.7998 11.3601C28.5198 12.0101 27.8598 13.1201 26.8698 14.7001C25.5698 16.7401 24.2598 18.5001 23.0098 20.0001C22.2198 20.9401 21.5598 21.6201 21.0498 22.0401C20.5698 22.4701 20.0298 22.7801 19.5198 23.0301C19.1798 23.1701 18.8698 23.2301 18.5598 23.2301C18.1298 23.2301 17.7898 23.0901 17.4798 22.8001C17.1998 22.4901 17.0298 22.1501 17.0298 21.7501C17.0298 21.3201 17.1698 20.9801 17.4598 20.7001C17.7198 20.4201 18.0298 20.2701 18.3998 20.2701C18.8498 20.2701 19.2798 20.5301 19.6498 20.9801C19.9098 21.2901 20.0998 21.4601 20.2698 21.4601C20.4398 21.4601 20.6098 21.4001 20.7798 21.3201C20.9798 21.2101 21.2898 20.9201 21.7198 20.5001C21.7498 19.5601 21.7798 18.8801 21.7798 18.4001C21.7798 17.7801 21.7498 16.8701 21.6898 15.7401L21.4898 11.5201C21.4298 10.7501 21.2598 10.1901 21.0098 9.85007C20.8098 9.59007 20.5298 9.48007 20.2198 9.48007C20.1098 9.48007 19.9598 9.48007 19.7898 9.51007V9.10007ZM35.3998 8.08007L33.9498 12.8401C34.8898 11.3701 35.5898 10.3701 36.0198 9.86007C36.6698 9.12007 37.2098 8.64007 37.6398 8.41007C38.0698 8.18007 38.4598 8.07007 38.8898 8.07007C39.3698 8.07007 39.7398 8.21007 39.9398 8.50007C40.1698 8.81007 40.2498 9.12007 40.2498 9.49007C40.2498 9.83007 40.1598 10.3701 39.9698 11.0501L39.4298 12.8401C40.4798 11.3701 41.2198 10.3701 41.6698 9.89007C42.3498 9.12007 42.9698 8.61007 43.4798 8.36007C43.8498 8.16007 44.2198 8.08007 44.6098 8.08007C45.0398 8.08007 45.3998 8.22007 45.6598 8.51007C45.9398 8.79007 46.0898 9.19007 46.0898 9.64007C46.0898 10.0901 45.9798 10.7201 45.7198 11.4501L44.3898 15.5001C44.1898 16.1201 44.0798 16.4901 44.0798 16.6601C44.0798 16.7201 44.1098 16.7701 44.1698 16.8301C44.1998 16.8901 44.2598 16.9201 44.3098 16.9201C44.3998 16.9201 44.4798 16.8901 44.5398 16.8301C44.7998 16.6301 45.0798 16.3201 45.3898 15.8901C45.4498 15.8001 45.5598 15.6901 45.6698 15.4901L46.0698 15.7501C45.5598 16.6901 44.9898 17.3701 44.3698 17.7901C43.7698 18.2401 43.2098 18.4401 42.6698 18.4401C42.2198 18.4401 41.8498 18.3301 41.5898 18.0701C41.3098 17.8401 41.1598 17.5601 41.1598 17.2201C41.1598 16.9101 41.2698 16.4301 41.4698 15.7701L42.8598 11.4001C43.0298 10.8001 43.1398 10.4401 43.1398 10.2901C43.1398 10.2301 43.1098 10.1801 43.0498 10.1201C42.9598 10.0901 42.9098 10.0601 42.8498 10.0601C42.7398 10.0601 42.6498 10.0901 42.5398 10.1201C42.3698 10.2101 42.1098 10.4001 41.7998 10.7201C41.4598 11.0301 40.9798 11.5701 40.3498 12.3901C39.7298 13.1801 39.2998 13.8101 39.0998 14.2601C38.8698 14.7101 38.6698 15.3101 38.4498 16.0501L37.7398 18.3201H34.9298L37.0798 11.0901C37.1898 10.6901 37.2498 10.4101 37.2498 10.2701C37.2498 10.2101 37.2198 10.1801 37.1598 10.1301C37.0998 10.1001 37.0698 10.0701 37.0198 10.0701C36.7398 10.0701 36.3098 10.4101 35.7198 11.1501C34.8098 12.2601 33.9898 13.6201 33.2498 15.1801L32.3098 18.3301H29.4498L31.5998 11.2201C31.8298 10.5101 31.9098 10.0301 31.9098 9.72007C31.9098 9.61007 31.8798 9.52007 31.8198 9.44007C31.7598 9.35007 31.6498 9.27007 31.5098 9.24007C31.3698 9.18007 31.1098 9.15007 30.6898 9.15007L30.7798 8.72007L34.6898 8.07007H35.3998V8.08007Z" fill="#221F20"/>
<path d="M46.1502 36.6001H50.4002L49.9702 38.1301H45.6602L46.1502 36.6001ZM53.9702 30.4701C54.2802 30.4701 54.5402 30.5801 54.7402 30.7801C54.9702 31.0101 55.0502 31.2301 55.0502 31.5501C55.0502 31.8601 54.9602 32.1201 54.7402 32.3201C54.5402 32.5201 54.2902 32.6301 53.9702 32.6301C53.6902 32.6301 53.4302 32.5201 53.2002 32.3201C53.0002 32.1201 52.8902 31.8701 52.8902 31.5501C52.8902 31.2401 53.0002 31.0101 53.2002 30.7801C53.4302 30.5901 53.6902 30.4701 53.9702 30.4701ZM54.5702 33.8501L52.9502 39.0001C52.8602 39.2801 52.8102 39.4801 52.8102 39.5701C52.8102 39.6301 52.8402 39.6801 52.9002 39.7401C52.9302 39.8001 52.9902 39.8301 53.0402 39.8301C53.1002 39.8301 53.1802 39.7701 53.2702 39.6901C53.5002 39.5201 53.7502 39.1801 54.0602 38.6701L54.3202 38.8401C53.5502 40.1701 52.7602 40.8501 51.9402 40.8501C51.6302 40.8501 51.3702 40.7601 51.1702 40.5701C50.9702 40.4001 50.8902 40.1701 50.8902 39.9201C50.8902 39.7201 50.9202 39.4901 51.0302 39.2101L52.1402 35.7201C52.2502 35.3801 52.3102 35.1201 52.3102 34.9501C52.3102 34.8401 52.2502 34.7501 52.1702 34.6701C52.0602 34.5801 51.9102 34.5601 51.7402 34.5601C51.6802 34.5601 51.5702 34.5601 51.4602 34.5601L51.5702 34.2501L54.1202 33.8501H54.5702ZM58.8202 33.8501L57.8602 37.0001C58.4802 36.0401 58.9402 35.3801 59.2202 35.0401C59.6502 34.5601 60.0102 34.2201 60.2702 34.0801C60.5502 33.9401 60.8402 33.8501 61.1202 33.8501C61.4302 33.8501 61.6602 33.9401 61.8002 34.1301C61.9402 34.3201 62.0302 34.5601 62.0302 34.7801C62.0302 35.0001 61.9402 35.3801 61.8002 35.8301L61.4602 36.9901C62.1402 36.0301 62.6502 35.3701 62.9302 35.0301C63.4102 34.5501 63.8102 34.2101 64.1502 34.0401C64.3802 33.9001 64.6302 33.8401 64.8902 33.8401C65.1702 33.8401 65.4002 33.9301 65.6002 34.1201C65.7702 34.3201 65.8802 34.5701 65.8802 34.8901C65.8802 35.2101 65.7902 35.6001 65.6202 36.0801L64.7402 38.7701C64.6002 39.1701 64.5402 39.4201 64.5402 39.5401C64.5402 39.5701 64.5402 39.6001 64.5702 39.6501C64.6302 39.6801 64.6602 39.6801 64.6802 39.6801C64.7402 39.6801 64.7902 39.6801 64.8202 39.6501C64.9902 39.5101 65.1902 39.2801 65.3902 39.0301C65.4202 38.9701 65.5002 38.8901 65.5902 38.7701L65.8502 38.9101C65.5102 39.5301 65.1402 39.9901 64.7202 40.2701C64.3202 40.5501 63.9502 40.7001 63.6102 40.7001C63.3002 40.7001 63.0702 40.6401 62.8702 40.4701C62.7002 40.3001 62.6102 40.1001 62.6102 39.9001C62.6102 39.6701 62.6702 39.3601 62.8102 38.9401L63.7202 36.0801C63.8302 35.6501 63.9202 35.4301 63.9202 35.3101C63.9202 35.2801 63.8902 35.2501 63.8602 35.2201C63.8002 35.1901 63.7702 35.1601 63.7202 35.1601C63.6602 35.1601 63.5802 35.1901 63.5202 35.2201C63.4102 35.2501 63.2402 35.3901 63.0402 35.5901C62.8102 35.7901 62.5002 36.1601 62.0802 36.7001C61.6802 37.2401 61.4002 37.6601 61.2602 37.9501C61.1202 38.2601 60.9802 38.6301 60.8302 39.1101L60.3802 40.6401H58.5102L59.9302 35.8501C60.0202 35.5901 60.0402 35.4001 60.0402 35.3101C60.0402 35.2801 60.0102 35.2501 59.9802 35.2201C59.9502 35.1901 59.9202 35.1601 59.8902 35.1601C59.6902 35.1601 59.4102 35.3901 59.0102 35.8701C58.4102 36.6101 57.8802 37.5101 57.3902 38.5301L56.7702 40.6301H54.9002L56.3202 35.9201C56.4602 35.4401 56.5202 35.1301 56.5202 34.9301C56.5202 34.8401 56.4902 34.7901 56.4602 34.7301C56.4002 34.6701 56.3502 34.6201 56.2602 34.5901C56.1502 34.5601 55.9802 34.5301 55.7202 34.5301L55.7802 34.2501L58.3602 33.8201H58.8202V33.8501Z" fill="#221F20"/>
<path d="M17.0095 31.4401V35.5801L17.9995 34.5801C18.1995 34.3801 18.3395 34.2401 18.3995 34.1301C18.4295 34.0401 18.4595 33.9601 18.4595 33.8701C18.4595 33.7801 18.4295 33.7301 18.3695 33.6701C18.2795 33.6101 18.1695 33.5601 17.9695 33.5301V33.3901H19.8995V33.5301C19.7295 33.5601 19.5595 33.5901 19.4195 33.6701C19.2795 33.7601 19.0195 33.9801 18.5995 34.3801L18.1495 34.8601L19.1695 36.3301C19.5695 36.9501 19.8195 37.2901 19.8795 37.3501C19.9895 37.4601 20.1395 37.5201 20.2795 37.5501V37.6901H18.0695V37.5501C18.1595 37.5501 18.2395 37.5201 18.2695 37.4901C18.3295 37.4301 18.3595 37.4001 18.3595 37.3501C18.3595 37.2901 18.2695 37.1501 18.1595 36.9801L17.2795 35.7001L17.0095 36.0001V36.7701C17.0095 37.1101 17.0395 37.3101 17.0995 37.3901C17.1595 37.4801 17.2695 37.5301 17.4695 37.5601V37.7001H15.2295V37.5601C15.4295 37.5301 15.5395 37.4701 15.6295 37.3601C15.6895 37.3001 15.7195 37.1001 15.7195 36.7601V32.3701C15.7195 32.0301 15.6895 31.8301 15.6295 31.7501C15.5695 31.6601 15.4295 31.6101 15.2295 31.6101V31.4401H17.0095ZM23.0195 39.3701V39.1701C23.3895 39.0001 23.6395 38.8001 23.8095 38.5701C23.9495 38.3101 24.0395 38.0601 24.0395 37.8001C24.0395 37.7401 24.0395 37.7101 24.0095 37.6901C23.9795 37.6601 23.9495 37.6301 23.9495 37.6301C23.9195 37.6301 23.8895 37.6601 23.8595 37.6901C23.7695 37.7201 23.6595 37.7501 23.5195 37.7501C23.3495 37.7501 23.1795 37.6901 23.0395 37.5501C22.9295 37.4101 22.8395 37.2401 22.8395 37.0401C22.8395 36.8401 22.9295 36.6701 23.0695 36.5001C23.2395 36.3601 23.4095 36.2701 23.6395 36.2701C23.9195 36.2701 24.1495 36.3801 24.3195 36.5801C24.5195 36.7801 24.5995 37.0601 24.5995 37.4301C24.5995 37.8601 24.4595 38.2501 24.1995 38.5901C23.9495 38.9501 23.5595 39.2001 23.0195 39.3701ZM30.3895 33.4501H31.8395V33.9601H31.0195C31.1595 34.1001 31.2795 34.2401 31.3295 34.3601C31.4195 34.5301 31.4395 34.7001 31.4395 34.9001C31.4395 35.1801 31.3495 35.4701 31.1795 35.6901C31.0095 35.9101 30.7795 36.0901 30.4695 36.2301C30.1895 36.3401 29.9295 36.4001 29.6995 36.4001C29.6695 36.4001 29.4695 36.4001 29.1295 36.3701C28.9895 36.3701 28.8695 36.4301 28.7895 36.5101C28.6795 36.6201 28.6495 36.7101 28.6495 36.8501C28.6495 36.9601 28.6795 37.0501 28.7595 37.1301C28.8495 37.1901 28.9895 37.2201 29.1895 37.2201H29.9795C30.6295 37.2201 31.0895 37.3101 31.3395 37.4501C31.6795 37.6201 31.8495 37.9301 31.8495 38.3601C31.8495 38.6201 31.7595 38.8401 31.5895 39.0701C31.4495 39.2701 31.2195 39.4401 30.9695 39.5501C30.5695 39.6901 30.1195 39.7801 29.6095 39.7801C29.2095 39.7801 28.8395 39.7201 28.5295 39.6701C28.2195 39.5801 27.9895 39.4701 27.8495 39.3601C27.7095 39.2201 27.6195 39.0801 27.6195 38.9301C27.6195 38.7901 27.6795 38.6501 27.7895 38.5301C27.8995 38.4201 28.0995 38.3301 28.3895 38.2501C27.9895 38.0501 27.7895 37.7701 27.7895 37.4301C27.7895 37.2001 27.8795 37.0001 28.0195 36.8101C28.1895 36.6101 28.4495 36.4401 28.8095 36.3001C28.3795 36.1301 28.0995 35.9301 27.8995 35.7001C27.7295 35.4401 27.6195 35.1601 27.6195 34.8201C27.6195 34.4201 27.7895 34.0501 28.1595 33.7401C28.4995 33.4301 28.9295 33.2601 29.4595 33.2601C29.7895 33.2501 30.0795 33.3101 30.3895 33.4501ZM29.5895 33.5601C29.3895 33.5601 29.2495 33.6501 29.1395 33.8201C28.9995 34.0201 28.9395 34.3901 28.9395 34.9501C28.9395 35.4001 28.9995 35.7201 29.1395 35.8901C29.2495 36.0601 29.3995 36.1501 29.5695 36.1501C29.7395 36.1501 29.9095 36.0601 30.0195 35.8901C30.1295 35.7201 30.2195 35.3801 30.2195 34.9001C30.2195 34.3601 30.1295 33.9901 29.9895 33.7901C29.9095 33.6201 29.7595 33.5601 29.5895 33.5601ZM29.3095 38.3501C28.9995 38.3501 28.7995 38.3801 28.6895 38.4401C28.5195 38.5301 28.4295 38.6701 28.4295 38.8101C28.4295 38.9801 28.5195 39.1201 28.6895 39.2401C28.8895 39.3801 29.2295 39.4401 29.7395 39.4401C30.1695 39.4401 30.5095 39.3801 30.7295 39.2701C30.9895 39.1601 31.0995 39.0101 31.0995 38.7901C31.0995 38.7301 31.0695 38.6501 31.0395 38.5901C30.9495 38.5001 30.8095 38.4501 30.6695 38.4201C30.4995 38.3801 30.0495 38.3501 29.3095 38.3501Z" fill="#221F20"/>
</g>
<defs>
<clipPath id="clip0_338_864">
<rect width="72.2" height="47.14" fill="white"/>
</clipPath>
</defs>
</svg>
