<svg width="58" height="40" viewBox="0 0 58 40" fill="none" xmlns="http://www.w3.org/2000/svg">
<g clip-path="url(#clip0_338_879)">
<path fill-rule="evenodd" clip-rule="evenodd" d="M5.83969 0.430054H52.0197C54.9997 0.430054 57.4297 2.87005 57.4297 5.84005V33.4201C57.4297 36.4001 54.9897 38.8301 52.0197 38.8301H5.83969C2.85969 38.8301 0.429688 36.3901 0.429688 33.4201V5.84005C0.429688 2.86005 2.85969 0.430054 5.83969 0.430054Z" fill="#FAB31E" stroke="white" stroke-width="0.8504" stroke-miterlimit="10"/>
<path d="M9.49977 18.4801H15.9298L15.2498 20.8001H8.75977L9.49977 18.4801ZM27.1298 14.4901L24.9498 21.8601L24.7198 22.7701C24.6898 22.8801 24.6898 22.9701 24.6898 23.0301C24.6898 23.1201 24.7198 23.1701 24.7798 23.2601C24.8398 23.3201 24.8898 23.3501 24.9798 23.3501C25.1198 23.3501 25.3198 23.2401 25.5998 23.0101C25.7098 22.9001 25.9698 22.5801 26.3898 21.9901L26.7598 22.1901C26.2498 23.1501 25.6798 23.8301 25.0898 24.2901C24.4898 24.7201 23.8698 24.9401 23.1898 24.9401C22.7598 24.9401 22.4498 24.8301 22.2298 24.6301C21.9998 24.4001 21.8898 24.1501 21.8898 23.8101C21.8898 23.5301 21.9998 22.9901 22.2598 22.1901L22.5198 21.3101C21.6698 22.7601 20.8498 23.8001 20.0498 24.4301C19.5998 24.7701 19.1098 24.9401 18.5798 24.9401C17.8998 24.9401 17.4198 24.6601 17.1098 24.1201C16.8298 23.5501 16.6598 22.9301 16.6598 22.2201C16.6598 21.1701 16.9698 19.9801 17.6198 18.6501C18.2698 17.2901 19.0898 16.2101 20.1398 15.3901C20.9898 14.7101 21.7798 14.3701 22.5498 14.3701C22.9798 14.3701 23.2898 14.4801 23.5398 14.7101C23.7998 14.9701 23.9898 15.3901 24.1098 16.0401L24.5098 14.6801L27.1298 14.4901ZM23.5598 16.6101C23.5598 16.0101 23.4698 15.5901 23.2798 15.3101C23.1698 15.1401 22.9698 15.0501 22.7398 15.0501C22.5098 15.0501 22.2598 15.1401 22.0298 15.3601C21.5198 15.8101 20.9798 16.7501 20.4098 18.1401C19.8098 19.5601 19.5298 20.7501 19.5298 21.7701C19.5298 22.1701 19.5898 22.4501 19.7298 22.6201C19.8398 22.7901 19.9898 22.8801 20.1598 22.8801C20.4998 22.8801 20.8398 22.6801 21.1798 22.3101C21.6598 21.7401 22.1198 21.0901 22.5098 20.3001C23.2198 18.9101 23.5598 17.6901 23.5598 16.6101ZM36.0898 21.9701L36.4298 22.2501C35.7198 23.1001 35.0098 23.7201 34.2998 24.1201C33.3598 24.6601 32.3998 24.9101 31.4098 24.9101C30.7598 24.9101 30.1598 24.7701 29.6498 24.4801C29.1398 24.2001 28.7398 23.8001 28.4898 23.2901C28.2598 22.7801 28.1498 22.2401 28.1498 21.7001C28.1498 20.4801 28.4598 19.2901 29.1098 18.1301C29.7898 16.9701 30.6398 16.0301 31.7498 15.3501C32.8298 14.6701 33.8798 14.3301 34.9198 14.3301C35.7698 14.3301 36.3898 14.5001 36.8198 14.8701C37.2498 15.2401 37.4398 15.6901 37.4398 16.2601C37.4398 16.7401 37.2698 17.1701 36.9598 17.5101C36.6498 17.8501 36.2798 18.0201 35.8798 18.0201C35.5398 18.0201 35.2598 17.9101 35.0298 17.7101C34.7998 17.4801 34.6898 17.2301 34.6898 16.9201C34.6898 16.5201 34.8898 16.1801 35.2898 15.8701C35.5698 15.6701 35.7198 15.5001 35.7198 15.3301C35.7198 15.1901 35.6598 15.0701 35.5498 15.0201C35.4098 14.9101 35.2098 14.8201 34.9798 14.8201C34.3598 14.8201 33.7598 15.0801 33.2198 15.5901C32.4798 16.2701 31.9398 17.0901 31.5498 18.1101C31.1498 19.1301 30.9798 20.1201 30.9798 21.0301C30.9798 21.7701 31.1798 22.3301 31.5798 22.7601C31.9498 23.2101 32.4298 23.4101 32.9698 23.4101C33.4498 23.4101 33.9598 23.3001 34.4998 23.0701C35.0598 22.8201 35.5698 22.4501 36.0898 21.9701ZM45.1598 9.24011L42.2398 19.2201C43.2598 17.7501 44.0298 16.7501 44.4798 16.2401C45.1598 15.5001 45.7598 14.9901 46.2698 14.7401C46.7498 14.4601 47.2298 14.3401 47.6898 14.3401C48.0898 14.3401 48.3998 14.4801 48.6798 14.7901C48.9598 15.0701 49.1098 15.4701 49.1098 15.9501C49.1098 16.3501 48.9998 16.8601 48.8298 17.4501L47.2698 22.1601C47.1298 22.5601 47.0698 22.8401 47.0698 22.9801C47.0698 23.0401 47.0998 23.0901 47.1598 23.1501C47.2198 23.2101 47.2698 23.2401 47.3298 23.2401C47.4198 23.2401 47.4998 23.2101 47.5898 23.1301C47.8498 22.9601 48.0998 22.6801 48.3598 22.2801C48.4198 22.1701 48.5298 22.0201 48.6698 21.8001L49.1198 22.0601C48.4698 23.0801 47.8398 23.7901 47.2798 24.1901C46.7198 24.5901 46.1698 24.7601 45.6398 24.7601C45.1898 24.7601 44.8198 24.6501 44.5598 24.4201C44.2998 24.1901 44.1598 23.8801 44.1598 23.5401C44.1598 23.2001 44.2698 22.7501 44.4398 22.1501L45.9698 17.4201C46.0598 17.0801 46.1098 16.8501 46.1098 16.7101C46.1098 16.6201 46.0798 16.5401 46.0198 16.4801C45.9298 16.4201 45.8798 16.3901 45.7898 16.3901C45.5098 16.3901 45.1398 16.6201 44.6598 17.0401C43.6698 17.9801 42.6798 19.3901 41.6598 21.3501L40.6998 24.6401H37.8998L41.5898 12.1101C41.7298 11.5701 41.8198 11.2001 41.8198 10.9801C41.8198 10.7801 41.7298 10.6401 41.5598 10.5301C41.3598 10.3901 41.0198 10.3301 40.5698 10.3601L40.6598 9.91011L44.4898 9.26011H45.1598V9.24011Z" fill="#221F20"/>
</g>
<defs>
<clipPath id="clip0_338_879">
<rect width="57.86" height="39.26" fill="white"/>
</clipPath>
</defs>
</svg>
