<svg width="73" height="48" viewBox="0 0 73 48" fill="none" xmlns="http://www.w3.org/2000/svg">
<g clip-path="url(#clip0_333_309)">
<path fill-rule="evenodd" clip-rule="evenodd" d="M5.84018 0.430054H52.0202C55.0002 0.430054 57.4302 2.87005 57.4302 5.84005V37.9301C57.4302 40.9101 54.9902 43.3401 52.0202 43.3401H5.84018C2.86018 43.3401 0.430176 40.9001 0.430176 37.9301V5.84005C0.430176 2.86005 2.86018 0.430054 5.84018 0.430054Z" fill="#F5C0C0" stroke="white" stroke-width="0.8504" stroke-miterlimit="10"/>
<path fill-rule="evenodd" clip-rule="evenodd" d="M43.46 25.17H68.77C70.41 25.17 71.77 26.53 71.77 28.2V43.68C71.77 45.35 70.41 46.71 68.77 46.71H43.46C41.82 46.71 40.43 45.35 40.43 43.68V38.49L36.29 35.94L40.43 33.39V28.2C40.42 26.53 41.78 25.17 43.46 25.17Z" fill="#F5C0C0" stroke="white" stroke-width="0.8504" stroke-miterlimit="10"/>
<path d="M12.4703 12.2201H18.9303L18.2503 14.5401H11.7603L12.4703 12.2201ZM19.7903 9.10007L23.1903 8.08007C23.4503 8.42007 23.6403 8.73007 23.7603 9.04007C23.9603 9.55007 24.1003 10.2901 24.1903 11.1901C24.3303 13.0301 24.4503 14.9601 24.5003 17.0301C25.2903 15.9801 26.2003 14.5901 27.2203 12.8901C27.5303 12.3801 27.6703 11.8701 27.6703 11.4201C27.6703 11.1401 27.5003 10.8501 27.1303 10.6001C26.7903 10.3401 26.5603 10.1501 26.4803 10.0001C26.4003 9.85007 26.3403 9.66007 26.3403 9.43007C26.3403 9.06007 26.4803 8.75007 26.7403 8.47007C27.0203 8.19007 27.3403 8.07007 27.7303 8.07007C28.1203 8.07007 28.4703 8.21007 28.7803 8.52007C29.0903 8.83007 29.2303 9.20007 29.2303 9.63007C29.2303 10.1101 29.0903 10.6801 28.8003 11.3601C28.5203 12.0101 27.8603 13.1201 26.8703 14.7001C25.5703 16.7401 24.2603 18.5001 23.0103 20.0001C22.2203 20.9401 21.5603 21.6201 21.0503 22.0401C20.5703 22.4701 20.0303 22.7801 19.5203 23.0301C19.1803 23.1701 18.8703 23.2301 18.5603 23.2301C18.1303 23.2301 17.7903 23.0901 17.4803 22.8001C17.2003 22.4901 17.0303 22.1501 17.0303 21.7501C17.0303 21.3201 17.1703 20.9801 17.4603 20.7001C17.7203 20.4201 18.0303 20.2701 18.4003 20.2701C18.8503 20.2701 19.2803 20.5301 19.6503 20.9801C19.9103 21.2901 20.1003 21.4601 20.2703 21.4601C20.4403 21.4601 20.6103 21.4001 20.7803 21.3201C20.9803 21.2101 21.2903 20.9201 21.7203 20.5001C21.7503 19.5601 21.7803 18.8801 21.7803 18.4001C21.7803 17.7801 21.7503 16.8701 21.6903 15.7401L21.4903 11.5201C21.4303 10.7501 21.2603 10.1901 21.0103 9.85007C20.8103 9.59007 20.5303 9.48007 20.2203 9.48007C20.1103 9.48007 19.9603 9.48007 19.7903 9.51007V9.10007ZM35.4003 8.08007L33.9503 12.8401C34.8903 11.3701 35.5903 10.3701 36.0203 9.86007C36.6703 9.12007 37.2103 8.64007 37.6403 8.41007C38.0703 8.18007 38.4603 8.07007 38.8903 8.07007C39.3703 8.07007 39.7403 8.21007 39.9403 8.50007C40.1703 8.81007 40.2503 9.12007 40.2503 9.49007C40.2503 9.83007 40.1603 10.3701 39.9703 11.0501L39.4303 12.8401C40.4803 11.3701 41.2203 10.3701 41.6703 9.89007C42.3503 9.12007 42.9703 8.61007 43.4803 8.36007C43.8503 8.16007 44.2203 8.08007 44.6103 8.08007C45.0403 8.08007 45.4003 8.22007 45.6603 8.51007C45.9403 8.79007 46.0903 9.19007 46.0903 9.64007C46.0903 10.0901 45.9803 10.7201 45.7203 11.4501L44.3903 15.5001C44.1903 16.1201 44.0803 16.4901 44.0803 16.6601C44.0803 16.7201 44.1102 16.7701 44.1702 16.8301C44.2002 16.8901 44.2603 16.9201 44.3103 16.9201C44.4003 16.9201 44.4803 16.8901 44.5403 16.8301C44.8003 16.6301 45.0802 16.3201 45.3903 15.8901C45.4503 15.8001 45.5602 15.6901 45.6702 15.4901L46.0703 15.7501C45.5603 16.6901 44.9903 17.3701 44.3703 17.7901C43.7703 18.2401 43.2103 18.4401 42.6703 18.4401C42.2203 18.4401 41.8503 18.3301 41.5903 18.0701C41.3103 17.8401 41.1603 17.5601 41.1603 17.2201C41.1603 16.9101 41.2703 16.4301 41.4703 15.7701L42.8603 11.4001C43.0303 10.8001 43.1403 10.4401 43.1403 10.2901C43.1403 10.2301 43.1103 10.1801 43.0503 10.1201C42.9603 10.0901 42.9103 10.0601 42.8503 10.0601C42.7403 10.0601 42.6503 10.0901 42.5403 10.1201C42.3703 10.2101 42.1103 10.4001 41.8003 10.7201C41.4603 11.0301 40.9803 11.5701 40.3503 12.3901C39.7303 13.1801 39.3003 13.8101 39.1003 14.2601C38.8703 14.7101 38.6703 15.3101 38.4503 16.0501L37.7403 18.3201H34.9303L37.0803 11.0901C37.1903 10.6901 37.2503 10.4101 37.2503 10.2701C37.2503 10.2101 37.2203 10.1801 37.1603 10.1301C37.1003 10.1001 37.0703 10.0701 37.0203 10.0701C36.7403 10.0701 36.3103 10.4101 35.7203 11.1501C34.8103 12.2601 33.9903 13.6201 33.2503 15.1801L32.3103 18.3301H29.4503L31.6003 11.2201C31.8303 10.5101 31.9103 10.0301 31.9103 9.72007C31.9103 9.61007 31.8803 9.52007 31.8203 9.44007C31.7603 9.35007 31.6503 9.27007 31.5103 9.24007C31.3703 9.18007 31.1103 9.15007 30.6903 9.15007L30.7803 8.72007L34.6903 8.07007H35.4003V8.08007Z" fill="#221F20"/>
<path d="M46.1502 36.6001H50.4002L49.9702 38.1301H45.6602L46.1502 36.6001ZM53.9702 30.4701C54.2802 30.4701 54.5402 30.5801 54.7402 30.7801C54.9702 31.0101 55.0502 31.2301 55.0502 31.5501C55.0502 31.8601 54.9602 32.1201 54.7402 32.3201C54.5402 32.5201 54.2902 32.6301 53.9702 32.6301C53.6902 32.6301 53.4302 32.5201 53.2002 32.3201C53.0002 32.1201 52.8902 31.8701 52.8902 31.5501C52.8902 31.2401 53.0002 31.0101 53.2002 30.7801C53.4302 30.5901 53.6902 30.4701 53.9702 30.4701ZM54.5702 33.8501L52.9502 39.0001C52.8602 39.2801 52.8102 39.4801 52.8102 39.5701C52.8102 39.6301 52.8402 39.6801 52.9002 39.7401C52.9302 39.8001 52.9902 39.8301 53.0402 39.8301C53.1002 39.8301 53.1802 39.7701 53.2702 39.6901C53.5002 39.5201 53.7502 39.1801 54.0602 38.6701L54.3202 38.8401C53.5502 40.1701 52.7602 40.8501 51.9402 40.8501C51.6302 40.8501 51.3702 40.7601 51.1702 40.5701C50.9702 40.4001 50.8902 40.1701 50.8902 39.9201C50.8902 39.7201 50.9202 39.4901 51.0302 39.2101L52.1402 35.7201C52.2502 35.3801 52.3102 35.1201 52.3102 34.9501C52.3102 34.8401 52.2502 34.7501 52.1702 34.6701C52.0602 34.5801 51.9102 34.5601 51.7402 34.5601C51.6802 34.5601 51.5702 34.5601 51.4602 34.5601L51.5702 34.2501L54.1202 33.8501H54.5702ZM58.8202 33.8501L57.8602 37.0001C58.4802 36.0401 58.9402 35.3801 59.2202 35.0401C59.6502 34.5601 60.0102 34.2201 60.2702 34.0801C60.5502 33.9401 60.8402 33.8501 61.1202 33.8501C61.4302 33.8501 61.6602 33.9401 61.8002 34.1301C61.9402 34.3201 62.0302 34.5601 62.0302 34.7801C62.0302 35.0001 61.9402 35.3801 61.8002 35.8301L61.4602 36.9901C62.1402 36.0301 62.6502 35.3701 62.9302 35.0301C63.4102 34.5501 63.8102 34.2101 64.1502 34.0401C64.3802 33.9001 64.6302 33.8401 64.8902 33.8401C65.1702 33.8401 65.4002 33.9301 65.6002 34.1201C65.7702 34.3201 65.8802 34.5701 65.8802 34.8901C65.8802 35.2101 65.7902 35.6001 65.6202 36.0801L64.7402 38.7701C64.6002 39.1701 64.5402 39.4201 64.5402 39.5401C64.5402 39.5701 64.5402 39.6001 64.5702 39.6501C64.6302 39.6801 64.6602 39.6801 64.6802 39.6801C64.7402 39.6801 64.7902 39.6801 64.8202 39.6501C64.9902 39.5101 65.1902 39.2801 65.3902 39.0301C65.4202 38.9701 65.5002 38.8901 65.5902 38.7701L65.8502 38.9101C65.5102 39.5301 65.1402 39.9901 64.7202 40.2701C64.3202 40.5501 63.9502 40.7001 63.6102 40.7001C63.3002 40.7001 63.0702 40.6401 62.8702 40.4701C62.7002 40.3001 62.6102 40.1001 62.6102 39.9001C62.6102 39.6701 62.6702 39.3601 62.8102 38.9401L63.7202 36.0801C63.8302 35.6501 63.9202 35.4301 63.9202 35.3101C63.9202 35.2801 63.8902 35.2501 63.8602 35.2201C63.8002 35.1901 63.7702 35.1601 63.7202 35.1601C63.6602 35.1601 63.5802 35.1901 63.5202 35.2201C63.4102 35.2501 63.2402 35.3901 63.0402 35.5901C62.8102 35.7901 62.5002 36.1601 62.0802 36.7001C61.6802 37.2401 61.4002 37.6601 61.2602 37.9501C61.1202 38.2601 60.9802 38.6301 60.8302 39.1101L60.3802 40.6401H58.5102L59.9302 35.8501C60.0202 35.5901 60.0402 35.4001 60.0402 35.3101C60.0402 35.2801 60.0102 35.2501 59.9802 35.2201C59.9502 35.1901 59.9202 35.1601 59.8902 35.1601C59.6902 35.1601 59.4102 35.3901 59.0102 35.8701C58.4102 36.6101 57.8802 37.5101 57.3902 38.5301L56.7702 40.6301H54.9002L56.3202 35.9201C56.4602 35.4401 56.5202 35.1301 56.5202 34.9301C56.5202 34.8401 56.4902 34.7901 56.4602 34.7301C56.4002 34.6701 56.3502 34.6201 56.2602 34.5901C56.1502 34.5601 55.9802 34.5301 55.7202 34.5301L55.7802 34.2501L58.3602 33.8201H58.8202V33.8501Z" fill="#221F20"/>
<path d="M17.01 31.4401V35.5801L18 34.5801C18.2 34.3801 18.34 34.2401 18.4 34.1301C18.43 34.0401 18.46 33.9601 18.46 33.8701C18.46 33.7801 18.43 33.7301 18.37 33.6701C18.28 33.6101 18.17 33.5601 17.97 33.5301V33.3901H19.9V33.5301C19.73 33.5601 19.56 33.5901 19.42 33.6701C19.28 33.7601 19.02 33.9801 18.6 34.3801L18.15 34.8601L19.17 36.3301C19.57 36.9501 19.82 37.2901 19.88 37.3501C19.99 37.4601 20.14 37.5201 20.28 37.5501V37.6901H18.07V37.5501C18.16 37.5501 18.24 37.5201 18.27 37.4901C18.33 37.4301 18.36 37.4001 18.36 37.3501C18.36 37.2901 18.27 37.1501 18.16 36.9801L17.28 35.7001L17.01 36.0001V36.7701C17.01 37.1101 17.04 37.3101 17.1 37.3901C17.16 37.4801 17.27 37.5301 17.47 37.5601V37.7001H15.23V37.5601C15.43 37.5301 15.54 37.4701 15.63 37.3601C15.69 37.3001 15.72 37.1001 15.72 36.7601V32.3701C15.72 32.0301 15.69 31.8301 15.63 31.7501C15.57 31.6601 15.43 31.6101 15.23 31.6101V31.4401H17.01ZM23.02 39.3701V39.1701C23.39 39.0001 23.64 38.8001 23.81 38.5701C23.95 38.3101 24.04 38.0601 24.04 37.8001C24.04 37.7401 24.04 37.7101 24.01 37.6901C23.98 37.6601 23.95 37.6301 23.95 37.6301C23.92 37.6301 23.89 37.6601 23.86 37.6901C23.77 37.7201 23.66 37.7501 23.52 37.7501C23.35 37.7501 23.18 37.6901 23.04 37.5501C22.93 37.4101 22.84 37.2401 22.84 37.0401C22.84 36.8401 22.93 36.6701 23.07 36.5001C23.24 36.3601 23.41 36.2701 23.64 36.2701C23.92 36.2701 24.15 36.3801 24.32 36.5801C24.52 36.7801 24.6 37.0601 24.6 37.4301C24.6 37.8601 24.46 38.2501 24.2 38.5901C23.95 38.9501 23.56 39.2001 23.02 39.3701ZM30.39 33.4501H31.84V33.9601H31.02C31.16 34.1001 31.28 34.2401 31.33 34.3601C31.42 34.5301 31.44 34.7001 31.44 34.9001C31.44 35.1801 31.35 35.4701 31.18 35.6901C31.01 35.9101 30.78 36.0901 30.47 36.2301C30.19 36.3401 29.93 36.4001 29.7 36.4001C29.67 36.4001 29.47 36.4001 29.13 36.3701C28.99 36.3701 28.87 36.4301 28.79 36.5101C28.68 36.6201 28.65 36.7101 28.65 36.8501C28.65 36.9601 28.68 37.0501 28.76 37.1301C28.85 37.1901 28.99 37.2201 29.19 37.2201H29.98C30.63 37.2201 31.09 37.3101 31.34 37.4501C31.68 37.6201 31.85 37.9301 31.85 38.3601C31.85 38.6201 31.76 38.8401 31.59 39.0701C31.45 39.2701 31.22 39.4401 30.97 39.5501C30.57 39.6901 30.12 39.7801 29.61 39.7801C29.21 39.7801 28.84 39.7201 28.53 39.6701C28.22 39.5801 27.99 39.4701 27.85 39.3601C27.71 39.2201 27.62 39.0801 27.62 38.9301C27.62 38.7901 27.68 38.6501 27.79 38.5301C27.9 38.4201 28.1 38.3301 28.39 38.2501C27.99 38.0501 27.79 37.7701 27.79 37.4301C27.79 37.2001 27.88 37.0001 28.02 36.8101C28.19 36.6101 28.45 36.4401 28.81 36.3001C28.38 36.1301 28.1 35.9301 27.9 35.7001C27.73 35.4401 27.62 35.1601 27.62 34.8201C27.62 34.4201 27.79 34.0501 28.16 33.7401C28.5 33.4301 28.93 33.2601 29.46 33.2601C29.79 33.2501 30.08 33.3101 30.39 33.4501ZM29.59 33.5601C29.39 33.5601 29.25 33.6501 29.14 33.8201C29 34.0201 28.94 34.3901 28.94 34.9501C28.94 35.4001 29 35.7201 29.14 35.8901C29.25 36.0601 29.4 36.1501 29.57 36.1501C29.74 36.1501 29.91 36.0601 30.02 35.8901C30.13 35.7201 30.22 35.3801 30.22 34.9001C30.22 34.3601 30.13 33.9901 29.99 33.7901C29.91 33.6201 29.76 33.5601 29.59 33.5601ZM29.31 38.3501C29 38.3501 28.8 38.3801 28.69 38.4401C28.52 38.5301 28.43 38.6701 28.43 38.8101C28.43 38.9801 28.52 39.1201 28.69 39.2401C28.89 39.3801 29.23 39.4401 29.74 39.4401C30.17 39.4401 30.51 39.3801 30.73 39.2701C30.99 39.1601 31.1 39.0101 31.1 38.7901C31.1 38.7301 31.07 38.6501 31.04 38.5901C30.95 38.5001 30.81 38.4501 30.67 38.4201C30.5 38.3801 30.05 38.3501 29.31 38.3501Z" fill="#221F20"/>
</g>
<defs>
<clipPath id="clip0_333_309">
<rect width="72.2" height="47.14" fill="white"/>
</clipPath>
</defs>
</svg>
