<svg width="83" height="45" viewBox="0 0 83 45" fill="none" xmlns="http://www.w3.org/2000/svg">
<g clip-path="url(#clip0_333_298)">
<path fill-rule="evenodd" clip-rule="evenodd" d="M5.84018 0.430054H52.0202C55.0002 0.430054 57.4302 2.87005 57.4302 5.84005V33.4201C57.4302 36.4001 54.9902 38.8301 52.0202 38.8301H5.84018C2.86018 38.8301 0.430176 36.3901 0.430176 33.4201V5.84005C0.430176 2.86005 2.86018 0.430054 5.84018 0.430054Z" fill="#FAB31E" stroke="white" stroke-width="0.8504" stroke-miterlimit="10"/>
<path d="M12.4703 15.5101H18.9303L18.2503 17.8101H11.7603L12.4703 15.5101ZM22.7103 17.4301C22.6503 17.9101 22.6203 18.3101 22.6203 18.6201C22.6203 19.1901 22.7603 19.6401 23.1003 19.9501C23.4103 20.2901 23.8403 20.4601 24.3803 20.4601C24.9203 20.4601 25.4303 20.3501 25.9403 20.1201C26.4803 19.8901 27.0703 19.5201 27.7503 18.9601L28.0903 19.2401C27.2403 20.2001 26.4203 20.8801 25.6203 21.3101C24.8003 21.7101 23.9203 21.9101 22.9603 21.9101C21.7103 21.9101 20.8603 21.6301 20.3803 21.0301C19.9303 20.4301 19.6703 19.7501 19.6703 18.9901C19.6703 17.7701 20.0403 16.5501 20.7503 15.3301C21.4303 14.1401 22.3903 13.1501 23.6103 12.4401C24.8303 11.7001 26.0503 11.3301 27.3003 11.3301C27.9203 11.3301 28.3803 11.4701 28.6903 11.7801C29.0303 12.0601 29.1703 12.4301 29.1703 12.8901C29.1703 13.4301 29.0303 13.9401 28.7203 14.4501C28.2703 15.1601 27.7303 15.7301 27.0803 16.1501C26.4303 16.5801 25.7203 16.8901 24.9003 17.1101C24.3503 17.2601 23.6103 17.3801 22.7103 17.4301ZM22.8203 16.8701C23.4703 16.7801 23.9803 16.6401 24.3203 16.5001C24.6903 16.3301 25.0603 16.0501 25.4003 15.6801C25.7403 15.3401 26.0503 14.8901 26.3103 14.3201C26.5703 13.7501 26.6803 13.2401 26.6803 12.7601C26.6803 12.5601 26.6203 12.3901 26.5103 12.2801C26.4003 12.1701 26.2503 12.0801 26.0603 12.0801C25.7203 12.0801 25.3203 12.3401 24.8703 12.8201C24.0403 13.7201 23.3603 15.0801 22.8203 16.8701ZM35.4003 11.3401L33.9503 16.1001C34.8903 14.6501 35.5903 13.6601 36.0203 13.1501C36.6703 12.3801 37.2103 11.9001 37.6403 11.6801C38.0403 11.4501 38.4603 11.3401 38.8903 11.3401C39.3703 11.3401 39.7403 11.4801 39.9403 11.7901C40.1703 12.0701 40.2503 12.3901 40.2503 12.7501C40.2503 13.1201 40.1603 13.6301 39.9703 14.3401L39.4303 16.1001C40.4803 14.6301 41.2203 13.6301 41.6703 13.1501C42.3503 12.3801 42.9703 11.9001 43.4803 11.6201C43.8503 11.4201 44.2203 11.3401 44.6103 11.3401C45.0403 11.3401 45.4003 11.4801 45.6603 11.7701C45.9403 12.0801 46.0903 12.4501 46.0903 12.9001C46.0903 13.3801 45.9803 13.9801 45.7203 14.7101L44.3903 18.7901C44.1903 19.3901 44.0803 19.7801 44.0803 19.9501C44.0803 20.0101 44.1102 20.0601 44.1702 20.1201C44.2002 20.1501 44.2603 20.1801 44.3103 20.1801C44.4003 20.1801 44.4803 20.1501 44.5403 20.1201C44.8003 19.8901 45.0802 19.5801 45.3903 19.1801C45.4503 19.0901 45.5602 18.9501 45.6702 18.7801L46.0703 19.0101C45.5603 19.9501 44.9903 20.6301 44.3703 21.0801C43.7703 21.5101 43.2103 21.7301 42.6703 21.7301C42.2203 21.7301 41.8503 21.6201 41.5903 21.3601C41.3103 21.1001 41.1603 20.8201 41.1603 20.4801C41.1603 20.1701 41.2703 19.6901 41.4703 19.0301L42.8603 14.6901C43.0303 14.0901 43.1403 13.7001 43.1403 13.5601C43.1403 13.5001 43.1103 13.4701 43.0503 13.4201C42.9603 13.3601 42.9103 13.3301 42.8503 13.3301C42.7403 13.3301 42.6503 13.3601 42.5403 13.4201C42.3703 13.4801 42.1103 13.6801 41.8003 13.9901C41.4603 14.3001 40.9803 14.8701 40.3503 15.6601C39.7303 16.4801 39.3003 17.1101 39.1003 17.5601C38.8703 18.0101 38.6703 18.5801 38.4503 19.3201L37.7403 21.6201H34.9303L37.0803 14.3601C37.1903 13.9601 37.2503 13.7101 37.2503 13.5701C37.2503 13.5101 37.2203 13.4601 37.1603 13.4301C37.1003 13.3701 37.0703 13.3401 37.0203 13.3401C36.7403 13.3401 36.3103 13.7101 35.7203 14.4201C34.8103 15.5501 33.9903 16.8901 33.2503 18.4501L32.3103 21.6201H29.4503L31.6003 14.4801C31.8303 13.8001 31.9103 13.2901 31.9103 13.0101C31.9103 12.9001 31.8803 12.7801 31.8203 12.7001C31.7603 12.6101 31.6503 12.5601 31.5103 12.5001C31.3703 12.4401 31.1103 12.4101 30.6903 12.4101L30.7803 11.9801L34.6903 11.3301H35.4003V11.3401Z" fill="#221F20"/>
<path d="M33.1401 29.28V33.42L34.1301 32.43C34.3301 32.23 34.4701 32.09 34.5301 32C34.5601 31.91 34.5901 31.83 34.5901 31.74C34.5901 31.65 34.5601 31.57 34.5001 31.51C34.4101 31.45 34.3001 31.42 34.1001 31.4V31.23H36.0301V31.4C35.8601 31.4 35.6901 31.46 35.5501 31.54C35.4101 31.6 35.1501 31.85 34.7301 32.25L34.2801 32.73L35.3001 34.2C35.7001 34.8 35.9501 35.14 36.0101 35.22C36.1201 35.33 36.2701 35.39 36.4101 35.39V35.56H34.2001V35.4C34.2901 35.4 34.3701 35.4 34.4001 35.34C34.4601 35.31 34.4901 35.28 34.4901 35.23C34.4901 35.14 34.4001 35.03 34.2901 34.83L33.4101 33.58L33.1501 33.84V34.63C33.1501 34.97 33.1801 35.17 33.2401 35.25C33.3001 35.34 33.4401 35.36 33.6101 35.39V35.56H31.3701V35.4C31.5701 35.4 31.6801 35.31 31.7701 35.23C31.8301 35.17 31.8601 34.97 31.8601 34.63V30.21C31.8601 29.9 31.8301 29.7 31.7701 29.61C31.7101 29.52 31.5701 29.47 31.3701 29.44V29.27H33.1401V29.28Z" fill="#221F20"/>
<path fill-rule="evenodd" clip-rule="evenodd" d="M47.4503 22.88H79.0603C80.7303 22.88 82.0903 24.27 82.0903 25.91V41.39C82.0903 43.06 80.7303 44.42 79.0603 44.42H47.4503C45.7803 44.42 44.4203 43.06 44.4203 41.39V36.2L40.2803 33.65L44.4203 31.1V25.91C44.4203 24.26 45.7803 22.88 47.4503 22.88Z" fill="#FAB31E" stroke="white" stroke-width="0.8504" stroke-miterlimit="10"/>
<path d="M49.95 34.7501H54.2L53.77 36.2801H49.46L49.95 34.7501ZM59.27 28.6301L57.26 35.5501L58.9 34.0201L59.47 33.5101C59.61 33.3701 59.73 33.2301 59.78 33.1101C59.84 33.0201 59.87 32.9701 59.87 32.8801C59.87 32.7901 59.81 32.7101 59.7 32.6201C59.61 32.5601 59.39 32.5101 59.02 32.5101L59.08 32.2301H62.08L62.02 32.5101C61.65 32.5701 61.37 32.6801 61.14 32.7901C60.97 32.8801 60.77 32.9901 60.52 33.1901C60.15 33.4701 59.87 33.7001 59.73 33.8701L59.39 34.1501L59.84 36.1301C60.01 36.9001 60.15 37.3501 60.21 37.4601C60.27 37.5201 60.35 37.5701 60.41 37.5701C60.58 37.5701 60.78 37.3401 61.03 36.9201C61.06 36.8601 61.09 36.7801 61.14 36.6901L61.42 36.8601C61.05 37.6001 60.63 38.1401 60.17 38.5001C59.86 38.7601 59.6 38.9001 59.35 38.9001C59.09 38.9001 58.9 38.7901 58.73 38.6201C58.56 38.4501 58.39 37.9701 58.22 37.2301L57.85 35.5601L57.06 36.2701L56.35 38.7901H54.45L56.89 30.5101C56.98 30.1401 57.03 29.9101 57.03 29.8001C57.03 29.6901 57 29.6001 56.97 29.5201C56.94 29.4601 56.86 29.4101 56.8 29.3801C56.71 29.3501 56.57 29.3201 56.37 29.3201L56.43 29.0401L58.84 28.6101H59.27V28.6301ZM65.28 28.6301C65.56 28.6301 65.85 28.7401 66.05 28.9401C66.25 29.1701 66.36 29.4201 66.36 29.7101C66.36 30.0201 66.25 30.2801 66.05 30.4801C65.82 30.7101 65.57 30.7901 65.28 30.7901C64.97 30.7901 64.71 30.7001 64.51 30.4801C64.31 30.2801 64.2 30.0301 64.2 29.7101C64.2 29.4301 64.31 29.1701 64.51 28.9401C64.71 28.7401 64.97 28.6301 65.28 28.6301ZM65.88 32.0001L64.26 37.1601C64.17 37.4401 64.12 37.6401 64.12 37.7601C64.12 37.8201 64.15 37.8501 64.18 37.9001C64.24 37.9601 64.27 37.9901 64.32 37.9901C64.41 37.9901 64.49 37.9301 64.58 37.8801C64.78 37.6801 65.06 37.3401 65.35 36.8601L65.61 37.0001C64.86 38.3201 64.06 39.0001 63.21 39.0001C62.9 39.0001 62.64 38.9101 62.47 38.7201C62.27 38.5501 62.16 38.3201 62.16 38.0701C62.16 37.8701 62.22 37.6401 62.3 37.3601L63.43 33.8701C63.54 33.5301 63.6 33.2701 63.6 33.1001C63.6 32.9901 63.54 32.9001 63.43 32.8201C63.34 32.7301 63.2 32.7101 63.03 32.7101C62.94 32.7101 62.86 32.7101 62.75 32.7101L62.84 32.4001L65.42 32.0001H65.88ZM70.1 32.0001L69.14 35.1501C69.76 34.1901 70.25 33.5301 70.53 33.1901C70.96 32.7101 71.3 32.3701 71.58 32.2301C71.86 32.0901 72.14 32.0001 72.4 32.0001C72.74 32.0001 72.97 32.1101 73.11 32.2801C73.25 32.4801 73.31 32.7101 73.31 32.9301C73.31 33.1901 73.25 33.5301 73.11 33.9801L72.77 35.1401C73.45 34.1801 73.93 33.5201 74.24 33.2101C74.69 32.7001 75.09 32.3601 75.43 32.1901C75.69 32.0501 75.91 31.9901 76.2 31.9901C76.48 31.9901 76.71 32.0801 76.88 32.2701C77.08 32.4701 77.16 32.7201 77.16 33.0401C77.16 33.3501 77.07 33.7501 76.93 34.2301L76.02 36.9201C75.91 37.3201 75.82 37.5701 75.82 37.6901C75.82 37.7201 75.85 37.7501 75.88 37.8001C75.91 37.8301 75.94 37.8301 75.99 37.8301C76.05 37.8301 76.08 37.8301 76.13 37.8001C76.3 37.6601 76.47 37.4601 76.67 37.1801C76.73 37.1201 76.78 37.0401 76.87 36.9201L77.13 37.0601C76.79 37.6801 76.42 38.1401 76.02 38.4201C75.62 38.7001 75.23 38.8501 74.89 38.8501C74.61 38.8501 74.35 38.7901 74.18 38.6201C73.98 38.4501 73.9 38.2501 73.9 38.0501C73.9 37.8201 73.99 37.5101 74.1 37.0901L75.04 34.2301C75.15 33.8301 75.21 33.5801 75.21 33.4601C75.21 33.4301 75.18 33.4001 75.15 33.3701C75.12 33.3401 75.06 33.3101 75.04 33.3101C74.95 33.3101 74.9 33.3401 74.81 33.3701C74.72 33.4001 74.55 33.5401 74.33 33.7401C74.1 33.9701 73.79 34.3401 73.39 34.8501C72.96 35.3901 72.68 35.8101 72.54 36.1001C72.4 36.4101 72.26 36.8101 72.11 37.2601L71.66 38.7901H69.82L71.21 34.0001C71.3 33.7401 71.32 33.5701 71.32 33.4601C71.32 33.4301 71.32 33.4001 71.29 33.3701C71.26 33.3401 71.2 33.3101 71.18 33.3101C71.01 33.3101 70.73 33.5701 70.33 34.0201C69.73 34.7601 69.2 35.6601 68.71 36.6801L68.09 38.7801H66.19L67.61 34.0701C67.75 33.5901 67.84 33.2801 67.84 33.0801C67.84 32.9901 67.81 32.9401 67.75 32.8801C67.72 32.8201 67.66 32.7701 67.55 32.7401C67.46 32.7101 67.29 32.7101 67.01 32.7101L67.07 32.4001L69.65 32.0001H70.1Z" fill="#221F20"/>
</g>
<defs>
<clipPath id="clip0_333_298">
<rect width="82.52" height="44.84" fill="white"/>
</clipPath>
</defs>
</svg>
