<svg width="58" height="40" viewBox="0 0 58 40" fill="none" xmlns="http://www.w3.org/2000/svg">
<g clip-path="url(#clip0_333_325)">
<path fill-rule="evenodd" clip-rule="evenodd" d="M5.84018 0.430054H52.0202C55.0002 0.430054 57.4302 2.87005 57.4302 5.84005V33.4201C57.4302 36.4001 54.9902 38.8301 52.0202 38.8301H5.84018C2.86018 38.8301 0.430176 36.3901 0.430176 33.4201V5.84005C0.430176 2.86005 2.86018 0.430054 5.84018 0.430054Z" fill="#FAB31E" stroke="white" stroke-width="0.8504" stroke-miterlimit="10"/>
<path d="M8.05006 21.06H14.4801L13.8001 23.36H7.31006L8.05006 21.06ZM25.6501 17.06L23.5001 24.4L23.2701 25.31C23.2401 25.42 23.2101 25.51 23.2101 25.57C23.2101 25.66 23.2401 25.74 23.3201 25.8C23.3801 25.86 23.4301 25.89 23.4901 25.89C23.6601 25.89 23.8601 25.78 24.1401 25.55C24.2501 25.46 24.5101 25.12 24.9101 24.53L25.3101 24.73C24.8001 25.69 24.2301 26.37 23.6401 26.83C23.0401 27.26 22.4201 27.48 21.7101 27.48C21.3101 27.48 20.9701 27.37 20.7501 27.17C20.5501 26.94 20.4401 26.69 20.4401 26.35C20.4401 26.07 20.5501 25.53 20.8101 24.73L21.0701 23.85C20.2201 25.32 19.4001 26.34 18.6001 26.97C18.1501 27.31 17.6401 27.48 17.1301 27.48C16.4501 27.48 15.9701 27.2 15.6601 26.66C15.3501 26.09 15.2101 25.47 15.2101 24.76C15.2101 23.71 15.5201 22.52 16.1701 21.19C16.7901 19.83 17.6401 18.75 18.6901 17.93C19.5401 17.25 20.3301 16.91 21.1001 16.91C21.5001 16.91 21.8401 17.02 22.0901 17.28C22.3501 17.51 22.5401 17.93 22.6601 18.58L23.0601 17.22L25.6501 17.06ZM22.1101 19.16C22.1101 18.56 22.0201 18.14 21.8301 17.86C21.6901 17.69 21.5201 17.6 21.2901 17.6C21.0301 17.6 20.8101 17.71 20.5501 17.91C20.0701 18.39 19.5301 19.3 18.9301 20.69C18.3601 22.11 18.0801 23.3 18.0801 24.32C18.0801 24.72 18.1401 25 18.2801 25.17C18.3901 25.34 18.5401 25.43 18.7101 25.43C19.0501 25.43 19.3601 25.23 19.7301 24.86C20.2101 24.32 20.6401 23.64 21.0301 22.85C21.7401 21.46 22.1101 20.24 22.1101 19.16ZM32.2301 16.89L30.7801 21.65C31.7401 20.2 32.4201 19.21 32.8801 18.7C33.5001 17.93 34.0401 17.45 34.4701 17.23C34.9001 17 35.3201 16.89 35.7501 16.89C36.2001 16.89 36.5701 17.03 36.7701 17.34C37.0001 17.62 37.1101 17.94 37.1101 18.3C37.1101 18.67 37.0001 19.18 36.8001 19.89L36.2901 21.65C37.3101 20.18 38.0501 19.18 38.5001 18.7C39.2101 17.93 39.8001 17.45 40.3101 17.17C40.6801 16.97 41.0501 16.89 41.4701 16.89C41.8701 16.89 42.2401 17.03 42.5201 17.32C42.8001 17.63 42.9501 18 42.9501 18.45C42.9501 18.93 42.8101 19.53 42.5801 20.26L41.2201 24.34C41.0201 24.94 40.9101 25.33 40.9101 25.5C40.9101 25.56 40.9401 25.61 41.0001 25.67C41.0601 25.7 41.1101 25.73 41.1701 25.73C41.2601 25.73 41.3101 25.7 41.3701 25.67C41.6501 25.44 41.9401 25.13 42.2201 24.73C42.3101 24.64 42.3901 24.5 42.5301 24.33L42.9001 24.56C42.3901 25.5 41.8201 26.18 41.2301 26.63C40.6101 27.06 40.0401 27.28 39.5301 27.28C39.0501 27.28 38.7101 27.17 38.4201 26.91C38.1401 26.65 37.9901 26.37 37.9901 26.03C37.9901 25.72 38.1001 25.24 38.3001 24.58L39.6901 20.24C39.8901 19.64 39.9701 19.25 39.9701 19.11C39.9701 19.05 39.9401 19 39.8801 18.97C39.8201 18.91 39.7701 18.88 39.7101 18.88C39.6001 18.88 39.4801 18.91 39.3701 18.97C39.2001 19.03 38.9701 19.23 38.6301 19.54C38.2901 19.85 37.8101 20.42 37.2101 21.21C36.5901 22.03 36.1601 22.66 35.9301 23.11C35.7301 23.56 35.5001 24.13 35.2801 24.87L34.6001 27.17H31.8001L33.9301 19.91C34.0401 19.51 34.1001 19.26 34.1001 19.12C34.1001 19.06 34.0701 19.01 34.0101 18.98C33.9801 18.92 33.9201 18.89 33.8701 18.89C33.5901 18.89 33.1601 19.26 32.5701 19.97C31.6901 21.1 30.8701 22.44 30.1301 24L29.1701 27.17H26.3101L28.4601 20.03C28.6901 19.35 28.8001 18.84 28.8001 18.56C28.8001 18.45 28.7701 18.33 28.6901 18.25C28.6301 18.16 28.5201 18.11 28.3801 18.05C28.2401 17.99 27.9801 17.96 27.5901 17.96L27.6801 17.53L31.5601 16.88H32.2301V16.89ZM48.9001 11.79C49.3501 11.79 49.7501 11.93 50.0601 12.24C50.3701 12.58 50.5401 12.95 50.5401 13.4C50.5401 13.85 50.3701 14.25 50.0601 14.56C49.7501 14.87 49.3501 15.04 48.9001 15.04C48.4701 15.04 48.0801 14.87 47.7701 14.56C47.4301 14.25 47.2901 13.85 47.2901 13.4C47.2901 12.95 47.4301 12.58 47.7401 12.24C48.0801 11.93 48.4401 11.79 48.9001 11.79ZM49.8001 16.89L47.3601 24.69C47.2201 25.14 47.1301 25.46 47.1301 25.57C47.1301 25.66 47.1901 25.74 47.2401 25.83C47.3001 25.89 47.3801 25.94 47.4401 25.94C47.5801 25.94 47.7001 25.88 47.8101 25.74C48.1501 25.46 48.5501 24.95 49.0001 24.21L49.4001 24.44C48.2701 26.45 47.0801 27.47 45.8001 27.47C45.3201 27.47 44.9201 27.36 44.6401 27.07C44.3601 26.81 44.2101 26.47 44.2101 26.05C44.2101 25.79 44.2701 25.43 44.4101 25.03L46.1101 19.73C46.2801 19.22 46.3701 18.82 46.3701 18.57C46.3701 18.4 46.2801 18.26 46.1401 18.14C45.9701 18 45.7701 17.94 45.5201 17.94C45.4101 17.94 45.2601 17.94 45.0901 17.97L45.2301 17.52L49.1101 16.9H49.8001V16.89Z" fill="#221F20"/>
</g>
<defs>
<clipPath id="clip0_333_325">
<rect width="57.86" height="39.26" fill="white"/>
</clipPath>
</defs>
</svg>
