<svg width="58" height="56" viewBox="0 0 58 56" fill="none" xmlns="http://www.w3.org/2000/svg">
<g clip-path="url(#clip0_333_329)">
<path fill-rule="evenodd" clip-rule="evenodd" d="M5.84018 0.430054H52.0202C55.0002 0.430054 57.4302 2.87005 57.4302 5.84005V49.6401C57.4302 52.6201 54.9902 55.0301 52.0202 55.0301H5.84018C2.86018 55.0301 0.430176 52.6201 0.430176 49.6401V5.84005C0.430176 2.86005 2.86018 0.430054 5.84018 0.430054Z" fill="#F5C0C0" stroke="white" stroke-width="0.8504" stroke-miterlimit="10"/>
<path d="M8.05006 14.2601H14.4801L13.8001 16.5801H7.31006L8.05006 14.2601ZM19.9001 4.99011C20.3501 4.99011 20.7501 5.16011 21.0601 5.47011C21.3701 5.81011 21.5101 6.18011 21.5101 6.63011C21.5101 7.08011 21.3701 7.48011 21.0301 7.79011C20.7201 8.10011 20.3501 8.27011 19.9001 8.27011C19.4501 8.27011 19.0501 8.10011 18.7401 7.79011C18.4301 7.48011 18.2601 7.08011 18.2601 6.63011C18.2601 6.18011 18.4301 5.81011 18.7401 5.47011C19.0501 5.16011 19.4501 4.99011 19.9001 4.99011ZM20.7801 10.1201L18.3401 17.9201C18.2001 18.3701 18.1401 18.6601 18.1401 18.8001C18.1401 18.8901 18.1701 18.9701 18.2301 19.0601C18.3201 19.1201 18.3701 19.1501 18.4601 19.1501C18.5701 19.1501 18.6901 19.0901 18.8301 18.9801C19.1401 18.7001 19.5401 18.1901 19.9901 17.4501L20.3901 17.6801C19.2601 19.6901 18.0701 20.7101 16.7901 20.7101C16.3101 20.7101 15.9101 20.5701 15.6301 20.3101C15.3501 20.0501 15.2001 19.7101 15.2001 19.2901C15.2001 19.0101 15.2601 18.6701 15.4001 18.2401L17.1001 12.9401C17.2701 12.4601 17.3601 12.0601 17.3601 11.8101C17.3601 11.6401 17.2701 11.5001 17.1301 11.3801C16.9901 11.2401 16.7601 11.1801 16.5101 11.1801C16.4001 11.1801 16.2501 11.1801 16.0801 11.1801L16.2201 10.7301L20.1001 10.1301H20.7801V10.1201ZM27.1801 10.1201L25.7301 14.8801C26.6901 13.4101 27.3701 12.4401 27.8301 11.9301C28.4501 11.1601 28.9901 10.6801 29.4201 10.4601C29.8501 10.2301 30.2701 10.1201 30.7001 10.1201C31.1801 10.1201 31.5201 10.2601 31.7201 10.5501C31.9501 10.8601 32.0601 11.1701 32.0601 11.5401C32.0601 11.8801 31.9501 12.4201 31.7501 13.1301L31.2401 14.8901C32.2601 13.4201 33.0001 12.4201 33.4501 11.9401C34.1601 11.1701 34.7501 10.6601 35.2601 10.4101C35.6301 10.2101 36.0001 10.1301 36.4201 10.1301C36.8201 10.1301 37.1901 10.2701 37.4701 10.5601C37.7501 10.8401 37.9001 11.2401 37.9001 11.6901C37.9001 12.1701 37.7601 12.7701 37.5301 13.5001L36.1701 17.5501C35.9701 18.1701 35.8601 18.5401 35.8601 18.7401C35.8601 18.8001 35.8901 18.8501 35.9501 18.8801C36.0101 18.9401 36.0601 18.9701 36.1201 18.9701C36.2101 18.9701 36.2601 18.9401 36.3201 18.8801C36.6001 18.6801 36.8901 18.3701 37.1701 17.9701C37.2601 17.8801 37.3401 17.7401 37.4801 17.5401L37.8501 17.8001C37.3401 18.7401 36.7701 19.4201 36.1801 19.8701C35.5601 20.3001 34.9901 20.5201 34.4801 20.5201C34.0301 20.5201 33.6601 20.3801 33.3701 20.1501C33.0901 19.8901 32.9401 19.6101 32.9401 19.2701C32.9401 18.9601 33.0501 18.4801 33.2501 17.8201L34.6401 13.4801C34.8401 12.8601 34.9201 12.4901 34.9201 12.3501C34.9201 12.2901 34.8901 12.2401 34.8301 12.2101C34.7701 12.1501 34.7201 12.1201 34.6601 12.1201C34.5501 12.1201 34.4301 12.1501 34.3201 12.1801C34.1501 12.2701 33.9201 12.4601 33.5801 12.7801C33.2401 13.0901 32.7901 13.6601 32.1601 14.4501C31.5401 15.2401 31.1101 15.9001 30.8801 16.3501C30.6801 16.8001 30.4501 17.3701 30.2301 18.1101L29.5501 20.4101H26.7401L28.8701 13.1501C28.9801 12.7501 29.0401 12.5001 29.0401 12.3301C29.0401 12.3001 29.0101 12.2401 28.9501 12.1901C28.9201 12.1601 28.8601 12.1301 28.8101 12.1301C28.5501 12.1301 28.1001 12.5001 27.5101 13.2101C26.6301 14.3201 25.8101 15.6801 25.0701 17.2401L24.1101 20.4101H21.2501L23.4001 13.2701C23.6301 12.5901 23.7401 12.0801 23.7401 11.7701C23.7401 11.6601 23.7101 11.5701 23.6301 11.4901C23.5701 11.4001 23.4601 11.3201 23.3501 11.2901C23.1801 11.2301 22.9201 11.2001 22.5301 11.2001L22.6201 10.7701L26.5001 10.1201H27.1801ZM43.8501 4.99011C44.3001 4.99011 44.7001 5.16011 45.0101 5.47011C45.3501 5.81011 45.4901 6.18011 45.4901 6.63011C45.4901 7.08011 45.3501 7.48011 45.0101 7.79011C44.7001 8.10011 44.3001 8.27011 43.8501 8.27011C43.4201 8.27011 43.0301 8.10011 42.7201 7.79011C42.3801 7.48011 42.2401 7.08011 42.2401 6.63011C42.2401 6.18011 42.3801 5.81011 42.6901 5.47011C43.0301 5.16011 43.4001 4.99011 43.8501 4.99011ZM44.7601 10.1201L42.3201 17.9201C42.1801 18.3701 42.1201 18.6601 42.1201 18.8001C42.1201 18.8901 42.1501 18.9701 42.2101 19.0601C42.2701 19.1201 42.3501 19.1501 42.4101 19.1501C42.5501 19.1501 42.6701 19.0901 42.7801 18.9801C43.1201 18.7001 43.5201 18.1901 43.9701 17.4501L44.3701 17.6801C43.2401 19.6901 42.0501 20.7101 40.7701 20.7101C40.2901 20.7101 39.8901 20.5701 39.6101 20.3101C39.3301 20.0501 39.1801 19.7101 39.1801 19.2901C39.1801 19.0101 39.2401 18.6701 39.3801 18.2401L41.0801 12.9401C41.2501 12.4601 41.3401 12.0601 41.3401 11.8101C41.3401 11.6401 41.2501 11.5001 41.1101 11.3801C40.9401 11.2401 40.7401 11.1801 40.4901 11.1801C40.3801 11.1801 40.2301 11.1801 40.0601 11.1801L40.2001 10.7301L44.0801 10.1301H44.7601V10.1201ZM8.05006 39.4301H14.4801L13.8001 41.7301H7.31006L8.05006 39.4301ZM15.3601 36.2801L18.7301 35.2601C19.0101 35.6001 19.1801 35.9101 19.3001 36.2201C19.5001 36.7601 19.6401 37.4701 19.7301 38.4001C19.8701 40.2101 19.9901 42.1401 20.0401 44.2101C20.8301 43.1601 21.7401 41.8001 22.7601 40.0701C23.0701 39.5601 23.2101 39.0801 23.2101 38.6201C23.2101 38.3101 23.0401 38.0501 22.7001 37.8001C22.3301 37.5201 22.1001 37.3201 22.0201 37.1801C21.9301 37.0401 21.8801 36.8701 21.8801 36.6401C21.8801 36.2401 22.0201 35.9301 22.3101 35.6501C22.5701 35.3901 22.8801 35.2501 23.2701 35.2501C23.6601 35.2501 24.0401 35.3901 24.3201 35.7001C24.6301 36.0101 24.7701 36.3801 24.7701 36.8101C24.7701 37.3201 24.6301 37.8901 24.3401 38.5401C24.0801 39.1901 23.4301 40.3301 22.4101 41.9101C21.1101 43.9501 19.8301 45.7101 18.5501 47.1801C17.7601 48.1401 17.1001 48.8201 16.5901 49.2201C16.1101 49.6501 15.6001 49.9901 15.0601 50.2101C14.7501 50.3501 14.4401 50.4401 14.1201 50.4401C13.6901 50.4401 13.3301 50.3001 13.0101 49.9901C12.7301 49.7101 12.5801 49.3401 12.5801 48.9401C12.5801 48.5401 12.6901 48.2001 12.9801 47.9201C13.2401 47.6401 13.5801 47.4901 13.9201 47.4901C14.3701 47.4901 14.8001 47.7201 15.1701 48.2001C15.4301 48.5101 15.6201 48.6501 15.7901 48.6501C15.9601 48.6501 16.1301 48.6201 16.3001 48.5101C16.5301 48.4001 16.8401 48.1401 17.2401 47.6901C17.3001 46.7801 17.3001 46.0701 17.3001 45.6201C17.3001 44.9701 17.2701 44.0901 17.2101 42.9301L17.0401 38.7101C16.9501 37.9401 16.7801 37.3801 16.5301 37.0401C16.3301 36.7801 16.0801 36.6701 15.7401 36.6701C15.6301 36.6701 15.4801 36.6701 15.3401 36.7001V36.2801H15.3601ZM30.9501 35.2601L29.5001 40.0201C30.4601 38.5701 31.1401 37.5801 31.6001 37.0701C32.2201 36.3001 32.7601 35.8201 33.1901 35.6001C33.6201 35.3701 34.0401 35.2601 34.4701 35.2601C34.9201 35.2601 35.2901 35.4001 35.4901 35.7101C35.7201 35.9901 35.8301 36.3101 35.8301 36.6701C35.8301 37.0301 35.7201 37.5501 35.5201 38.2601L35.0101 40.0201C36.0301 38.5501 36.7701 37.5501 37.2201 37.0701C37.9301 36.3001 38.5201 35.8201 39.0301 35.5401C39.4001 35.3401 39.7701 35.2601 40.1901 35.2601C40.5901 35.2601 40.9601 35.4001 41.2401 35.6901C41.5201 36.0001 41.6701 36.3701 41.6701 36.8201C41.6701 37.3001 41.5301 37.9001 41.3001 38.6301L39.9401 42.7101C39.7401 43.3101 39.6301 43.7001 39.6301 43.8701C39.6301 43.9301 39.6601 43.9801 39.7201 44.0401C39.7801 44.0701 39.8301 44.1001 39.8901 44.1001C39.9801 44.1001 40.0301 44.0701 40.0901 44.0401C40.3701 43.8101 40.6601 43.5001 40.9401 43.1001C41.0301 43.0101 41.1101 42.8701 41.2501 42.7001L41.6201 42.9301C41.1101 43.8701 40.5401 44.5501 39.9501 45.0001C39.3301 45.4301 38.7601 45.6501 38.2501 45.6501C37.7701 45.6501 37.4301 45.5401 37.1401 45.2801C36.8601 45.0201 36.7101 44.7401 36.7101 44.4001C36.7101 44.0901 36.8201 43.6101 37.0201 42.9501L38.4101 38.6101C38.6101 38.0101 38.6901 37.6201 38.6901 37.4801C38.6901 37.4201 38.6601 37.3901 38.6001 37.3401C38.5401 37.2801 38.4901 37.2501 38.4301 37.2501C38.3201 37.2501 38.2001 37.2801 38.0901 37.3401C37.9201 37.4001 37.6901 37.6001 37.3501 37.9101C37.0101 38.2201 36.5301 38.7901 35.9301 39.5801C35.3101 40.4001 34.8801 41.0301 34.6501 41.4801C34.4501 41.9301 34.2201 42.5001 34.0001 43.2401L33.3201 45.5401H30.5101L32.6401 38.2801C32.7501 37.8801 32.8101 37.6301 32.8101 37.4901C32.8101 37.4301 32.7801 37.3801 32.7201 37.3501C32.6901 37.2901 32.6301 37.2601 32.5801 37.2601C32.3001 37.2601 31.8701 37.6301 31.2801 38.3401C30.4001 39.4701 29.5801 40.8101 28.8401 42.3701L27.8801 45.5401H25.0201L27.1701 38.4001C27.4001 37.7201 27.5101 37.2101 27.5101 36.9301C27.5101 36.8201 27.4801 36.7001 27.4001 36.6201C27.3401 36.5301 27.2301 36.4801 27.1201 36.4201C26.9501 36.3601 26.6901 36.3301 26.3001 36.3301L26.3901 35.9001L30.2701 35.2501H30.9501V35.2601ZM47.6201 30.1601C48.0701 30.1601 48.4701 30.3001 48.7801 30.6401C49.1201 30.9501 49.2601 31.3201 49.2601 31.7701C49.2601 32.2201 49.1201 32.6201 48.7801 32.9301C48.4701 33.2401 48.0701 33.4101 47.6201 33.4101C47.1901 33.4101 46.8001 33.2401 46.4901 32.9301C46.1501 32.6201 46.0101 32.2201 46.0101 31.7701C46.0101 31.3201 46.1501 30.9501 46.4601 30.6401C46.8001 30.3001 47.1701 30.1601 47.6201 30.1601ZM48.5301 35.2601L46.0901 43.0601C45.9501 43.5101 45.8601 43.8301 45.8601 43.9401C45.8601 44.0301 45.9201 44.1101 45.9701 44.2001C46.0301 44.2601 46.1101 44.3101 46.1701 44.3101C46.3101 44.3101 46.4301 44.2501 46.5401 44.1401C46.8801 43.8601 47.2801 43.3201 47.7301 42.5801L48.1301 42.8101C47.0001 44.8201 45.8101 45.8401 44.5301 45.8401C44.0501 45.8401 43.6501 45.7301 43.3701 45.4401C43.0901 45.1801 42.9401 44.8401 42.9401 44.4201C42.9401 44.1601 43.0001 43.8001 43.1401 43.4001L44.8401 38.1001C45.0101 37.5901 45.1001 37.1901 45.1001 36.9401C45.1001 36.7701 45.0101 36.6301 44.8701 36.5101C44.7001 36.3701 44.5001 36.3101 44.2501 36.3101C44.1401 36.3101 43.9901 36.3101 43.8201 36.3401L43.9601 35.8901L47.8401 35.2701H48.5301V35.2601Z" fill="#221F20"/>
</g>
<defs>
<clipPath id="clip0_333_329">
<rect width="57.86" height="55.45" fill="white"/>
</clipPath>
</defs>
</svg>
