<svg width="58" height="40" viewBox="0 0 58 40" fill="none" xmlns="http://www.w3.org/2000/svg">
<g clip-path="url(#clip0_333_305)">
<path fill-rule="evenodd" clip-rule="evenodd" d="M5.84018 0.430054H52.0202C55.0002 0.430054 57.4302 2.87005 57.4302 5.84005V33.4201C57.4302 36.4001 54.9902 38.8301 52.0202 38.8301H5.84018C2.86018 38.8301 0.430176 36.3901 0.430176 33.4201V5.84005C0.430176 2.86005 2.86018 0.430054 5.84018 0.430054Z" fill="#F5C0C0" stroke="white" stroke-width="0.8504" stroke-miterlimit="10"/>
<path d="M20.4703 16.19H26.9303L26.2503 18.51H19.7603L20.4703 16.19ZM38.1003 12.19L35.9203 19.56L35.6903 20.47C35.6903 20.58 35.6603 20.64 35.6603 20.7C35.6603 20.79 35.6903 20.87 35.7703 20.96C35.8303 21.02 35.8803 21.05 35.9403 21.05C36.1103 21.05 36.3103 20.94 36.5603 20.71C36.6703 20.6 36.9603 20.26 37.3503 19.69L37.7503 19.89C37.2103 20.85 36.6703 21.53 36.0803 21.99C35.4803 22.42 34.8303 22.64 34.1503 22.64C33.7203 22.64 33.4103 22.53 33.1903 22.3C32.9903 22.1 32.8803 21.82 32.8803 21.51C32.8803 21.2 32.9903 20.69 33.2203 19.89L33.5003 18.98C32.6503 20.45 31.8303 21.5 31.0303 22.1C30.5503 22.47 30.0703 22.64 29.5603 22.64C28.8803 22.64 28.4003 22.36 28.0903 21.79C27.7803 21.25 27.6403 20.6 27.6403 19.92C27.6403 18.87 27.9503 17.68 28.5803 16.32C29.2303 14.99 30.0803 13.88 31.1003 13.06C31.9803 12.38 32.7703 12.04 33.5103 12.04C33.9403 12.04 34.2803 12.18 34.5303 12.41C34.7903 12.67 34.9603 13.09 35.0703 13.71L35.5003 12.38L38.1003 12.19ZM34.5503 14.31C34.5503 13.71 34.4403 13.26 34.2703 13.01C34.1303 12.84 33.9603 12.73 33.7303 12.73C33.4703 12.73 33.2503 12.84 32.9903 13.07C32.5103 13.52 31.9403 14.46 31.3703 15.85C30.8003 17.24 30.4903 18.46 30.4903 19.48C30.4903 19.85 30.5803 20.13 30.6903 20.3C30.8303 20.5 30.9703 20.58 31.1203 20.58C31.4603 20.58 31.8003 20.38 32.1403 19.98C32.6503 19.44 33.0803 18.79 33.4703 18C34.1903 16.61 34.5503 15.39 34.5503 14.31ZM36.2603 21.66C35.6403 21.94 35.0103 22.37 34.4503 22.94C33.8303 23.56 33.4603 24.13 33.2903 24.7C33.2303 24.81 33.2303 24.96 33.2303 25.07C33.2303 25.47 33.4003 25.72 33.7703 25.86C33.9103 25.92 34.0803 25.95 34.2203 25.95C34.5903 25.95 34.9903 25.81 35.3503 25.55L35.4903 25.83C34.4703 26.77 33.5603 27.22 32.8003 27.22C32.2003 27.22 31.7503 27.05 31.4403 26.71C31.2703 26.48 31.1803 26.23 31.1803 25.94C31.1803 25.4 31.4403 24.83 31.9203 24.27C32.9403 23.05 34.1903 22.17 35.7203 21.66H36.2603Z" fill="#221F20"/>
</g>
<defs>
<clipPath id="clip0_333_305">
<rect width="57.86" height="39.26" fill="white"/>
</clipPath>
</defs>
</svg>
