<svg width="58" height="40" viewBox="0 0 58 40" fill="none" xmlns="http://www.w3.org/2000/svg">
<path fill-rule="evenodd" clip-rule="evenodd" d="M6.53232 1.33081H51.4199C52.8113 1.33081 54.1458 1.88304 55.1303 2.86622C56.1149 3.8494 56.669 5.18314 56.6709 6.57454V33.3881C56.669 34.7802 56.1151 36.1147 55.1308 37.099C54.1464 38.0834 52.8119 38.6372 51.4199 38.6392H6.53232C5.14025 38.6372 3.80575 38.0834 2.8214 37.099C1.83705 36.1147 1.28319 34.7802 1.28125 33.3881V6.57454C1.2832 5.18314 1.83729 3.8494 2.82185 2.86622C3.80641 1.88304 5.14092 1.33081 6.53232 1.33081Z" fill="#F5C0C0" stroke="#F2F2F2" stroke-width="1.13" stroke-miterlimit="10"/>
<path d="M20.7724 18.8834H27.037L26.3687 21.1308H20.0601L20.7724 18.8834ZM30.7018 20.7782C30.6419 21.1623 30.6076 21.55 30.5989 21.9386C30.5885 22.175 30.6253 22.4111 30.7073 22.633C30.7892 22.855 30.9147 23.0584 31.0763 23.2312C31.2405 23.3922 31.4361 23.5177 31.6509 23.5999C31.8657 23.682 32.0951 23.719 32.3248 23.7086C32.8468 23.7055 33.3632 23.6007 33.8451 23.4001C34.4804 23.0934 35.075 22.7085 35.615 22.2544L35.9455 22.5261C35.2674 23.3326 34.4488 24.0094 33.5293 24.5238C32.7229 24.9285 31.8316 25.135 30.9294 25.126C30.4796 25.1757 30.0243 25.1251 29.5963 24.9778C29.1684 24.8305 28.7784 24.5901 28.4545 24.2741C27.9893 23.7141 27.7439 23.0041 27.7641 22.2764C27.7782 21.0259 28.1309 19.8026 28.7849 18.7366C29.4657 17.5674 30.4339 16.5915 31.5978 15.9017C32.6614 15.226 33.8923 14.8598 35.1523 14.8442C35.6436 14.813 36.1286 14.9676 36.511 15.2775C36.6604 15.4154 36.7784 15.5838 36.857 15.7714C36.9356 15.9589 36.9728 16.1612 36.9663 16.3644C36.9613 16.9019 36.8089 17.4278 36.5257 17.8846C36.1329 18.5412 35.5922 19.097 34.9467 19.5077C34.2876 19.9241 33.573 20.2455 32.8242 20.4624C32.1278 20.6319 31.4174 20.7376 30.7018 20.7782ZM30.8046 20.2348C31.3096 20.1684 31.8036 20.035 32.2734 19.8382C32.6636 19.6549 33.0113 19.3923 33.2943 19.0671C33.6559 18.6744 33.951 18.2254 34.1682 17.7377C34.3928 17.2694 34.5154 16.7588 34.5281 16.2395C34.5358 16.0645 34.4752 15.8934 34.3591 15.7622C34.2411 15.6534 34.0864 15.5931 33.9258 15.5933C33.4554 15.6755 33.036 15.9392 32.7581 16.3277C31.8202 17.4799 31.1459 18.8235 30.7825 20.2641L30.8046 20.2348Z" fill="#221F20"/>
</svg>
