<svg width="56" height="37" viewBox="0 0 56 37" fill="none" xmlns="http://www.w3.org/2000/svg">
<g clip-path="url(#clip0_308_208)">
<path fill-rule="evenodd" clip-rule="evenodd" d="M5.6521 0.405273H50.3476C53.2318 0.405273 55.5837 2.70482 55.5837 5.50385V31.4962C55.5837 34.3047 53.2221 36.5948 50.3476 36.5948H5.6521C2.7679 36.5948 0.416016 34.2952 0.416016 31.4962V5.50385C0.416016 2.69539 2.7679 0.405273 5.6521 0.405273Z" fill="#FFAD00" stroke="#F2F2F2" stroke-width="0.8504" stroke-miterlimit="10"/>
<path d="M20.2768 17.4162H26.5001L25.8419 19.6027H19.5605L20.2768 17.4162ZM30.1779 19.2634C30.0908 19.7158 30.0714 20.0927 30.0714 20.3849C30.0714 20.9221 30.236 21.3179 30.536 21.6383C30.8651 21.9588 31.2812 22.119 31.7942 22.119C32.2878 22.119 32.7814 22.0153 33.3041 21.7986C33.7977 21.5818 34.3977 21.2142 35.0559 20.7053L35.3849 20.9692C34.5623 21.874 33.7686 22.5148 32.975 22.8918C32.2104 23.297 31.3587 23.4761 30.4005 23.4761C29.2197 23.4761 28.368 23.2122 27.9325 22.6467C27.4679 22.0813 27.2453 21.4404 27.2453 20.6959C27.2453 19.5744 27.5744 18.4246 28.2615 17.2749C28.9487 16.1251 29.8779 15.2204 31.0586 14.523C32.2394 13.8538 33.4202 13.5051 34.601 13.5051C35.2011 13.5051 35.6753 13.6371 35.9753 13.9104C36.2754 14.2025 36.4399 14.5512 36.4399 14.9753C36.4399 15.4842 36.2754 15.9649 35.9753 16.4455C35.5592 17.1147 35.0462 17.6236 34.4074 18.0194C33.7783 18.4246 33.0621 18.7451 32.2975 18.9241C31.7458 19.1032 31.0586 19.2069 30.1779 19.2634ZM30.265 18.7262C30.8941 18.6414 31.3877 18.5095 31.7458 18.3492C32.1039 18.2173 32.433 17.944 32.7621 17.6047C33.1202 17.256 33.3912 16.8319 33.6428 16.323C33.8945 15.7858 34.03 15.3052 34.03 14.8245C34.03 14.636 33.9719 14.5041 33.8364 14.3722C33.7299 14.2685 33.5847 14.212 33.4202 14.212C33.0621 14.212 32.675 14.457 32.2394 14.9094C31.4458 15.7575 30.778 17.0487 30.265 18.7262ZM33.3621 22.5714C32.733 22.8352 32.1523 23.2405 31.5813 23.7777C31.0006 24.362 30.6231 24.8992 30.4586 25.4364C30.4295 25.5683 30.4005 25.6814 30.4005 25.7851C30.4005 26.162 30.5941 26.3976 30.9522 26.5296C31.0877 26.5861 31.2232 26.6144 31.3877 26.6144C31.7458 26.6144 32.1039 26.4825 32.462 26.2374L32.5975 26.5013C31.6103 27.3872 30.7586 27.8396 29.994 27.8396C29.4133 27.8396 28.9778 27.6511 28.7068 27.3306C28.5422 27.1422 28.4551 26.9066 28.4551 26.605C28.4551 26.0961 28.6777 25.5589 29.1713 25.0311C30.1295 23.8813 31.3684 23.0803 32.8201 22.5714H33.3621Z" fill="#221F20"/>
</g>
<defs>
<clipPath id="clip0_308_208">
<rect width="56" height="37" fill="white"/>
</clipPath>
</defs>
</svg>
