<svg width="62" height="42" viewBox="0 0 62 42" fill="none" xmlns="http://www.w3.org/2000/svg">
<path fill-rule="evenodd" clip-rule="evenodd" d="M6.51089 0.655273H55.1596C56.6676 0.655272 58.1139 1.25377 59.181 2.31934C60.248 3.3849 60.8486 4.8304 60.8507 6.33839V35.3987C60.8486 36.9074 60.2483 38.3537 59.1815 39.4205C58.1146 40.4874 56.6683 41.0876 55.1596 41.0897H6.51089C5.00217 41.0876 3.55585 40.4874 2.48903 39.4205C1.4222 38.3537 0.82193 36.9074 0.819824 35.3987V6.33839C0.821933 4.8304 1.42246 3.3849 2.48951 2.31934C3.55657 1.25377 5.0029 0.655272 6.51089 0.655273Z" fill="#FAB31E" stroke="#F2F2F2" stroke-width="1.13" stroke-miterlimit="10"/>
<path d="M21.9444 19.6786H28.7339L28.0096 22.1142H21.1724L21.9444 19.6786ZM40.4902 15.4759L38.2058 23.2206L37.9591 24.1678C37.9369 24.2564 37.9235 24.3471 37.9192 24.4384C37.925 24.5315 37.9647 24.6192 38.0307 24.6851C38.055 24.7139 38.0855 24.7368 38.12 24.752C38.1545 24.7672 38.192 24.7743 38.2297 24.7727C38.4819 24.7316 38.7123 24.6052 38.8823 24.4145C39.1799 24.0687 39.4588 23.7074 39.7181 23.332L40.124 23.5549C39.6941 24.3975 39.0953 25.1426 38.365 25.7437C37.7865 26.1989 37.0714 26.4457 36.3353 26.4442C35.9681 26.4651 35.6067 26.3456 35.3244 26.1099C35.2123 25.9971 35.1242 25.8628 35.0654 25.7151C35.0065 25.5673 34.9782 25.4092 34.9822 25.2503C35.0409 24.6718 35.1692 24.1026 35.3642 23.5549L35.6587 22.6077C34.998 23.8523 34.1098 24.9619 33.04 25.8791C32.6106 26.2425 32.0665 26.4427 31.5039 26.4442C31.1883 26.4634 30.8739 26.391 30.5985 26.2357C30.3231 26.0803 30.0985 25.8487 29.9517 25.5686C29.6131 24.9611 29.4427 24.2741 29.4582 23.5788C29.508 22.2638 29.8535 20.9769 30.4691 19.8139C31.0678 18.4718 31.9827 17.2947 33.1356 16.3833C33.8279 15.7443 34.7186 15.3622 35.6587 15.3008C36.048 15.2847 36.4281 15.4219 36.7173 15.6829C37.053 16.0689 37.259 16.5505 37.3064 17.0599L37.7362 15.6351L40.4902 15.4759ZM36.7412 17.6887C36.7854 17.218 36.6825 16.7453 36.4467 16.3356C36.3855 16.2423 36.3015 16.1662 36.2026 16.1147C36.1036 16.0631 35.9931 16.0378 35.8816 16.0411C35.5785 16.0537 35.2925 16.1853 35.0856 16.4072C34.3282 17.2525 33.7464 18.2401 33.3744 19.3124C32.8263 20.512 32.518 21.8072 32.467 23.1251C32.4434 23.4338 32.5156 23.7424 32.6739 24.0086C32.7182 24.0906 32.782 24.1604 32.8598 24.2118C32.9376 24.2632 33.0268 24.2946 33.1196 24.3031C33.3335 24.2845 33.5408 24.2202 33.7276 24.1144C33.9144 24.0087 34.0762 23.864 34.2022 23.6902C34.7511 23.0472 35.214 22.3355 35.5791 21.5729C36.2665 20.3895 36.6545 19.0562 36.7094 17.6887H36.7412Z" fill="#221F20"/>
</svg>
