<svg width="56" height="38" viewBox="0 0 56 38" fill="none" xmlns="http://www.w3.org/2000/svg">
<g clip-path="url(#clip0_308_223)">
<path fill-rule="evenodd" clip-rule="evenodd" d="M5.6521 0.41626H50.3476C53.2318 0.41626 55.5837 2.77795 55.5837 5.65263V32.3475C55.5837 35.2318 53.2221 37.5839 50.3476 37.5839H5.6521C2.7679 37.5839 0.416016 35.2222 0.416016 32.3475V5.65263C0.416016 2.76827 2.7679 0.41626 5.6521 0.41626Z" fill="#F5C0C0" stroke="#F2F2F2" stroke-width="0.8504" stroke-miterlimit="10"/>
<path d="M19.8122 17.8869H26.0645L25.4064 20.1325H19.125L19.8122 17.8869ZM36.8754 14.025L34.7655 21.1584L34.5429 22.0392C34.5429 22.1457 34.5139 22.2328 34.5139 22.2909C34.5139 22.378 34.5429 22.4264 34.601 22.5135C34.6881 22.5716 34.7365 22.6006 34.7945 22.6006C34.93 22.6006 35.1527 22.4941 35.3946 22.2715C35.5011 22.1651 35.7818 21.8553 36.1592 21.2843L36.5464 21.4778C36.0237 22.407 35.5011 23.0652 34.93 23.5104C34.3493 23.9266 33.7202 24.1396 33.0621 24.1396C32.6459 24.1396 32.3459 24.0331 32.133 23.8395C31.9103 23.6169 31.8329 23.3749 31.8329 23.0458C31.8329 22.7748 31.9394 22.2522 32.162 21.4778L32.433 20.6261C31.6103 22.0295 30.7876 23.0362 30.0424 23.646C29.5778 23.975 29.1132 24.1396 28.6196 24.1396C27.9615 24.1396 27.4679 23.8686 27.1969 23.3459C26.8969 22.7942 26.7614 22.1941 26.7614 21.5069C26.7614 20.4906 27.0614 19.3388 27.6711 18.0515C28.3003 16.7351 29.1229 15.6898 30.1101 14.8961C30.9619 14.2379 31.7265 13.9088 32.4427 13.9088C32.8588 13.9088 33.1879 14.0153 33.4299 14.2379C33.6815 14.4896 33.8461 14.8961 33.9525 15.5252L34.3687 14.2089L36.8754 14.025ZM33.4396 16.0769C33.4396 15.4962 33.3331 15.0897 33.1686 14.8186C33.0331 14.6541 32.8685 14.567 32.6169 14.567C32.3943 14.567 32.1813 14.6541 31.9297 14.867C31.4361 15.3026 30.9135 16.2124 30.3618 17.5578C29.8101 18.9322 29.5101 20.0841 29.5101 21.0713C29.5101 21.4585 29.5972 21.7295 29.7036 21.894C29.8391 22.0586 29.9746 22.1457 30.1198 22.1457C30.4489 22.1457 30.778 21.9521 31.107 21.594C31.6006 21.0423 32.0168 20.4131 32.3943 19.6485C33.0911 18.3031 33.4396 17.1223 33.4396 16.0769ZM35.0946 23.1814C34.4945 23.4524 33.8848 23.8686 33.3428 24.4203C32.7427 25.0204 32.3556 25.5721 32.2201 26.1238C32.162 26.2593 32.162 26.3754 32.162 26.4819C32.162 26.8691 32.3265 27.1401 32.6846 27.2466C32.8201 27.3046 32.9556 27.3337 33.1202 27.3337C33.4783 27.3337 33.8654 27.2272 34.2138 26.9465L34.3493 27.2175C33.3621 28.1274 32.4814 28.592 31.7458 28.592C31.1651 28.592 30.7296 28.3984 30.4295 28.0693C30.265 27.8757 30.1779 27.6337 30.1779 27.324C30.1779 26.8013 30.4295 26.2496 30.8941 25.7076C31.8813 24.5267 33.0911 23.704 34.5719 23.1814H35.0946Z" fill="#221F20"/>
</g>
<defs>
<clipPath id="clip0_308_223">
<rect width="56" height="38" fill="white"/>
</clipPath>
</defs>
</svg>
