<svg width="67" height="57" viewBox="0 0 67 57" fill="none" xmlns="http://www.w3.org/2000/svg">
<path fill-rule="evenodd" clip-rule="evenodd" d="M5.82887 0.803589H49.8066C52.6416 0.803589 54.9441 3.35793 54.9441 6.4735V46.1269C54.9441 49.2497 52.6416 51.7968 49.8066 51.7968H5.82887C2.99392 51.7968 0.691406 49.2497 0.691406 46.1269V6.4735C0.691406 3.35793 2.99392 0.803589 5.82887 0.803589Z" fill="#FFAD00"/>
<path d="M5.82907 0.400635H49.8068V1.21371H5.82907V0.400635ZM49.8068 0.400635C50.5512 0.41044 51.2854 0.574758 51.9629 0.88317C52.6404 1.19158 53.2465 1.63737 53.7427 2.19227L53.1311 2.74632C52.7163 2.271 52.2057 1.88873 51.6328 1.6246C51.0599 1.36048 50.4377 1.22045 49.8068 1.21371V0.400635ZM53.7427 2.19227C54.7935 3.36936 55.3681 4.89567 55.3544 6.47348H54.5342C54.5382 5.09471 54.0247 3.76463 53.0951 2.74632L53.7427 2.19227ZM55.3544 6.47348V46.1269H54.5342V6.47348H55.3544ZM55.3544 46.1269C55.3641 47.6975 54.7897 49.2157 53.7427 50.3865L53.1311 49.8612C54.0599 48.8396 54.5732 47.5076 54.5701 46.1269H55.3544ZM53.7427 50.3865C53.25 50.9462 52.6448 51.3957 51.9666 51.7057C51.2884 52.0156 50.5525 52.1791 49.8068 52.1853V51.3867C50.4369 51.3795 51.0584 51.24 51.6311 50.9772C52.2037 50.7144 52.7148 50.3342 53.1311 49.8612L53.7427 50.3865ZM49.8068 52.1853H5.82907V51.3867H49.8068V52.1853ZM5.82907 52.1853C5.08343 52.1791 4.3475 52.0156 3.66931 51.7057C2.99112 51.3957 2.38593 50.9462 1.89323 50.3865L2.50484 49.8612C2.92115 50.3342 3.43221 50.7144 4.00488 50.9772C4.57755 51.24 5.19903 51.3795 5.82907 51.3867V52.1853ZM1.89323 50.3865C0.846262 49.2157 0.271829 47.6975 0.281488 46.1269H1.10174C1.0987 47.5076 1.61199 48.8396 2.54081 49.8612L1.89323 50.3865ZM0.281488 46.1269V6.47348H1.10174V46.1269H0.281488ZM0.281488 6.47348C0.267838 4.89567 0.842444 3.36936 1.89323 2.19227L2.50484 2.74632C1.57528 3.76463 1.06173 5.09471 1.06577 6.47348H0.281488ZM1.89323 2.19227C2.38944 1.63737 2.99551 1.19158 3.67302 0.88317C4.35054 0.574758 5.08473 0.41044 5.82907 0.400635V1.21371C5.19826 1.22045 4.576 1.36048 4.0031 1.6246C3.43021 1.88873 2.91962 2.271 2.50484 2.74632L1.89323 2.19227Z" fill="#F2F2F2"/>
<path d="M19.9677 9.39474H26.1053L25.4505 11.5965H19.2697L19.9677 9.39474ZM33.4445 5.43732C33.9929 5.44227 34.5325 5.57533 35.0203 5.82587C35.4905 6.0625 35.8753 6.43974 36.1212 6.90517C36.3764 7.36785 36.5101 7.88774 36.5097 8.41618C36.4864 9.62148 36.1544 10.8007 35.5455 11.8412C34.9385 12.9389 34.0682 13.8686 33.0128 14.5466C32.0803 15.1679 30.9888 15.5076 29.8684 15.5252C29.4582 15.5494 29.0475 15.4856 28.664 15.3379C28.2805 15.1902 27.9331 14.9621 27.6451 14.6689C27.1213 14.1048 26.8374 13.3591 26.8536 12.5895C26.839 11.638 27.0407 10.6957 27.4436 9.83366C27.8078 9.01198 28.3117 8.25972 28.933 7.61031C29.525 6.96529 30.2297 6.43372 31.0125 6.04172C31.7634 5.65779 32.594 5.45569 33.4373 5.45171L33.4445 5.43732ZM32.9984 6.00575C32.6634 5.99131 32.3358 6.10738 32.0846 6.32954C31.3142 7.2341 30.743 8.29075 30.4081 9.43072C29.8272 10.8308 29.5101 12.3261 29.4727 13.8415C29.4666 13.987 29.4903 14.1322 29.5423 14.2683C29.5942 14.4044 29.6734 14.5285 29.7749 14.6329C29.8645 14.7359 29.9751 14.8187 30.0991 14.8757C30.2231 14.9328 30.3579 14.9628 30.4944 14.9639C30.7574 14.9589 31.011 14.8651 31.2139 14.6977C31.6911 14.204 32.0762 13.6289 32.3508 12.9996C32.8173 12.0813 33.1863 11.1167 33.4517 10.1215C33.7233 9.16599 33.8684 8.17901 33.8834 7.18578C33.8972 7.03592 33.8808 6.88479 33.8351 6.7414C33.7894 6.59801 33.7152 6.46529 33.6172 6.35113C33.549 6.25276 33.4574 6.17295 33.3506 6.11893C33.2438 6.0649 33.1252 6.03836 33.0056 6.04172L32.9984 6.00575ZM9.48408 25.2172H15.6217L14.9669 27.419H8.78613L9.48408 25.2172ZM19.2122 27.0736C19.1538 27.4452 19.1202 27.8201 19.1114 28.1961C19.0921 28.6702 19.2601 29.1328 19.5791 29.4841C19.7407 29.6408 19.9324 29.7631 20.1427 29.8435C20.353 29.9239 20.5774 29.9607 20.8023 29.9518C21.3162 29.9515 21.8241 29.841 22.2918 29.628C22.9157 29.339 23.4988 28.9688 24.0258 28.5271L24.3496 28.7861C23.6873 29.5801 22.8849 30.2459 21.9824 30.7504C21.1911 31.1436 20.3187 31.3457 19.4352 31.3405C19.0394 31.4048 18.6341 31.3793 18.2494 31.2659C17.8647 31.1525 17.5104 30.9542 17.2127 30.6854C16.915 30.4167 16.6814 30.0846 16.5294 29.7135C16.3773 29.3424 16.3105 28.9418 16.334 28.5415C16.3531 27.3171 16.6983 26.1199 17.3342 25.0733C18.0034 23.9315 18.9516 22.9783 20.09 22.3031C21.132 21.64 22.3375 21.2788 23.5725 21.2598C24.0552 21.2276 24.5318 21.3822 24.9037 21.6915C25.051 21.8243 25.1674 21.9879 25.2445 22.1707C25.3216 22.3535 25.3575 22.551 25.3498 22.7492C25.3434 23.2747 25.1969 23.7889 24.9252 24.2387C24.5277 24.8744 23.9975 25.4168 23.3711 25.8288C22.7311 26.2441 22.0292 26.555 21.2916 26.7499C20.6085 26.9145 19.913 27.0228 19.2122 27.0736ZM19.3129 26.5268C19.8071 26.4709 20.2913 26.3475 20.7519 26.1598C21.1279 25.9854 21.4673 25.7413 21.7521 25.4403C22.1088 25.0548 22.3983 24.6121 22.6084 24.1308C22.8363 23.6664 22.9615 23.1584 22.9753 22.6413C22.9793 22.4716 22.9233 22.306 22.817 22.1736C22.6984 22.068 22.5441 22.0114 22.3853 22.0153C22.1561 22.0526 21.9368 22.1355 21.7403 22.259C21.5437 22.3826 21.3741 22.5445 21.2412 22.7349C20.3251 23.8655 19.6647 25.1813 19.3057 26.5916L19.3129 26.5268ZM31.6745 25.2172H37.8121L37.1573 27.419H30.9765L31.6745 25.2172ZM41.4025 27.0736C41.3442 27.4452 41.3105 27.8201 41.3018 28.1961C41.2824 28.6702 41.4505 29.1328 41.7695 29.4841C41.9316 29.6401 42.1234 29.7619 42.3335 29.8423C42.5437 29.9226 42.7678 29.9599 42.9927 29.9518C43.5068 29.954 44.0153 29.8434 44.4821 29.628C45.1088 29.344 45.6926 28.9734 46.2162 28.5271L46.54 28.7861C45.8825 29.5851 45.0792 30.2517 44.1727 30.7504C43.3818 31.1444 42.5092 31.3465 41.6256 31.3405C41.1829 31.3906 40.7347 31.3395 40.3147 31.1912C39.8946 31.0429 39.5138 30.8011 39.2008 30.4842C38.7523 29.9372 38.5126 29.2487 38.5244 28.5415C38.5435 27.3171 38.8887 26.1199 39.5245 25.0733C40.1937 23.9315 41.142 22.9783 42.2803 22.3031C43.3244 21.6387 44.5326 21.2775 45.7701 21.2598C46.0083 21.241 46.2479 21.2694 46.4751 21.3435C46.7023 21.4176 46.9127 21.5359 47.094 21.6915C47.2441 21.8233 47.3638 21.9861 47.4445 22.1688C47.5253 22.3515 47.5653 22.5495 47.5617 22.7492C47.5475 23.2765 47.3935 23.7905 47.1156 24.2387C46.718 24.8744 46.1879 25.4168 45.5614 25.8288C44.9234 26.2477 44.2209 26.5589 43.4819 26.7499C42.7992 26.9163 42.1036 27.0246 41.4025 27.0736ZM41.5032 26.5268C41.9975 26.4709 42.4817 26.3475 42.9423 26.1598C43.3182 25.9854 43.6576 25.7413 43.9425 25.4403C44.311 25.0642 44.6019 24.6192 44.7987 24.1308C45.0267 23.6664 45.1519 23.1584 45.1657 22.6413C45.1697 22.4716 45.1137 22.306 45.0074 22.1736C44.9497 22.1197 44.8817 22.0779 44.8076 22.0507C44.7334 22.0235 44.6545 22.0115 44.5757 22.0153C44.3465 22.0526 44.1271 22.1355 43.9306 22.259C43.7341 22.3826 43.5644 22.5445 43.4316 22.7349C42.5154 23.8655 41.8551 25.1813 41.4961 26.5916L41.5032 26.5268ZM44.5253 30.4195C43.8806 30.7234 43.2938 31.1373 42.7912 31.6427C42.2892 32.0915 41.9102 32.6611 41.6903 33.2976C41.6479 33.4153 41.626 33.5394 41.6256 33.6646C41.6206 33.8311 41.6698 33.9949 41.7658 34.1311C41.8618 34.2673 41.9994 34.3687 42.158 34.4201C42.2967 34.4564 42.4392 34.4757 42.5825 34.4776C42.9731 34.4661 43.3514 34.3383 43.669 34.1107L43.7914 34.3769C43.1283 35.128 42.2107 35.6073 41.2154 35.7224C40.9806 35.7382 40.7452 35.7004 40.5271 35.6119C40.3089 35.5234 40.1137 35.3865 39.9562 35.2115C39.7884 35.0103 39.7012 34.7539 39.7116 34.492C39.7511 33.886 40.0063 33.3142 40.4311 32.8803C41.3773 31.7388 42.6233 30.8841 44.0288 30.4123L44.5253 30.4195Z" fill="#221F20"/>
<path d="M34.9558 38.4567H63.1686C63.9319 38.4567 64.664 38.7599 65.2037 39.2996C65.7435 39.8394 66.0467 40.5715 66.0467 41.3348V52.9768C66.0467 53.7401 65.7435 54.4722 65.2037 55.012C64.664 55.5517 63.9319 55.8549 63.1686 55.8549H34.9558C34.1924 55.8549 33.4604 55.5517 32.9206 55.012C32.3809 54.4722 32.0776 53.7401 32.0776 52.9768V41.3348C32.0776 40.5715 32.3809 39.8394 32.9206 39.2996C33.4604 38.7599 34.1924 38.4567 34.9558 38.4567Z" fill="#FFAD00" stroke="#F2F2F2" stroke-width="0.85" stroke-miterlimit="10"/>
<path d="M36.4669 45.7168H41.0575L40.5683 47.3717H35.9561L36.4669 45.7168ZM45.9647 42.7595L44.2882 48.1272C44.2246 48.2912 44.1835 48.4631 44.1659 48.6381C44.1664 48.6592 44.1727 48.6798 44.1842 48.6975C44.1956 48.7153 44.2117 48.7296 44.2307 48.7388C44.2497 48.7574 44.2722 48.7721 44.2969 48.782C44.3216 48.7919 44.348 48.7968 44.3746 48.7964C44.5976 48.7964 44.9214 48.5949 45.31 48.1632C46.0113 47.343 46.6083 46.4391 47.0872 45.4721L47.8427 43.0689L49.8214 42.9826L48.2673 48.2279C48.1743 48.4722 48.1068 48.7254 48.0658 48.9835C48.0705 49.0296 48.091 49.0726 48.1237 49.1054C48.1565 49.1381 48.1996 49.1586 48.2457 49.1633C48.3291 49.1634 48.4101 49.1355 48.4759 49.0842C48.7493 48.8129 48.9908 48.5111 49.1954 48.1848L49.4617 48.3718C48.7421 49.6526 47.9363 50.2858 47.0368 50.2858C46.757 50.2991 46.4815 50.2124 46.2598 50.0412C46.1709 49.9576 46.1012 49.8558 46.0553 49.7428C46.0093 49.6298 45.9883 49.5083 45.9935 49.3864C46.0085 49.0182 46.0788 48.6543 46.2022 48.3071L46.5907 46.9832C45.9144 47.9617 45.4251 48.6381 45.1517 48.9835C44.8154 49.3916 44.4143 49.7417 43.9644 50.0196C43.6887 50.1875 43.3734 50.2793 43.0506 50.2858C42.9161 50.2897 42.7822 50.2648 42.6581 50.2127C42.534 50.1605 42.4225 50.0824 42.3311 49.9836C42.2321 49.8804 42.1543 49.7586 42.1025 49.6252C42.0506 49.4918 42.0256 49.3496 42.0289 49.2065C42.0399 48.8365 42.1154 48.4713 42.252 48.1272L43.2305 44.9829C43.3417 44.6464 43.4165 44.2991 43.4536 43.9467C43.4542 43.8732 43.4342 43.8009 43.396 43.7381C43.3461 43.6758 43.282 43.6264 43.2089 43.5942C43.0648 43.5487 42.9138 43.5292 42.7628 43.5366L42.8204 43.2272L45.4971 42.7595H45.9647ZM54.5991 42.7595L53.5414 46.2061C53.988 45.4533 54.4856 44.7321 55.0308 44.0475C55.3456 43.6434 55.722 43.2913 56.1461 43.0041C56.4211 42.8495 56.7301 42.7654 57.0455 42.7595C57.1879 42.7513 57.3303 42.7763 57.4614 42.8324C57.5925 42.8886 57.7088 42.9745 57.801 43.0833C57.9515 43.2926 58.0298 43.5451 58.0241 43.8028C57.9973 44.1849 57.9224 44.562 57.801 44.9253L57.4341 46.1917C57.9184 45.4578 58.4495 44.756 59.0242 44.0906C59.3901 43.6534 59.8252 43.2791 60.3122 42.9826C60.5641 42.8536 60.8423 42.7847 61.1253 42.7811C61.2618 42.7779 61.3973 42.8053 61.5218 42.8613C61.6463 42.9174 61.7567 43.0006 61.8448 43.1049C61.9468 43.2108 62.0267 43.336 62.0798 43.4731C62.1329 43.6102 62.1582 43.7566 62.1542 43.9036C62.1348 44.3443 62.0449 44.7792 61.888 45.1915L60.931 48.0696C60.8281 48.3335 60.7581 48.609 60.7223 48.8899C60.7281 48.9332 60.7428 48.9749 60.7655 49.0122C60.7981 49.0454 60.8415 49.0659 60.8878 49.0698C60.9413 49.0691 60.9925 49.0486 61.0317 49.0122C61.265 48.8234 61.4709 48.6031 61.6433 48.3575C61.6793 48.2927 61.7657 48.192 61.8448 48.0696L62.1326 48.2351C61.8396 48.7953 61.4299 49.286 60.931 49.6742C60.5826 49.9452 60.1622 50.1078 59.7222 50.1419C59.4353 50.1488 59.1551 50.0545 58.9307 49.8757C58.8431 49.7992 58.7723 49.7053 58.7227 49.6C58.6732 49.4948 58.646 49.3804 58.6429 49.2641C58.6717 48.9104 58.7467 48.5621 58.8659 48.2279L59.8445 45.1484C59.9327 44.8873 60.0024 44.6204 60.0532 44.3497C60.0514 44.3259 60.0447 44.3028 60.0336 44.2817C60.0224 44.2607 60.0071 44.2422 59.9884 44.2274C59.9521 44.2025 59.9099 44.1876 59.8661 44.1842C59.783 44.188 59.7008 44.2025 59.6215 44.2274C59.4322 44.348 59.254 44.4853 59.089 44.6375C58.7325 45.0162 58.4008 45.4176 58.096 45.8391C57.7515 46.2483 57.4501 46.692 57.1966 47.163C57.0083 47.5725 56.8519 47.9959 56.7289 48.4294L56.2397 50.0628H54.2394L55.7504 44.9037C55.8132 44.7172 55.8542 44.524 55.8727 44.3281C55.8744 44.309 55.8714 44.2898 55.8639 44.2723C55.8563 44.2547 55.8445 44.2392 55.8295 44.2274C55.7863 44.2274 55.7648 44.1842 55.7288 44.1842C55.5201 44.1842 55.2179 44.4288 54.7862 44.9397C54.1013 45.8304 53.5195 46.796 53.0521 47.8178L52.383 50.0628H50.3539L51.8865 44.9829C52.019 44.6441 52.1014 44.2877 52.1311 43.9251C52.1245 43.8496 52.0971 43.7774 52.052 43.7165C51.9937 43.654 51.9225 43.6049 51.8433 43.5726C51.6504 43.5251 51.4517 43.5057 51.2533 43.515L51.3181 43.2056L54.0883 42.7379L54.5991 42.7595Z" fill="#221F20"/>
</svg>
