<svg width="100" height="55" viewBox="0 0 100 55" fill="none" xmlns="http://www.w3.org/2000/svg">
<path fill-rule="evenodd" clip-rule="evenodd" d="M8.08748 1H64.5111C66.2592 1 67.9358 1.69445 69.1719 2.93057C70.408 4.16669 71.1025 5.84323 71.1025 7.59137V41.3052C71.1025 43.0534 70.408 44.7299 69.1719 45.966C67.9358 47.2021 66.2592 47.8966 64.5111 47.8966H8.08748C6.33934 47.8966 4.6628 47.2021 3.42668 45.966C2.19056 44.7299 1.49609 43.0534 1.49609 41.3052V7.59137C1.49609 5.84323 2.19056 4.16669 3.42668 2.93057C4.6628 1.69445 6.33934 1 8.08748 1Z" fill="#F5C0C0" stroke="#F2F2F2" stroke-width="1.11" stroke-miterlimit="10"/>
<path d="M23.6152 19.9219H31.4713L30.659 22.7468H22.729L23.6152 19.9219ZM36.0964 22.3037C36.0252 22.7901 35.9821 23.2801 35.9671 23.7715C35.9461 24.3681 36.1618 24.9488 36.5672 25.387C36.7751 25.5905 37.0223 25.7494 37.2938 25.8542C37.5652 25.9589 37.8551 26.0073 38.1458 25.9963C38.7995 25.9893 39.4455 25.8544 40.0475 25.5993C40.8488 25.2185 41.5968 24.7344 42.2723 24.1592L42.697 24.5008C41.8452 25.515 40.8161 26.3659 39.6598 27.0118C38.6458 27.5195 37.5257 27.779 36.3918 27.7688C35.8207 27.8317 35.2427 27.7683 34.6987 27.5833C34.1548 27.3983 33.6581 27.096 33.2438 26.6979C32.6774 25.9845 32.3742 25.0977 32.3853 24.1869C32.4145 22.6128 32.8673 21.0757 33.6962 19.7373C34.547 18.2756 35.7538 17.053 37.2042 16.1831C38.5535 15.3307 40.1133 14.8704 41.7092 14.8537C42.3346 14.8085 42.9532 15.007 43.4355 15.4076C43.6268 15.5768 43.7781 15.7862 43.8787 16.0208C43.9793 16.2555 44.0265 16.5096 44.0171 16.7647C44.0137 17.4408 43.8218 18.1025 43.4632 18.6756C42.9668 19.4989 42.2877 20.1969 41.4784 20.7158C40.651 21.2413 39.7525 21.6454 38.8105 21.9159C37.932 22.1295 37.0359 22.2624 36.1333 22.3129L36.0964 22.3037ZM36.2349 21.6205C36.8697 21.5371 37.4906 21.3694 38.0812 21.122C38.5641 20.8992 38.9997 20.5858 39.3644 20.1988C39.8189 19.7052 40.1899 19.1409 40.4629 18.5279C40.7554 17.9322 40.916 17.2804 40.9337 16.617C40.9363 16.3981 40.8611 16.1854 40.7214 16.0169C40.5913 15.8823 40.4182 15.7974 40.2321 15.7769C39.9375 15.8226 39.6553 15.9281 39.4029 16.0869C39.1505 16.2456 38.9332 16.4543 38.7643 16.7001C37.5818 18.1461 36.7338 19.8359 36.281 21.6482L36.2349 21.6205Z" fill="#221F20"/>
<path d="M39.9457 36.6986H41.7274V37.3264H40.7027C40.8525 37.4778 40.9856 37.6449 41.0997 37.8249C41.1805 38.0342 41.2243 38.256 41.2289 38.4803C41.2387 38.8299 41.1278 39.1721 40.915 39.4496C40.6953 39.736 40.4061 39.9615 40.075 40.1051C39.7711 40.2477 39.4412 40.3262 39.1057 40.3359C39.1057 40.3359 38.8749 40.3359 38.4317 40.3359C38.2757 40.3344 38.1246 40.3902 38.0071 40.4928C37.9476 40.5401 37.8999 40.6006 37.8679 40.6695C37.8358 40.7384 37.8203 40.8138 37.8224 40.8898C37.8192 40.9551 37.8317 41.0203 37.859 41.0798C37.8863 41.1393 37.9277 41.1913 37.9794 41.2313C38.1391 41.3231 38.3215 41.3679 38.5056 41.3606H39.4749C40.0384 41.3144 40.6048 41.403 41.1274 41.6191C41.3254 41.7238 41.4895 41.8827 41.6007 42.0772C41.7118 42.2717 41.7654 42.4938 41.7551 42.7176C41.7505 43.0308 41.6471 43.3345 41.4597 43.5854C41.254 43.8495 40.9838 44.0562 40.675 44.1854C40.1387 44.3738 39.5722 44.4614 39.0041 44.4439C38.5639 44.4456 38.1246 44.4023 37.6932 44.3147C37.3899 44.2517 37.1054 44.119 36.8624 43.927C36.7149 43.7993 36.6196 43.6219 36.5947 43.4285C36.5963 43.3397 36.616 43.2522 36.6525 43.1713C36.689 43.0903 36.7415 43.0176 36.807 42.9576C37.0129 42.7772 37.2658 42.6587 37.5363 42.6161C37.3247 42.5364 37.1408 42.3973 37.0065 42.2155C36.8722 42.0337 36.7932 41.817 36.7793 41.5914C36.786 41.3088 36.8979 41.0388 37.0931 40.8344C37.3486 40.5503 37.6639 40.3265 38.0163 40.1789C37.5936 40.0483 37.214 39.8059 36.9177 39.4773C36.699 39.1697 36.5798 38.8024 36.5762 38.4249C36.5758 38.1678 36.6348 37.9142 36.7484 37.6836C36.8621 37.453 37.0275 37.2518 37.2316 37.0956C37.4505 36.8965 37.707 36.7433 37.9861 36.645C38.2652 36.5467 38.5611 36.5053 38.8564 36.5232C39.2222 36.5305 39.5842 36.5991 39.9273 36.7263L39.9457 36.6986ZM38.9764 36.8555C38.866 36.8554 38.7576 36.8843 38.6619 36.9394C38.5663 36.9945 38.4869 37.0738 38.4317 37.1694C38.2335 37.596 38.1507 38.0671 38.1917 38.5357C38.1609 38.9293 38.2342 39.324 38.404 39.6804C38.4603 39.7761 38.5405 39.8555 38.6369 39.9107C38.7332 39.9658 38.8423 39.9948 38.9533 39.9948C39.0643 39.9948 39.1734 39.9658 39.2698 39.9107C39.3661 39.8555 39.4464 39.7761 39.5026 39.6804C39.6959 39.3218 39.7764 38.9131 39.7334 38.508C39.7715 38.0317 39.6823 37.5538 39.4749 37.1233C39.4228 37.0386 39.3493 36.9693 39.2617 36.9222C39.1742 36.8752 39.0757 36.8522 38.9764 36.8555ZM38.6348 42.7176C38.3796 42.701 38.1234 42.7292 37.8778 42.8007C37.788 42.8437 37.7115 42.9102 37.6563 42.993C37.601 43.0759 37.5691 43.1721 37.564 43.2715C37.5685 43.3771 37.5997 43.4799 37.6545 43.5703C37.7094 43.6607 37.7862 43.7357 37.8778 43.7885C38.2671 43.9801 38.7009 44.063 39.1333 44.0285C39.5616 44.0395 39.988 43.9674 40.3888 43.8162C40.5107 43.7748 40.6178 43.6985 40.6966 43.5967C40.7754 43.4949 40.8225 43.3722 40.832 43.2438C40.8378 43.1984 40.8315 43.1523 40.8137 43.1101C40.7958 43.0679 40.7671 43.0312 40.7304 43.0038C40.614 42.8777 40.4573 42.7961 40.2873 42.773C39.7378 42.7266 39.1862 42.7081 38.6348 42.7176ZM45.4108 43.9454V43.7146C45.7849 43.5699 46.1066 43.3157 46.334 42.9853C46.5144 42.7107 46.6136 42.3907 46.6202 42.0622C46.635 42.0204 46.635 41.9747 46.6202 41.9329C46.5993 41.9075 46.5696 41.891 46.5371 41.8868L46.4355 41.9329C46.3122 41.9934 46.1758 42.0219 46.0386 42.016C45.9253 42.0162 45.8133 41.9925 45.7099 41.9463C45.6065 41.9002 45.514 41.8327 45.4385 41.7483C45.3613 41.6692 45.3009 41.5753 45.2612 41.4721C45.2216 41.3689 45.2034 41.2587 45.2077 41.1482C45.2094 41.0255 45.2357 40.9042 45.2848 40.7917C45.3339 40.6791 45.405 40.5775 45.4939 40.4928C45.6753 40.3116 45.9206 40.2088 46.177 40.2066C46.3363 40.2068 46.4936 40.2426 46.6373 40.3112C46.7811 40.3799 46.9077 40.4798 47.0079 40.6036C47.2465 40.8865 47.3686 41.2495 47.3495 41.6191C47.3629 42.1436 47.1858 42.6552 46.851 43.0592C46.4876 43.5193 45.9806 43.8443 45.4108 43.9823V43.9454ZM53.1654 34.2338V39.2835L54.3932 38.0464C54.624 37.8156 54.7809 37.631 54.864 37.5295C54.9093 37.4308 54.9345 37.3241 54.9379 37.2156C54.941 37.1636 54.9307 37.1117 54.9081 37.0649C54.8855 37.018 54.8512 36.9777 54.8086 36.9479C54.6713 36.8488 54.5071 36.7941 54.3378 36.7909V36.6155H56.7196V36.7909C56.5084 36.8076 56.3035 36.8706 56.1195 36.9756C55.7383 37.2436 55.3965 37.5636 55.104 37.9264L54.5317 38.4988L55.7595 40.3451C56.258 41.1021 56.5718 41.4898 56.6826 41.6006C56.8168 41.7294 56.9952 41.802 57.1811 41.8037V42.016H54.4117V41.8037C54.5031 41.8069 54.5943 41.7912 54.6794 41.7575C54.7207 41.7149 54.7467 41.6596 54.7532 41.6006C54.7197 41.4259 54.64 41.2633 54.5224 41.1298L53.47 39.5789L53.1377 39.902V40.8251C53.1071 41.085 53.1421 41.3484 53.2393 41.5914C53.3014 41.6514 53.3753 41.698 53.4563 41.7282C53.5373 41.7584 53.6237 41.7715 53.71 41.7668V41.9791H50.9867V41.7668C51.0751 41.768 51.1627 41.7505 51.2438 41.7155C51.3249 41.6805 51.3978 41.6287 51.4575 41.5637C51.535 41.3257 51.5633 41.0744 51.5406 40.8251V35.4339C51.5738 35.1852 51.5353 34.9322 51.4298 34.7046C51.3755 34.6395 51.3079 34.5868 51.2314 34.5502C51.155 34.5135 51.0715 34.4938 50.9867 34.4922V34.2338H53.1654Z" fill="black"/>
<path fill-rule="evenodd" clip-rule="evenodd" d="M70.1052 27.5316H94.9659C95.9452 27.5316 96.8845 27.9207 97.577 28.6132C98.2695 29.3057 98.6585 30.2449 98.6585 31.2243V50.1214C98.6585 51.1007 98.2695 52.04 97.577 52.7325C96.8845 53.425 95.9452 53.814 94.9659 53.814H70.1052C69.1258 53.814 68.1866 53.425 67.4941 52.7325C66.8016 52.04 66.4125 51.1007 66.4125 50.1214V43.2069L62.8491 40.6682L66.4125 38.1387V31.2243C66.4125 30.2449 66.8016 29.3057 67.4941 28.6132C68.1866 27.9207 69.1258 27.5316 70.1052 27.5316Z" fill="#F5C0C0" stroke="#F2F2F2" stroke-width="0.85" stroke-miterlimit="10"/>
<path d="M72.7734 41.7945H77.9892L77.4353 43.6408H72.1733L72.7734 41.7945ZM82.3281 34.3169C82.5001 34.3164 82.6705 34.3504 82.8291 34.417C82.9876 34.4836 83.1312 34.5814 83.2513 34.7046C83.3788 34.8218 83.4801 34.9646 83.5485 35.1237C83.6169 35.2828 83.6509 35.4546 83.6482 35.6278C83.6435 35.9813 83.5009 36.319 83.2509 36.569C83.0009 36.819 82.6632 36.9616 82.3096 36.9664C82.1358 36.9741 81.9624 36.9424 81.8026 36.8737C81.6427 36.8049 81.5005 36.7009 81.3865 36.5694C81.262 36.4498 81.1628 36.3065 81.0946 36.148C81.0264 35.9894 80.9907 35.8188 80.9895 35.6463C80.9905 35.3027 81.1225 34.9725 81.3588 34.7231C81.4788 34.5999 81.6224 34.5021 81.781 34.4355C81.9396 34.3689 82.1099 34.3348 82.2819 34.3354L82.3281 34.3169ZM83.0574 38.4527L81.0726 44.7302C80.9987 44.9587 80.9461 45.1935 80.9157 45.4318C80.9167 45.5103 80.9462 45.5858 80.9988 45.6441C81.0193 45.6709 81.0459 45.6924 81.0764 45.7068C81.1069 45.7213 81.1404 45.7283 81.1742 45.7272C81.2841 45.7112 81.3869 45.663 81.4696 45.5887C81.8326 45.2139 82.1432 44.7915 82.3927 44.3332L82.7066 44.5178C81.7834 46.1426 80.8603 46.9827 79.7986 46.9827C79.6296 46.9914 79.4606 46.9656 79.3019 46.9069C79.1432 46.8482 78.9981 46.7577 78.8755 46.6411C78.7566 46.5423 78.6617 46.4179 78.5978 46.2772C78.5338 46.1365 78.5025 45.9832 78.5062 45.8287C78.532 45.542 78.5941 45.2598 78.6909 44.9887L80.0479 40.7236C80.1622 40.4276 80.2336 40.1167 80.2602 39.8005C80.2544 39.734 80.235 39.6693 80.2032 39.6106C80.1715 39.5519 80.1281 39.5002 80.0756 39.4589C79.933 39.3498 79.7565 39.2943 79.5771 39.302H79.2355L79.3463 38.9419L82.485 38.4711L83.0574 38.4527ZM86.1223 43.3639C86.0771 43.6696 86.0525 43.978 86.0485 44.287C86.0286 44.6767 86.1573 45.0594 86.4085 45.3579C86.5444 45.4978 86.7086 45.6072 86.89 45.6788C87.0714 45.7505 87.266 45.7827 87.4609 45.7733C87.8928 45.7758 88.3205 45.6878 88.7164 45.5149C89.2453 45.2753 89.7392 44.9647 90.1842 44.5917L90.4704 44.7948C89.9063 45.4752 89.2208 46.0449 88.4487 46.4749C87.7832 46.8052 87.0499 46.9759 86.3069 46.9734C85.9701 47.0279 85.6252 47.006 85.2979 46.9095C84.9706 46.8129 84.6692 46.6441 84.4158 46.4155C84.1624 46.187 83.9636 45.9044 83.8339 45.5888C83.7043 45.2731 83.6471 44.9324 83.6667 44.5917C83.6836 43.5537 83.9802 42.5395 84.5252 41.656C85.0946 40.6883 85.8976 39.8789 86.8608 39.302C87.7489 38.752 88.7704 38.4551 89.8149 38.4434C90.2185 38.4117 90.6195 38.5301 90.9412 38.7758C91.068 38.893 91.1682 39.0361 91.2351 39.1953C91.302 39.3546 91.334 39.5263 91.3289 39.6989C91.319 40.1454 91.1847 40.5801 90.9412 40.9544C90.6079 41.4965 90.1606 41.9596 89.6303 42.3115C89.0891 42.661 88.4976 42.9256 87.8763 43.0962C87.2974 43.2176 86.7116 43.304 86.1223 43.3547V43.3639ZM86.2054 42.8931C86.6276 42.8479 87.0411 42.7422 87.4332 42.5792C87.7536 42.4302 88.0396 42.2165 88.2732 41.9514C88.5726 41.6156 88.8185 41.2357 89.0026 40.8252C89.2008 40.4358 89.3081 40.0065 89.3164 39.5697C89.3182 39.4978 89.3051 39.4263 89.2781 39.3596C89.2511 39.2929 89.2108 39.2324 89.1595 39.182C89.1158 39.1364 89.0624 39.1011 89.0033 39.0788C88.9442 39.0564 88.8809 39.0475 88.8179 39.0527C88.6256 39.076 88.4402 39.1389 88.2734 39.2374C88.1065 39.3359 87.9619 39.4679 87.8486 39.6251C87.0786 40.5877 86.5189 41.7009 86.2054 42.8931Z" fill="black"/>
</svg>
