<svg width="57" height="39" viewBox="0 0 57 39" fill="none" xmlns="http://www.w3.org/2000/svg">
<path fill-rule="evenodd" clip-rule="evenodd" d="M6.12949 0.787109H51.017C52.4084 0.787108 53.7429 1.33934 54.7275 2.32252C55.7121 3.3057 56.2662 4.63944 56.2681 6.03084V32.8444C56.2662 34.2365 55.7123 35.571 54.728 36.5553C53.7436 37.5397 52.4091 38.0935 51.017 38.0955H6.12949C4.73742 38.0935 3.40292 37.5397 2.41857 36.5553C1.43422 35.571 0.880361 34.2365 0.878418 32.8444V6.03084C0.880364 4.63944 1.43446 3.3057 2.41902 2.32252C3.40357 1.33934 4.73809 0.787108 6.12949 0.787109Z" fill="#FFAD00" stroke="#F2F2F2" stroke-width="1.11" stroke-miterlimit="10"/>
<g clip-path="url(#clip0_308_203)">
<path d="M20.0244 19.0011H25.9604L25.3326 21.152H19.3413L20.0244 19.0011ZM36.9275 15.0499L36.0598 15.9177C36.3182 16.3147 36.5029 16.647 36.6137 16.9609C36.7429 17.2748 36.7983 17.6163 36.7983 17.9856C36.7983 19.0842 36.4567 20.1827 35.829 21.2813C35.1735 22.3798 34.3334 23.2476 33.3457 23.8938C32.321 24.5493 31.3332 24.8908 30.3085 24.8908C29.8653 24.8908 29.4684 24.8078 29.1268 24.6785C28.7852 24.5493 28.416 24.3093 28.056 23.9954L27.1882 24.8908L26.7912 24.4939L27.6775 23.6077C27.4282 23.2199 27.2436 22.8507 27.142 22.5368C27.0312 22.2229 26.9851 21.8813 26.9851 21.4659C26.9851 20.3674 27.2713 19.2688 27.899 18.1979C28.4991 17.1271 29.2838 16.2593 30.2808 15.6038C31.2778 14.9761 32.2933 14.6345 33.2903 14.6345C33.7888 14.6345 34.2596 14.7176 34.6473 14.8745C34.9612 15.0038 35.3305 15.2161 35.6905 15.53L36.5583 14.6622L36.9275 15.0499ZM34.4627 16.7578C34.4073 16.1854 34.2504 15.7885 34.0473 15.5577C33.8072 15.3454 33.4934 15.2161 33.1333 15.2161C32.6625 15.2161 32.2656 15.3454 31.9517 15.5854C31.3793 16.0008 30.8254 16.7855 30.2992 17.9394C29.8007 19.1211 29.4592 20.4504 29.2745 21.9921L34.4627 16.7578ZM29.2838 22.7491C29.3668 23.3215 29.5238 23.7184 29.7546 23.9492C29.9669 24.1615 30.2808 24.2631 30.6408 24.2631C31.1393 24.2631 31.527 24.1615 31.8225 23.8938C32.4502 23.423 33.0041 22.5829 33.5211 21.3551C34.0473 20.1273 34.3611 18.8441 34.4627 17.5056L29.2838 22.7491Z" fill="#221F20"/>
</g>
<defs>
<clipPath id="clip0_308_203">
<rect width="17.5862" height="10.2563" fill="white" transform="translate(19.3413 14.6345)"/>
</clipPath>
</defs>
</svg>
