<svg width="16" height="14" viewBox="0 0 16 14" fill="none" xmlns="http://www.w3.org/2000/svg">
<path d="M12.7706 0.236576L13.349 0.341815V0.447055C14.0362 0.761924 14.6505 1.25247 15.1212 1.88306C15.555 2.51365 15.8443 3.24862 15.9529 4.05404C16.0616 4.85946 15.9889 5.77012 15.6637 6.71558C15.0125 8.5369 13.4937 10.533 10.7092 12.424L10.6365 12.4588C10.1299 12.8441 9.58739 13.2294 9.15355 13.5094C8.68378 13.7895 8.24907 14 7.99666 14C7.74424 14 7.34547 13.7895 6.8757 13.5094C6.44186 13.2294 5.86342 12.8441 5.35684 12.4588L5.3209 12.424C2.49966 10.533 0.980799 8.5369 0.366418 6.71558C0.0403845 5.77012 -0.0674169 4.85946 0.0403846 4.05404C0.148186 3.24862 0.438286 2.5128 0.908931 1.88221C1.34277 1.25163 1.95802 0.761923 2.68108 0.446206V0.341815L3.22359 0.236576C3.54875 0.131337 3.91072 0.0617432 4.27269 0.0260976C4.59784 -0.00869921 4.95981 -0.00869921 5.32178 0.0260976C5.611 0.0608945 5.90023 0.09654 6.22626 0.200931C6.51548 0.271373 6.80471 0.411409 7.09393 0.586242C7.27448 0.656684 7.38315 0.761075 7.52776 0.831517C7.63644 0.936756 7.78105 1.042 7.88973 1.18203L7.99841 1.28727L8.14302 1.18203C8.2517 1.042 8.36038 0.936756 8.50499 0.831517C8.61367 0.761075 8.75828 0.656684 8.90289 0.586242C9.19211 0.411409 9.48134 0.271373 9.80737 0.200931C10.0966 0.0956913 10.3858 0.0608945 10.7119 0.0260976C11.0738 -0.00869921 11.399 -0.00869921 11.7609 0.0260976C12.1194 0.0617432 12.4454 0.131337 12.7706 0.236576ZM12.3727 1.63779H12.3368C12.0835 1.56734 11.867 1.49775 11.6137 1.49775C11.3604 1.46295 11.1071 1.46295 10.8538 1.49775H10.8179C10.6005 1.53255 10.42 1.56819 10.2395 1.60299C10.0589 1.67343 9.87749 1.74302 9.69694 1.84826H9.66101C9.58826 1.88306 9.51639 1.9535 9.44365 2.0231C9.37091 2.05789 9.29904 2.12834 9.22629 2.19793C8.97301 2.44321 8.90114 2.54844 8.86433 2.61804C8.61104 3.00335 8.28588 3.38866 7.99666 3.73833C7.88798 3.59829 7.20085 2.79287 7.16492 2.61804C7.09218 2.5476 7.05624 2.44321 6.80295 2.19793H6.76702C6.69428 2.12749 6.65834 2.05789 6.58647 2.0231C6.4778 1.95265 6.40593 1.88306 6.33318 1.84826H6.29725C6.11671 1.74302 5.97209 1.67343 5.79067 1.60299C5.57332 1.56819 5.39277 1.53255 5.21222 1.49775H5.17629C4.88707 1.46295 4.63378 1.46295 4.41642 1.49775C4.16313 1.49775 3.90984 1.56819 3.69336 1.63779H3.65743C3.04305 1.84826 2.53647 2.23273 2.13857 2.72328C1.84935 3.14339 1.63199 3.66873 1.56012 4.26452C1.48738 4.85946 1.56012 5.52485 1.81341 6.22588C2.31999 7.76712 3.69424 9.518 6.18945 11.2341L6.26219 11.2689C6.73196 11.6194 7.27448 12.0047 7.67238 12.2491C7.92567 12.424 7.92567 12.4944 7.99753 12.4944C8.0694 12.4944 8.07028 12.424 8.32269 12.2491C8.75653 12.0039 9.26311 11.6185 9.76968 11.2689L9.80562 11.2341C12.3368 9.518 13.6751 7.76712 14.2176 6.22588C14.4349 5.5257 14.5068 4.86031 14.4349 4.26452C14.3631 3.66873 14.1817 3.14423 13.8565 2.72328C13.4937 2.23273 12.988 1.84742 12.3727 1.63779Z" fill="#FDFDFD"/>
</svg>
