<svg width="16" height="16" viewBox="0 0 16 16" fill="none" xmlns="http://www.w3.org/2000/svg">
<path d="M12.8079 12.0432C14.3017 10.6051 15.2067 9.14439 15.6683 7.79633C15.989 6.85889 16.0608 5.92145 15.9536 5.09235C15.8464 4.26324 15.5611 3.50578 15.1332 2.85753C14.9629 2.61902 14.7728 2.4006 14.5679 2.20315L15.6683 1.09098C15.8827 0.838496 15.8827 0.441854 15.6683 0.189366C15.4185 -0.063122 15.026 -0.063122 14.7762 0.189366L13.5263 1.45268C13.4796 1.42822 13.4329 1.40201 13.3845 1.37929V1.27096L12.814 1.1268C12.4933 1.05429 12.1717 0.98265 11.8156 0.94683C11.4586 0.911009 11.1379 0.911009 10.7809 0.94683C10.4602 0.98265 10.1749 1.01934 9.88878 1.1268C9.60352 1.19932 9.31826 1.30678 9.033 1.48763C8.85493 1.59596 8.71231 1.6676 8.60512 1.77593C8.46249 1.88427 8.3553 1.9926 8.24811 2.10006L8.10548 2.24422L7.99829 2.10006C7.8911 1.99173 7.74847 1.88339 7.64128 1.77593C7.49865 1.70342 7.39146 1.59596 7.21339 1.52345C6.92813 1.34347 6.64288 1.19932 6.35762 1.1268C6.07236 1.01847 5.75166 0.98265 5.46553 0.94683C5.10852 0.911009 4.75238 0.911009 4.43081 0.94683C4.07381 0.98265 3.71767 1.05516 3.3961 1.1268L2.86102 1.27096V1.37929C2.72272 1.4422 2.59132 1.51384 2.46339 1.58984L1.07945 0.19024C0.829631 -0.0622483 0.437182 -0.0622483 0.187364 0.19024C-0.0624546 0.442727 -0.0624546 0.839369 0.187364 1.09186L1.48227 2.4006C1.3526 2.54388 1.23072 2.69677 1.11489 2.8584C0.686999 3.50753 0.365431 4.26412 0.259107 5.09322C0.18736 5.92233 0.259109 6.85976 0.57981 7.7972C0.997326 9.08847 1.83841 10.482 3.23013 11.8606L0.188224 14.935C-0.0615946 15.1875 -0.0615946 15.5841 0.188224 15.8366C0.438042 16.0533 0.830491 16.0533 1.08031 15.8366L4.1689 12.715C4.56653 13.0496 4.99874 13.3816 5.46726 13.7101L5.5027 13.746C6.03778 14.1426 6.57286 14.5392 7.00075 14.8275C7.46408 15.1159 7.85652 15.2958 8.10634 15.2958C8.3916 15.2958 8.78405 15.1159 9.24738 14.8275C9.67527 14.5392 10.2103 14.1426 10.7454 13.746L10.7809 13.7101C11.1638 13.4384 11.5217 13.1641 11.8579 12.888L14.7762 15.8375C15.026 16.0542 15.4185 16.0542 15.6683 15.8375C15.8827 15.585 15.8827 15.1884 15.6683 14.9359L12.8079 12.0432ZM13.885 3.72245C14.2057 4.15491 14.3846 4.69571 14.4555 5.27232C14.5273 5.92145 14.491 6.6064 14.2412 7.32717C13.8582 8.46381 13.0716 9.71052 11.7525 10.9765L8.81949 8.01212L13.5021 3.2795C13.643 3.41579 13.7718 3.56344 13.885 3.72245ZM3.82572 2.60504H3.86116C4.07554 2.53252 4.32449 2.46088 4.57431 2.46088C4.78869 2.42506 5.03764 2.42506 5.32376 2.46088H5.3592C5.53727 2.4967 5.75166 2.5334 5.92973 2.56922C6.1078 2.64173 6.28673 2.71337 6.42936 2.82171H6.4648C6.53655 2.85753 6.64287 2.93004 6.71462 2.96586C6.78637 3.03837 6.82181 3.11001 6.89269 3.18253H6.92813C7.17795 3.43501 7.21339 3.54335 7.28514 3.61499C7.32058 3.79496 7.99829 4.62407 8.10548 4.76822C8.39074 4.4074 8.71144 4.01076 8.96126 3.61499C8.9967 3.50665 9.06844 3.43501 9.31826 3.18253C9.39001 3.11001 9.46089 3.03837 9.53264 2.96586C9.60438 2.93004 9.67527 2.85753 9.74702 2.82171H9.78246C9.96053 2.71337 10.1395 2.64173 10.3175 2.56922C10.4956 2.5334 10.6745 2.4967 10.8881 2.46088H10.9235C11.1733 2.42506 11.4231 2.42506 11.6729 2.46088C11.9228 2.46088 12.1363 2.5334 12.3861 2.60504L7.92741 7.11138L3.57244 2.70988C3.65543 2.67144 3.73928 2.63649 3.82572 2.60504ZM2.00697 7.32805C1.75716 6.60728 1.68627 5.92233 1.75715 5.2732C1.8289 4.69658 2.04241 4.15578 2.32767 3.72332C2.39596 3.63596 2.46858 3.55296 2.54292 3.47171L7.03619 8.013L4.29337 10.7851C3.08318 9.58558 2.34669 8.40702 2.00697 7.32805ZM9.92509 12.4826L9.85334 12.5185C9.35371 12.8793 8.85493 13.2759 8.42618 13.5275C8.17636 13.6717 8.17636 13.78 8.10548 13.78C8.07004 13.78 8.03373 13.6717 7.82022 13.5275C7.39233 13.2392 6.85725 12.8784 6.39306 12.5185L6.32131 12.4826C5.92972 12.2022 5.56667 11.92 5.23041 11.6387L7.92654 8.91374L10.7982 11.816C10.5259 12.0388 10.2346 12.2616 9.92509 12.4826Z" fill="#FDFDFD"/>
</svg>
